<?xml version="1.0" encoding="UTF-8" standalone="no"?>
<svg
   xmlns:dc="http://purl.org/dc/elements/1.1/"
   xmlns:cc="http://creativecommons.org/ns#"
   xmlns:rdf="http://www.w3.org/1999/02/22-rdf-syntax-ns#"
   xmlns:svg="http://www.w3.org/2000/svg"
   xmlns="http://www.w3.org/2000/svg"
   xmlns:xlink="http://www.w3.org/1999/xlink"
   xmlns:sodipodi="http://sodipodi.sourceforge.net/DTD/sodipodi-0.dtd"
   xmlns:inkscape="http://www.inkscape.org/namespaces/inkscape"
   sodipodi:docname="uactor.svg"
   inkscape:version="1.0 (4035a4fb49, 2020-05-01)"
   id="svg8"
   version="1.1"
   viewBox="0 0 256 256"
   height="256"
   width="256">
  <defs
     id="defs2">
    <linearGradient
       id="linearGradient1331"
       inkscape:collect="always">
      <stop
         id="stop1327"
         offset="0"
         style="stop-color:#642800;stop-opacity:1" />
      <stop
         id="stop1329"
         offset="1"
         style="stop-color:#000000;stop-opacity:1" />
    </linearGradient>
    <linearGradient
       id="linearGradient1323"
       inkscape:collect="always">
      <stop
         id="stop1319"
         offset="0"
         style="stop-color:#6f2424;stop-opacity:1" />
      <stop
         id="stop1321"
         offset="1"
         style="stop-color:#552200;stop-opacity:1" />
    </linearGradient>
    <linearGradient
       id="linearGradient1291"
       inkscape:collect="always">
      <stop
         id="stop1287"
         offset="0"
         style="stop-color:#c64618;stop-opacity:0" />
      <stop
         id="stop1289"
         offset="1"
         style="stop-color:#6f2424;stop-opacity:1" />
    </linearGradient>
    <linearGradient
       id="linearGradient1188"
       inkscape:collect="always">
      <stop
         id="stop1184"
         offset="0"
         style="stop-color:#ff6600;stop-opacity:1" />
      <stop
         id="stop1186"
         offset="1"
         style="stop-color:#aa0000;stop-opacity:1" />
    </linearGradient>
    <radialGradient
       gradientUnits="userSpaceOnUse"
       gradientTransform="matrix(1.366876,0,0,1.4911034,-39.724133,-73.218313)"
       r="110.88223"
       fy="190.03427"
       fx="107.74171"
       cy="190.03427"
       cx="107.74171"
       id="radialGradient1190"
       xlink:href="#linearGradient1188"
       inkscape:collect="always" />
    <radialGradient
       gradientUnits="userSpaceOnUse"
       gradientTransform="matrix(1.2801632,0.27490621,-0.35069188,1.6330765,53.043934,-161.36581)"
       r="71.450981"
       fy="220.85028"
       fx="104.7981"
       cy="220.85028"
       cx="104.7981"
       id="radialGradient1293"
       xlink:href="#linearGradient1291"
       inkscape:collect="always" />
    <radialGradient
       gradientTransform="matrix(1.9924899,0,0,1.9924895,-114.73663,-206.45174)"
       gradientUnits="userSpaceOnUse"
       r="45.46582"
       fy="215.73425"
       fx="114.80202"
       cy="215.73425"
       cx="114.80202"
       id="radialGradient1325"
       xlink:href="#linearGradient1323"
       inkscape:collect="always" />
    <radialGradient
       gradientUnits="userSpaceOnUse"
       gradientTransform="matrix(1.4575731,-1.2984261e-8,0,2.2883399,-38.982209,-281.82852)"
       r="116.45403"
       fy="238.03462"
       fx="90.919716"
       cy="238.03462"
       cx="90.919716"
       id="radialGradient1335"
       xlink:href="#linearGradient1331"
       inkscape:collect="always" />
  </defs>
  <sodipodi:namedview
     inkscape:snap-nodes="false"
     inkscape:snap-page="true"
     inkscape:window-maximized="1"
     inkscape:window-y="0"
     inkscape:window-x="0"
     inkscape:window-height="1080"
     inkscape:window-width="1888"
     borderlayer="true"
     inkscape:showpageshadow="false"
     showborder="true"
     inkscape:pagecheckerboard="true"
     scale-x="1"
     units="px"
     showgrid="false"
     inkscape:document-rotation="0"
     inkscape:current-layer="layer1"
     inkscape:document-units="px"
     inkscape:cy="157.61141"
     inkscape:cx="260.33796"
     inkscape:zoom="1.4"
     inkscape:pageshadow="2"
     inkscape:pageopacity="0.0"
     borderopacity="1.0"
     bordercolor="#666666"
     pagecolor="#ffffff"
     id="base" />
  <metadata
     id="metadata5">
    <rdf:RDF>
      <cc:Work
         rdf:about="">
        <dc:format>image/svg+xml</dc:format>
        <dc:type
           rdf:resource="http://purl.org/dc/dcmitype/StillImage" />
        <dc:title></dc:title>
      </cc:Work>
    </rdf:RDF>
  </metadata>
  <g
     id="layer1"
     inkscape:groupmode="layer"
     inkscape:label="Layer 1">
    <rect
       y="19.738281"
       x="122.35431"
       height="152.97151"
       width="0"
       id="rect971"
       style="fill:none;stroke:#000000;stroke-miterlimit:4;stroke-dasharray:none;stroke-width:8" />
    <path
       transform="matrix(0.91719057,0,0,0.91719057,6.0786221,8.7417305)"
       d="m 208.45117,-3.4042969 c -5.81253,0.1438594 -10.45035,2.2702775 -15.68164,4.453125 -5.47605,2.2849824 -11.593,5.2010944 -17.54297,8.1796875 -11.899,5.9567194 -22.81183,11.9989524 -25.75,13.6953124 -3.13378,1.809288 -15.11946,9.022226 -26.95703,16.927734 -5.91733,3.951777 -11.71155,8.010281 -16.36523,11.765626 -2.31262,1.866189 -4.39191,3.672081 -6.222659,5.65625 -0.589366,0.638752 -2.722015,2.919836 -3.970703,6.203124 C 88.324565,58.391733 80.467235,53.418418 78.328125,52.154297 75.84217,50.685224 66.640343,45.47215 56.919922,40.552734 52.061867,38.094118 47.167377,35.750182 42.808594,34.017578 c -2.156323,-0.857134 -4.240425,-1.608622 -6.445313,-2.128906 -0.452273,-0.106723 -6.145493,-1.652051 -11.007812,1.089844 -4.862701,2.742104 -6.485215,8.416241 -6.626953,8.855468 -0.694396,2.151833 -1.134591,4.324671 -1.517578,6.617188 -0.772909,4.626504 -1.297051,10.027823 -1.707032,15.457031 -0.820383,10.864003 -1.121128,21.435095 -1.15039,24.320313 -0.02926,2.884394 0.05683,13.463494 0.65625,24.341794 0.299599,5.43718 0.715954,10.84807 1.394531,15.48828 0.335954,2.29731 0.729478,4.47816 1.380859,6.64649 0.13234,0.44053 1.637769,6.14723 6.445313,8.98828 4.250774,2.512 9.38814,1.60629 9.941406,1.51172 0.282796,-0.0483 0.520642,-0.15839 0.796875,-0.21485 -6.614281,16.86292 -7.88712,35.7321 -3.181641,53.29297 5.787004,21.59714 20.29647,40.50614 39.660157,51.68555 19.363767,11.17974 42.994644,14.28896 64.591794,8.50195 21.59713,-5.78701 40.50614,-20.29646 51.68555,-39.66015 2.8049,-4.85857 5.04203,-10.00097 6.81445,-15.29493 0.49184,0.28948 0.91739,0.65099 1.4668,0.85938 2.47989,0.94064 5.04353,1.20802 7.13281,0.74219 2.08928,-0.46584 3.28891,-1.26622 3.02539,-1.16016 1.68009,-0.67619 3.14903,-1.48116 4.57032,-2.3125 2.9017,-1.69728 5.98904,-3.80511 9.02343,-5.96875 5.9147,-4.21741 11.13506,-8.32205 12.93555,-9.7832 a 5.8927425,5.8927425 0 0 0 0.34766,-0.26367 5.8927425,5.8927425 0 0 0 0.002,0 c 1.6484,-1.34576 7.04346,-5.91989 12.50195,-11.00391 2.7271,-2.54003 5.4105,-5.14492 7.6543,-7.64844 1.0966,-1.22352 2.18032,-2.49902 3.18164,-4.01367 -0.15465,0.23394 0.86941,-0.7824 1.74219,-2.73633 0.87277,-1.95392 1.12237,-4.51821 0.69726,-7.13476 -0.42522,-2.61727 -1.47596,-4.97015 -2.92383,-6.54688 -1.44786,-1.57673 -2.74087,-2.21594 -2.51757,-2.04101 -1.42266,-1.11451 -2.85123,-1.98569 -4.28516,-2.80274 -2.92127,-1.66452 -6.29105,-3.28428 -9.68164,-4.83008 -6.78764,-3.09452 -13.35636,-5.72663 -15.34375,-6.48047 -0.35444,-0.13444 -1.34803,-0.45027 -1.86328,-0.6289 0.15882,-0.46555 0.55968,-1.31335 0.62695,-1.5293 0.80275,-2.57675 1.32705,-5.28189 1.78711,-8.21875 0.92552,-5.90808 1.54401,-12.9524 2.00781,-20.052732 0.92788,-14.204853 1.18163,-28.192715 1.18164,-31.810547 -1e-5,-3.617836 -0.25376,-17.605693 -1.18164,-31.810547 -0.4638,-7.100334 -1.08229,-14.14465 -2.00781,-20.052735 -0.46006,-2.93685 -0.98436,-5.642 -1.78711,-8.2187496 -0.36899,-1.1844276 -1.89877,-6.7676391 -6.96289,-9.6914063 -2.92041,-1.6860859 -6.12878,-1.813158 -7.41797,-1.78125 z"
       inkscape:original="M 208.59766 2.4863281 C 204.21474 2.5948048 200.30716 4.2881203 195.03906 6.4863281 C 189.77097 8.684536 183.74276 11.554741 177.86328 14.498047 C 166.10433 20.384658 155.11681 26.471417 152.42188 28.027344 C 149.54746 29.68689 137.47385 36.949786 125.79102 44.751953 C 119.9496 48.653037 114.25878 52.649821 109.85547 56.203125 C 107.65381 57.979777 105.78071 59.623245 104.26172 61.269531 C 102.74272 62.915818 100.91212 64.058292 100.91211 68.148438 C 100.91211 71.628759 102.39248 72.854272 103.60156 74.28125 C 104.81064 75.708228 106.25832 77.061668 107.96289 78.519531 C 110.47293 80.66628 113.90867 83.100874 117.26367 85.505859 C 115.89605 89.549226 114.82411 93.461207 114.0332 97.248047 C 112.56817 97.247939 111.10538 97.235416 109.64258 97.316406 C 110.54019 96.530133 111.4735 95.753628 112.20508 94.931641 C 113.28352 93.719917 114.74961 92.754837 114.78516 89.248047 C 114.82476 85.339173 113.16765 84.437332 111.95117 83.091797 C 110.73469 81.746262 109.2883 80.456003 107.60156 79.066406 C 104.2281 76.287211 99.917099 73.196813 95.494141 70.177734 C 86.648223 64.139576 77.563726 58.546551 75.330078 57.226562 C 73.096065 55.906374 63.815817 50.646777 54.259766 45.810547 C 49.48174 43.392432 44.694492 41.106694 40.632812 39.492188 C 38.601973 38.684933 36.775179 38.039629 35.009766 37.623047 C 33.244352 37.206464 31.654923 36.191269 28.25 38.111328 C 24.84506 40.031393 24.892995 41.916332 24.335938 43.642578 C 23.778879 45.368824 23.383541 47.266343 23.023438 49.421875 C 22.303227 53.732939 21.782142 59.011677 21.378906 64.351562 C 20.572435 75.031335 20.272411 85.694272 20.246094 88.289062 C 20.219784 90.883144 20.303324 101.5522 20.892578 112.24609 C 21.187205 117.59304 21.601925 122.88029 22.234375 127.20508 C 22.5506 129.36747 22.90586 131.27255 23.427734 133.00977 C 23.949609 134.74698 23.86317 136.63232 27.228516 138.62109 C 30.093138 140.31394 31.660799 139.65611 33.179688 139.39648 C 34.698575 139.13686 36.192734 138.69561 37.84375 138.13086 C 40.021277 137.38601 42.678137 136.17789 45.234375 135.06836 C 45.457403 135.32082 45.680582 135.56919 45.904297 135.81641 C 45.740052 136.09273 45.5554 136.35646 45.394531 136.63477 A 5.5395735 5.5395735 0 0 0 45.392578 136.63672 C 35.021485 154.59988 32.110004 176.72249 37.478516 196.75781 C 42.847028 216.79313 56.429303 234.49433 74.392578 244.86523 C 92.355744 255.23633 114.47835 258.14781 134.51367 252.7793 C 154.54899 247.41078 172.25019 233.82851 182.62109 215.86523 C 187.33077 207.70725 190.49685 198.69131 192.06836 189.4043 C 192.28214 190.10071 192.46736 190.97191 192.68945 191.60938 C 193.12381 192.85607 193.55711 193.96871 194.14844 195.07422 C 194.73976 196.17973 194.97269 197.68069 198.0957 198.86523 C 201.57643 200.1855 202.6885 199.00394 203.96484 198.49023 C 205.24119 197.97653 206.44459 197.32787 207.75977 196.55859 C 210.39011 195.02004 213.37496 192.99159 216.33789 190.87891 C 222.26375 186.65354 227.88124 182.23452 229.31445 181.06445 A 5.5395735 5.5395735 0 0 0 229.31641 181.06445 C 230.74967 179.89434 236.20325 175.27317 241.5293 170.3125 C 244.19232 167.83216 246.77664 165.31425 248.81055 163.04492 C 249.8275 161.91026 250.70608 160.86063 251.46484 159.71289 C 252.2236 158.56515 253.60093 157.71183 253.00391 154.03711 C 252.40689 150.36243 250.82918 149.99107 249.74609 149.14258 C 248.663 148.29409 247.49963 147.57464 246.17578 146.82031 C 243.52808 145.31166 240.27999 143.74204 236.96875 142.23242 C 230.34627 139.21319 223.70817 136.55646 221.97852 135.90039 C 220.95897 135.51367 216.40707 134.02448 212.89062 132.83398 C 212.90273 132.82698 212.91173 132.82701 212.92383 132.82031 C 216.46601 130.77524 216.54077 128.61911 217.20703 126.48047 C 217.87329 124.34183 218.36098 121.89661 218.79883 119.10156 C 219.67453 113.51147 220.29018 106.58561 220.74805 99.576172 C 221.66378 85.557297 221.91601 71.46979 221.91602 68.150391 C 221.91601 64.830988 221.66378 50.743485 220.74805 36.724609 C 220.29018 29.715172 219.67453 22.789306 218.79883 17.199219 C 218.36098 14.404175 217.87329 11.958948 217.20703 9.8203125 C 216.54077 7.6816773 216.46601 5.5255439 212.92383 3.4804688 C 211.15297 2.4580721 209.76969 2.4573198 208.59766 2.4863281 z M 188.12695 126.60742 C 188.71071 126.87674 189.21452 127.07232 189.78906 127.33203 C 188.96239 127.4815 188.00306 127.85791 186.72852 128.89844 A 5.5395735 5.5395735 0 0 0 186.72656 128.89844 C 184.27232 130.90212 184.43766 132.37078 184.21875 133.55273 C 183.99984 134.73469 183.93241 135.85182 183.9043 137.08398 C 183.8896 137.72643 183.98069 138.56937 183.99219 139.26172 C 183.10508 137.58319 182.11064 135.97388 181.10547 134.36328 C 183.46655 132.01288 185.80623 129.42954 188.12695 126.60742 z "
       inkscape:radius="5.8921533"
       sodipodi:type="inkscape:offset"
       style="fill:url(#radialGradient1335);fill-opacity:1;stroke:none;stroke-width:1.09028;stroke-miterlimit:4;stroke-dasharray:none"
       id="path1224" />
    <path
       transform="matrix(0.91719057,0,0,0.91719057,6.0786221,8.7417305)"
       d="m 207.74805,12.568359 c -1.51131,0.318944 -4.79785,1.247755 -8.93164,2.972657 -4.91617,2.05136 -10.8007,4.847047 -16.56055,7.730468 -11.51971,5.766843 -22.67799,11.955019 -24.92774,13.253907 -2.39987,1.385569 -14.66973,8.761308 -26.08789,16.386718 -5.70907,3.812705 -11.2466,7.717265 -15.22265,10.925782 -1.98803,1.604258 -3.59036,3.05138 -4.54492,4.085937 -0.0968,0.104949 -0.0741,0.13867 -0.14844,0.240234 0.6568,0.743404 1.65305,1.731402 3.01758,2.898438 2.94259,2.516701 7.19046,5.656898 11.84179,8.878906 a 4.2737714,4.2737714 0 0 1 1.56055,5.03125 c -2.50397,6.586683 -4.12616,12.742395 -4.99609,18.380864 a 4.2737714,4.2737714 0 0 1 -4.48438,3.61328 c -7.1013,-0.43626 -14.26963,0.22747 -21.16992,1.96093 a 4.2737714,4.2737714 0 0 1 -5.0625,-2.69726 c -0.373402,-1.03734 -0.768435,-2.07889 -1.197266,-3.13672 a 4.2737714,4.2737714 0 0 1 1.583985,-5.15625 c 3.804674,-2.546492 7.339134,-5.064853 9.783201,-7.072266 0.86107,-0.70723 1.35553,-1.21091 1.88477,-1.730468 -0.68726,-0.698435 -1.51085,-1.496147 -2.72461,-2.496094 C 98.411608,84.208577 94.254418,81.210615 89.962891,78.28125 81.379837,72.422521 72.099917,66.717061 70.337891,65.675781 68.576141,64.634676 59.100202,59.256966 49.828125,54.564453 45.192087,52.218197 40.561252,50.023034 37.009766,48.611328 c -1.463585,-0.581771 -2.562171,-0.92056 -3.50586,-1.185547 -0.26163,0.944691 -0.541186,2.059389 -0.800781,3.613281 -0.629743,3.769547 -1.147809,8.869579 -1.539063,14.050782 -0.782506,10.362406 -1.084714,21.252544 -1.105468,23.298828 -0.02076,2.046834 0.05912,12.940298 0.630859,23.316408 0.285871,5.18805 0.700903,10.29855 1.253906,14.08008 0.227434,1.55522 0.482714,2.67169 0.72461,3.62109 0.615317,-0.15691 1.133397,-0.26412 2,-0.56055 2.721377,-0.93087 6.395341,-2.48543 10.28125,-4.27343 a 4.2737714,4.2737714 0 0 1 5.126953,1.21679 c 1.897321,2.37637 3.812009,4.50023 5.728516,6.40039 a 4.2737714,4.2737714 0 0 1 0.541015,5.41602 c -0.862346,1.28517 -1.682511,2.59951 -2.457031,3.93945 -9.085575,15.73804 -11.636994,35.11876 -6.933594,52.67188 4.703627,17.55396 16.605208,33.06391 32.34375,42.15039 15.738447,9.08664 35.119862,11.63917 52.673832,6.93554 17.55396,-4.70362 33.06391,-16.6052 42.15039,-32.34375 5.25715,-9.10631 8.4064,-19.42039 9.13281,-29.91015 a 4.2737714,4.2737714 0 0 1 4.78711,-3.94531 c 2.24641,0.27742 4.72316,0.39624 7.45898,0.30664 a 4.2737714,4.2737714 0 0 1 4.29493,3.26562 c 0.72009,2.97568 1.48635,5.77113 2.16015,7.70508 0.0201,0.0577 0.0308,0.0668 0.0508,0.12305 0.30367,-0.16429 0.45511,-0.21302 0.79883,-0.41407 2.15643,-1.26134 5.00063,-3.17892 7.83398,-5.19922 5.66672,-4.04058 11.46053,-8.60462 12.46876,-9.42773 1.00819,-0.82309 6.63926,-5.58632 11.73242,-10.33008 2.54658,-2.37188 4.99462,-4.77622 6.66211,-6.63672 0.25797,-0.28783 0.3322,-0.42167 0.54882,-0.67968 -0.2869,-0.17598 -0.39892,-0.27957 -0.73437,-0.47071 -2.17068,-1.23685 -5.25348,-2.74194 -8.41992,-4.18554 -6.3329,-2.88721 -13.18323,-5.62231 -14.40039,-6.08399 -1.21699,-0.46161 -8.15764,-2.95707 -14.8125,-4.99609 -3.32743,-1.01951 -6.63311,-1.9373 -9.07813,-2.45117 -0.38776,-0.0815 -0.54609,-0.0791 -0.88476,-0.13868 -0.0332,1.84349 0.0793,4.397 0.29882,7.17579 a 4.2737714,4.2737714 0 0 1 -2.91015,4.39062 c -2.61078,0.86917 -4.92106,1.86411 -6.9668,2.94141 a 4.2737714,4.2737714 0 0 1 -5.94141,-2.15625 c -2.00363,-4.87113 -4.56401,-9.51334 -7.61523,-13.80664 a 4.2737714,4.2737714 0 0 1 0.62891,-5.65625 c 3.92904,-3.52485 7.9332,-7.87542 11.91601,-13.09375 a 4.2737714,4.2737714 0 0 1 5.24414,-1.26172 c 5.45818,2.61797 10.70683,4.95196 14.69727,6.40625 1.93002,0.70338 3.53187,1.16991 4.62305,1.39453 0.0537,-0.12 0.0959,-0.11829 0.14062,-0.26172 0.4187,-1.34398 0.87026,-3.45467 1.26563,-5.97852 0.79073,-5.04768 1.40602,-11.79584 1.85351,-18.64648 0.89499,-13.701284 1.14648,-28.016208 1.14649,-30.787109 -1e-5,-2.770892 -0.2515,-17.085824 -1.14649,-30.78711 -0.44749,-6.850643 -1.06278,-13.598799 -1.85351,-18.646484 -0.39537,-2.523842 -0.84693,-4.634531 -1.26563,-5.978516 -0.0289,-0.09279 -0.0566,-0.0869 -0.0898,-0.169922 z M 193.86719,135.33984 c -0.004,0.0217 -0.008,0.11278 -0.0117,0.13868 0.11245,-0.24297 0.0432,-0.30887 0.0117,-0.13868 z m 8.89648,55.01368 c 0.009,0.0166 0.0291,0.0768 0.0371,0.0918 0.10222,0.19111 0.15731,0.10897 -0.0371,-0.0918 z"
       inkscape:original="M 208.73438 8.0234375 C 199.5269 8.2513218 160.07867 30.00256 155.19141 32.824219 C 149.97833 35.833995 106.45118 62.128887 106.45117 68.148438 C 106.45117 70.704678 114.31857 76.921867 123.75 83.455078 C 121.14976 90.294984 119.44584 96.735288 118.52539 102.70117 A 73.689448 73.689448 0 0 0 96.052734 104.7832 C 95.66272 103.69971 95.247377 102.60439 94.794922 101.48828 C 102.52911 96.31174 109.22533 91.239409 109.24609 89.191406 C 109.29245 84.621073 76.44656 64.321411 72.511719 61.996094 C 68.576873 59.670798 34.951894 40.690526 30.970703 42.935547 C 26.989509 45.180565 25.83151 83.77538 25.785156 88.345703 C 25.738806 92.916029 26.112034 131.52624 30.046875 133.85156 C 31.717833 134.83901 38.822423 132.09647 46.736328 128.45508 C 48.734001 130.95714 50.760505 133.20561 52.796875 135.22461 A 73.689448 73.689448 0 0 0 50.189453 139.40625 A 73.689448 73.689448 0 0 0 77.162109 240.06836 A 73.689448 73.689448 0 0 0 177.82422 213.0957 A 73.689448 73.689448 0 0 0 187.51953 181.34375 C 189.99651 181.64965 192.69727 181.77811 195.64258 181.68164 C 197.11814 187.77917 198.76968 193.19593 200.06055 193.68555 C 202.94125 194.77822 223.42588 178.72186 225.8125 176.77344 C 228.19913 174.825 248.03119 157.96687 247.53711 154.92578 C 247.04303 151.88468 222.89438 142.17275 220.01367 141.08008 C 217.13298 139.98742 192.61711 131.24103 190.23047 133.18945 C 189.21699 134.01687 189.29922 139.14789 189.76172 145.00195 C 186.94002 145.94134 184.41378 147.02695 182.1543 148.2168 A 73.689448 73.689448 0 0 0 174.07031 133.56055 C 178.22616 129.83223 182.40404 125.28193 186.5293 119.87695 C 197.58092 125.17777 207.81829 129.37215 210.1543 128.02344 C 215.3674 125.01367 216.37694 74.169942 216.37695 68.150391 C 216.37694 62.130848 215.36738 11.287113 210.1543 8.2773438 C 209.82848 8.0892329 209.3482 8.0082452 208.73438 8.0234375 z "
       inkscape:radius="-4.273344"
       sodipodi:type="inkscape:offset"
       style="fill:url(#radialGradient1190);fill-opacity:1;stroke:none;stroke-width:1.09028;stroke-miterlimit:4;stroke-dasharray:none"
       id="rect1149" />
    <path
       d="m 118.89665,102.15186 c -0.0813,0.46372 -0.16426,0.92835 -0.23468,1.38474 a 3.9198628,3.9198628 0 0 1 -4.11303,3.31407 c -6.51324,-0.40014 -13.08797,0.20863 -19.416849,1.79854 a 3.9198628,3.9198628 0 0 1 -4.643274,-2.4739 c -0.17594,-0.48877 -0.376364,-0.98558 -0.564287,-1.47789 a 67.883522,67.883522 0 0 0 -33.957548,23.96519 c 0.431354,0.45323 0.863405,0.89395 1.295174,1.32203 a 3.9198628,3.9198628 0 0 1 0.496213,4.96753 c -0.790935,1.17874 -1.543183,2.38424 -2.253565,3.61322 -8.333204,14.43479 -10.673341,32.2106 -6.359427,48.31016 4.314122,16.10032 15.23014,30.3259 29.665382,38.65994 14.435155,8.33418 32.211601,10.67533 48.311941,6.36121 16.10033,-4.31412 30.32591,-15.23014 38.65994,-29.66538 4.82181,-8.35223 7.71027,-17.8122 8.37653,-27.43331 a 3.9198628,3.9198628 0 0 1 3.91238,-3.64727 67.883522,67.883522 0 0 0 0.0215,-1.67315 67.883522,67.883522 0 0 0 -3.39468,-21.19392 3.9198628,3.9198628 0 0 1 -5.17353,-2.10846 c -1.83771,-4.46775 -4.18607,-8.72554 -6.98462,-12.66332 a 3.9198628,3.9198628 0 0 1 0.57683,-5.18786 c 0.20987,-0.18829 0.42024,-0.38876 0.63057,-0.5822 a 67.883522,67.883522 0 0 0 -44.85101,-25.58997 z"
       style="fill:url(#radialGradient1293);fill-opacity:1;stroke:none;stroke-width:1;stroke-miterlimit:4;stroke-dasharray:none"
       id="path1278" />
    <path
       d="m 123.09207,83.546503 a 3.9198628,3.9198628 0 0 1 0.15227,3.131346 c -2.29662,6.041243 -3.78447,11.687203 -4.58237,16.858751 a 3.9198628,3.9198628 0 0 1 -1.67853,2.64767 c 14.65075,2.59763 29.60396,11.12275 44.83307,25.05435 a 3.9198628,3.9198628 0 0 1 1.30055,-2.91459 c 3.60367,-3.23295 7.27625,-7.22326 10.92925,-12.00946 a 3.9198628,3.9198628 0 0 1 4.80987,-1.15724 c 0.27473,0.13177 0.53989,0.25145 0.81329,0.38156 l 0.10033,-0.0949 C 160.54548,105.63306 141.51297,95.347856 123.09207,83.546503 Z M 90.160993,99.149492 C 75.719294,107.40095 60.943401,116.05654 47.848412,122.67937 l 0.06807,0.0967 a 3.9198628,3.9198628 0 0 1 4.091531,1.33817 c 1.740205,2.17958 3.496337,4.12757 5.25414,5.87037 a 3.9198628,3.9198628 0 0 1 0.664605,4.69344 C 67.959543,124.61236 79.86869,115.7942 94.45853,108.75667 a 3.9198628,3.9198628 0 0 1 -3.969716,-2.58139 c -0.34248,-0.95144 -0.704801,-1.90673 -1.098121,-2.87697 a 3.9198628,3.9198628 0 0 1 0.770297,-4.148848 z m 93.610767,44.026938 a 3.9198628,3.9198628 0 0 1 -2.40763,2.27864 c -2.39458,0.7972 -4.51355,1.70975 -6.38988,2.69784 a 3.9198628,3.9198628 0 0 1 -3.74042,-0.0502 c 2.6066,10.61945 3.77397,18.25837 4.10407,24.15686 a 3.9198628,3.9198628 0 0 1 3.21196,-1.0802 c 2.06039,0.25444 4.33204,0.36342 6.84131,0.28124 a 3.9198628,3.9198628 0 0 1 2.61901,0.89032 c -2.06833,-9.78428 -4.23954,-19.57762 -4.23842,-29.17454 z"
       style="fill:#6f2424;fill-opacity:1;stroke:none;stroke-width:1px;stroke-linecap:butt;stroke-linejoin:miter;stroke-opacity:1"
       id="path1230" />
    <path
       sodipodi:nodetypes="sssss"
       id="path1244"
       style="fill:#6e096b;fill-opacity:1;stroke:none;stroke-width:1;stroke-miterlimit:4;stroke-dasharray:none"
       d="m 306.52101,66.308148 c 0,5.57765 -5.07004,12.30299 -11.32426,12.302993 -6.25422,2e-6 -11.32427,-3.417169 -11.32427,-8.994822 0,-5.577652 5.07005,-11.203642 11.32427,-11.20364 6.25422,3e-6 11.32426,2.31782 11.32426,7.895469 z" />
    <path
       d="m 333.38303,66.308148 c 0,5.57765 -5.07004,9.784767 -11.32426,9.78477 -6.25422,2e-6 -11.32427,-0.898946 -11.32427,-6.476599 0,-5.577652 1.71909,-11.203642 7.97331,-11.20364 6.25422,3e-6 14.67522,2.31782 14.67522,7.895469 z"
       style="fill:#6e096b;fill-opacity:1;stroke:none;stroke-width:1;stroke-miterlimit:4;stroke-dasharray:none"
       id="path1246"
       sodipodi:nodetypes="sssss" />
    <path
       sodipodi:nodetypes="sssss"
       id="path1248"
       style="fill:#6e096b;fill-opacity:1;stroke:none;stroke-width:1;stroke-miterlimit:4;stroke-dasharray:none"
       d="m 306.52101,90.167243 c 0,5.57765 -5.07004,12.302987 -11.32426,12.302997 -6.25422,0 -11.32427,-6.214011 -11.32427,-11.791664 0,-5.577652 8.13188,-8.406804 14.3861,-8.406802 6.25422,3e-6 8.26243,2.31782 8.26243,7.895469 z" />
    <path
       sodipodi:nodetypes="sssss"
       id="path1250"
       style="fill:#6e096b;fill-opacity:1;stroke:none;stroke-width:1;stroke-miterlimit:4;stroke-dasharray:none"
       d="m 333.38303,91.085375 c 0,5.57765 -5.07004,9.784765 -11.32426,9.784775 -6.25422,0 -11.32427,-0.898951 -11.32427,-6.476604 0,-5.577652 8.59745,-11.203642 14.85167,-11.20364 6.25422,3e-6 7.79686,2.31782 7.79686,7.895469 z" />
    <path
       d="m 333.38303,109.15255 c 0,5.57765 -1.22162,12.21857 -7.47584,12.21858 -6.25422,0 -16.6752,-1.10513 -15.17269,-6.47661 0.98599,-3.52494 6.81435,-7.88341 11.47374,-11.20364 5.09335,-3.62947 11.17479,-0.11598 11.17479,5.46167 z"
       style="fill:#6e096b;fill-opacity:1;stroke:none;stroke-width:1;stroke-miterlimit:4;stroke-dasharray:none"
       id="path1252"
       sodipodi:nodetypes="sssss" />
    <path
       d="m 306.97427,112.70546 c 0,5.57765 -7.33143,1.19872 -11.44776,9.33728 -2.82275,5.58098 -11.20077,-3.2483 -11.20077,-8.82595 0,-5.57765 5.53415,-8.4068 11.78837,-8.4068 6.25422,0 10.86016,2.31782 10.86016,7.89547 z"
       style="fill:#6e096b;fill-opacity:1;stroke:none;stroke-width:1;stroke-miterlimit:4;stroke-dasharray:none"
       id="path1254"
       sodipodi:nodetypes="sssss" />
    <path
       sodipodi:nodetypes="sssss"
       id="path1256"
       style="fill:#6e096b;fill-opacity:1;stroke:none;stroke-width:1;stroke-miterlimit:4;stroke-dasharray:none"
       d="m 284.32574,132.55924 c 0,5.57765 4.21695,0.34226 8.33328,8.48082 2.82275,5.58098 14.31525,-2.39184 14.31525,-7.96949 0,-5.57765 -6.5933,-6.5579 -12.84752,-6.5579 -6.25422,0 -9.80101,0.46892 -9.80101,6.04657 z" />
    <path
       sodipodi:nodetypes="sssss"
       id="path1258"
       style="fill:#6e096b;fill-opacity:1;stroke:none;stroke-width:1;stroke-miterlimit:4;stroke-dasharray:none"
       d="m 333.38303,66.308148 c 0,5.57765 -5.07004,9.784767 -11.32426,9.78477 -6.25422,2e-6 -11.32427,-0.898946 -11.32427,-6.476599 0,-5.577652 1.71909,-11.203642 7.97331,-11.20364 6.25422,3e-6 14.67522,2.31782 14.67522,7.895469 z" />
    <use
       style="opacity:0.824773;stroke-width:1.27832"
       height="100%"
       width="100%"
       transform="matrix(0.73243884,-0.35345558,0.32703522,0.67768996,-117.42392,130.93204)"
       id="use1262"
       xlink:href="#path1258"
       y="0"
       x="0" />
    <use
       style="opacity:0.763911;stroke-width:0.895731"
       height="100%"
       width="100%"
       transform="matrix(0.98146793,-0.53205047,0.53205047,0.98146793,-197.04056,108.01656)"
       id="use1264"
       xlink:href="#path1252"
       y="0"
       x="0" />
    <use
       style="fill:#6e096b;fill-opacity:1"
       id="use1266"
       xlink:href="#path1256"
       y="0"
       x="0" />
    <use
       style="opacity:0.584565;stroke-width:1.53147"
       height="100%"
       width="100%"
       transform="matrix(0.63560217,0.14418773,-0.10266436,0.64751466,22.001196,18.610261)"
       id="use1270"
       xlink:href="#use1266"
       y="0"
       x="0" />
    <use
       style="opacity:0.733922;stroke-width:0.726242"
       height="100%"
       width="100%"
       transform="matrix(1.3769495,0,0,1.3769495,-376.4782,-37.081803)"
       id="use1272"
       xlink:href="#path1250"
       y="0"
       x="0" />
    <use
       style="opacity:0.449983;stroke-width:1.46641"
       height="100%"
       width="100%"
       transform="matrix(0.38204006,-0.56487518,0.56487518,0.38204006,-143.66568,215.34742)"
       id="use1274"
       xlink:href="#path1252"
       y="0"
       x="0" />
    <use
       style="opacity:0.677134;stroke-width:0.552893"
       height="100%"
       width="100%"
       transform="matrix(1.4157758,1.1255484,-1.1255484,1.4157758,-156.77432,-435.67408)"
       id="use1276"
       xlink:href="#path1252"
       y="0"
       x="0" />
    <circle
       r="41.700821"
       cy="170.79269"
       cx="110.93352"
       id="path1317"
       style="opacity:1;fill:url(#radialGradient1325);fill-opacity:1;stroke:none;stroke-width:0.999995;stroke-miterlimit:4;stroke-dasharray:none" />
  </g>
</svg>
