<?xml version="1.0" encoding="UTF-8" standalone="no"?>
<svg
   xmlns:dc="http://purl.org/dc/elements/1.1/"
   xmlns:cc="http://creativecommons.org/ns#"
   xmlns:rdf="http://www.w3.org/1999/02/22-rdf-syntax-ns#"
   xmlns:svg="http://www.w3.org/2000/svg"
   xmlns="http://www.w3.org/2000/svg"
   xmlns:xlink="http://www.w3.org/1999/xlink"
   xmlns:sodipodi="http://sodipodi.sourceforge.net/DTD/sodipodi-0.dtd"
   xmlns:inkscape="http://www.inkscape.org/namespaces/inkscape"
   shape-rendering="crispEdges"
   inkscape:version="1.0 (4035a4fb49, 2020-05-01)"
   inkscape:export-ydpi="71.53791"
   inkscape:export-xdpi="71.53791"
   inkscape:export-filename="/home/felipe/Development/uactor/images/uactor-title.128.png"
   sodipodi:docname="uactor-title.svg"
   width="550.09186"
   height="171.76907"
   viewBox="0 0 550.09186 171.76908"
   version="1.1"
   id="svg8">
  <sodipodi:namedview
     fit-margin-bottom="0"
     fit-margin-right="0"
     fit-margin-left="0"
     fit-margin-top="0"
     borderlayer="true"
     inkscape:pagecheckerboard="true"
     showborder="true"
     inkscape:showpageshadow="false"
     inkscape:current-layer="svg8"
     inkscape:window-maximized="1"
     inkscape:window-y="0"
     inkscape:window-x="0"
     inkscape:cy="-2.7494621"
     inkscape:cx="193.61806"
     inkscape:zoom="1.1479447"
     showgrid="false"
     id="namedview47"
     inkscape:window-height="1080"
     inkscape:window-width="1888"
     inkscape:pageshadow="2"
     inkscape:pageopacity="0"
     guidetolerance="10"
     gridtolerance="10"
     objecttolerance="10"
     borderopacity="1"
     bordercolor="#666666"
     pagecolor="#ffffff" />
  <defs
     id="defs2">
    <linearGradient
       id="linearGradient876">
      <stop
         id="stop872"
         offset="0"
         style="stop-color:#840949;stop-opacity:1" />
      <stop
         id="stop874"
         offset="1"
         style="stop-color:#371600;stop-opacity:1" />
    </linearGradient>
    <linearGradient
       id="linearGradient1331">
      <stop
         style="stop-color:#642800;stop-opacity:1"
         offset="0"
         id="stop1327" />
      <stop
         style="stop-color:#000000;stop-opacity:1"
         offset="1"
         id="stop1329" />
    </linearGradient>
    <linearGradient
       id="linearGradient1323">
      <stop
         style="stop-color:#6f2424;stop-opacity:1"
         offset="0"
         id="stop1319" />
      <stop
         style="stop-color:#552200;stop-opacity:1"
         offset="1"
         id="stop1321" />
    </linearGradient>
    <linearGradient
       id="linearGradient1291">
      <stop
         style="stop-color:#c64618;stop-opacity:0"
         offset="0"
         id="stop1287" />
      <stop
         style="stop-color:#6f2424;stop-opacity:1"
         offset="1"
         id="stop1289" />
    </linearGradient>
    <linearGradient
       id="linearGradient1188">
      <stop
         style="stop-color:#ff6600;stop-opacity:1"
         offset="0"
         id="stop1184" />
      <stop
         style="stop-color:#aa0000;stop-opacity:1"
         offset="1"
         id="stop1186" />
    </linearGradient>
    <radialGradient
       xlink:href="#linearGradient1188"
       id="radialGradient1190"
       cx="107.74171"
       cy="190.03427"
       fx="107.74171"
       fy="190.03427"
       r="110.88223"
       gradientTransform="matrix(1.366876,0,0,1.4911034,-39.724133,-73.218313)"
       gradientUnits="userSpaceOnUse" />
    <radialGradient
       xlink:href="#linearGradient1291"
       id="radialGradient1293"
       cx="104.7981"
       cy="220.85028"
       fx="104.7981"
       fy="220.85028"
       r="71.450981"
       gradientTransform="matrix(1.2801632,0.27490621,-0.35069188,1.6330765,53.043934,-161.36581)"
       gradientUnits="userSpaceOnUse" />
    <radialGradient
       xlink:href="#linearGradient1323"
       id="radialGradient1325"
       cx="114.80202"
       cy="215.73425"
       fx="114.80202"
       fy="215.73425"
       r="45.46582"
       gradientUnits="userSpaceOnUse"
       gradientTransform="matrix(1.9924899,0,0,1.9924895,-114.73663,-206.45174)" />
    <radialGradient
       xlink:href="#linearGradient1331"
       id="radialGradient1335"
       cx="90.919716"
       cy="238.03462"
       fx="90.919716"
       fy="238.03462"
       r="116.45403"
       gradientTransform="matrix(1.4575731,-1.2984261e-8,0,2.2883399,-38.982209,-281.82852)"
       gradientUnits="userSpaceOnUse" />
    <linearGradient
       gradientTransform="translate(-31.56413,-76.879543)"
       xlink:href="#linearGradient876"
       id="linearGradient1400"
       x1="32.619297"
       y1="114.47554"
       x2="404.52072"
       y2="178.80368"
       gradientUnits="userSpaceOnUse" />
    <linearGradient
       y2="178.80368"
       x2="404.52072"
       y1="114.47554"
       x1="32.619297"
       gradientTransform="translate(-23.081708,-68.889541)"
       gradientUnits="userSpaceOnUse"
       id="linearGradient998"
       xlink:href="#linearGradient876"
       inkscape:collect="always" />
  </defs>
  <metadata
     id="metadata5">
    <rdf:RDF>
      <cc:Work
         rdf:about="">
        <dc:format>image/svg+xml</dc:format>
        <dc:type
           rdf:resource="http://purl.org/dc/dcmitype/StillImage" />
        <dc:title></dc:title>
      </cc:Work>
    </rdf:RDF>
  </metadata>
  <path
     d="m 487.22265,0.0095328 c -5.26092,0.1302071 -9.17807,2.0136827 -12.10351,3.234375 -3.50029,1.4605596 -7.2295,3.2434294 -10.82422,5.0429688 -7.18727,3.5979964 -13.53737,7.1094794 -15.57031,8.2832034 -2.16735,1.251318 -9.13415,5.447611 -16.30469,10.236328 -3.57983,2.390717 -7.13972,4.871258 -10.21094,7.34961 -0.92615,0.747363 -1.85519,1.680748 -2.78711,2.550781 -1.48418,-0.943468 -3.76112,-2.452116 -4.50976,-2.894531 -1.76993,-1.045935 -7.11836,-4.073804 -13.05469,-7.078125 -2.96234,-1.499215 -6.00557,-2.965877 -8.96094,-4.140625 -1.421,-0.564848 -3.03125,-1.160984 -4.90625,-1.603516 h -0.002 c 0.47801,0.112775 -0.48951,-0.128671 -1.1875,-0.25 -0.69864,-0.121442 -1.60652,-0.237937 -2.69336,-0.267578 -2.17367,-0.05928 -5.20051,0.19771 -8.35156,1.974609 -3.15227,1.777581 -4.93995,4.235824 -6.01367,6.126953 -0.53687,0.945565 -0.90277,1.782764 -1.16016,2.44336 -0.25739,0.660596 -0.55721,1.624454 -0.40234,1.144531 -0.58792,1.822241 -0.91588,3.508579 -1.16993,5.029297 -0.52457,3.140026 -0.84005,6.502686 -1.08984,9.810547 -0.50101,6.634657 -0.68033,12.777217 -0.70117,14.832031 -0.001,0.11893 0.007,0.514493 0.006,0.660156 h -3.14453 V 49.22633 a 8.4830584,8.4830584 0 0 0 -8.48243,-8.482422 h -20.0957 a 8.4830584,8.4830584 0 0 0 -8.48242,8.482422 v 13.267578 h -6.23828 a 8.4830584,8.4830584 0 0 0 -8.48242,8.482422 v 14.884766 a 8.4830584,8.4830584 0 0 0 0.084,1.191406 c -2.23937,-5.531527 -5.52654,-10.521696 -9.9668,-14.605469 -8.31188,-7.748273 -19.44345,-11.607422 -31.72656,-11.607422 -14.40743,0 -27.21748,5.14352 -36.10156,15.158203 -0.003,0.0031 -0.005,0.0066 -0.008,0.0098 -8.83203,9.90795 -13.06055,23.17898 -13.06055,38.302736 v 2.06641 c 0,15.73076 4.19568,29.32494 13.19141,39.26758 8.94342,9.88484 21.7148,14.94726 36.06054,14.94726 7.6839,0 15.10798,-1.72372 21.85156,-5.1289 6.70705,-3.38672 12.34475,-8.20199 16.42774,-14.22266 a 8.4830584,8.4830584 0 0 0 0.0254,-0.0391 c 4.03854,-6.02359 6.35865,-12.89587 6.64063,-20.01563 a 8.4830584,8.4830584 0 0 0 -8.47461,-8.81836 h -18.93946 a 8.4830584,8.4830584 0 0 0 -8.4707,8.04883 c -0.11458,2.23419 -0.60641,3.29441 -2.43555,4.91016 -1.71255,1.51275 -3.50259,2.25781 -6.87304,2.25781 -4.55727,0 -6.37451,-0.98514 -8.3711,-3.64844 -1.87019,-2.60943 -3.57226,-8.07626 -3.57226,-16.73047 v -3.17773 c 0.0492,-8.56114 1.79956,-13.88375 3.66796,-16.365239 a 8.4830584,8.4830584 0 0 0 0.0293,-0.03711 c 2.03773,-2.738192 3.8006,-3.69336 8.2461,-3.69336 3.22919,0 4.73317,0.690588 6.43945,2.425782 a 8.4830584,8.4830584 0 0 0 0.0508,0.05078 c 1.82437,1.824375 2.66872,3.631327 2.81445,7.019527 a 8.4830584,8.4830584 0 0 0 8.47461,8.11719 h 18.93946 a 8.4830584,8.4830584 0 0 0 8.47851,-8.75976 c -0.14975,-4.567332 -1.10096,-8.879104 -2.45703,-13.000004 a 8.4830584,8.4830584 0 0 0 7.51758,4.558594 h 6.23828 v 42.21093 c 0,9.79904 2.23764,18.51721 7.98633,24.86133 5.74868,6.34413 14.37356,9.17578 23.65234,9.17578 5.09009,0 10.27033,-0.76283 15.4961,-2.21094 a 8.4830584,8.4830584 0 0 0 6.21679,-8.17382 v -15.54688 a 8.4830584,8.4830584 0 0 0 -10.40429,-8.26172 c -1.77545,0.4129 -3.4631,0.60547 -5.10743,0.60547 -0.42218,0 -0.39544,-0.0379 -0.6582,-0.0664 -0.0523,-0.35912 -0.12109,-0.51348 -0.12109,-1.12696 V 94.343518 h 6.57617 c 0.13028,0.273624 0.24744,0.536855 0.4082,0.833984 1.03504,1.913015 2.77452,4.406564 5.89063,6.248048 0.0679,0.0401 0.13328,0.0628 0.20117,0.10156 -1.92818,8.91956 -1.80372,18.2675 0.59375,27.21484 3.96739,14.80635 13.78342,27.59941 27.05859,35.26367 13.27554,7.66468 29.26236,9.76809 44.06836,5.80079 14.80634,-3.9674 27.59744,-13.78342 35.26172,-27.0586 a 7.9853097,7.9853097 0 0 0 0.002,0 c 0.75534,-1.30836 1.3945,-2.6535 2.02735,-3.99804 0.61185,-0.0544 1.22631,-0.11536 1.86523,-0.25782 0.0426,-0.009 0.0791,-0.0215 0.1211,-0.0312 v 21.99414 a 8.4830584,8.4830584 0 0 0 8.48242,8.48243 h 20.0957 a 8.4830584,8.4830584 0 0 0 8.48242,-8.48243 V 108.9588 c 0.24511,-0.42552 0.49015,-0.8926 0.72656,-1.42187 1.28777,-2.883 1.44446,-5.65197 1.04883,-8.380862 1.63909,-1.426045 4.01114,-2 8.34961,-2 2.36716,0 4.62625,0.185753 6.79297,0.546875 a 8.4830584,8.4830584 0 0 0 9.87695,-8.330079 l 0.082,-18.855468 a 8.4830584,8.4830584 0 0 0 -5.25196,-7.88086 c -3.28055,-1.350816 -6.71285,-1.796875 -10.3418,-1.796875 -5.32921,0 -10.41877,1.396855 -14.95703,3.875 a 8.4830584,8.4830584 0 0 0 -5.71875,-2.220703 h -7.36718 c 0.25777,-5.768305 0.34179,-10.580206 0.34179,-12.394531 0,-2.50222 -0.15083,-10.635609 -0.71289,-19.240234 -0.28063,-4.296172 -0.64913,-8.617607 -1.25976,-12.515625 -0.29825,-1.903913 -0.66567,-3.8858 -1.31641,-5.97461 0.0383,0.122733 -1.53972,-6.6690877 -7.72851,-10.2421876 -3.76104,-2.1714165 -6.9443,-2.1570453 -8.55469,-2.1171876 z M 147.72461,31.564221 a 8.4830584,8.4830584 0 0 0 -7.93555,5.484375 L 94.304688,157.4568 a 8.4830584,8.4830584 0 0 0 7.935542,11.48047 h 21.75 a 8.4830584,8.4830584 0 0 0 8.01172,-5.69336 l 7.77539,-22.3418 h 34.59961 l 7.84961,22.36328 a 8.4830584,8.4830584 0 0 0 8.00391,5.67188 h 21.83203 a 8.4830584,8.4830584 0 0 0 7.93359,-11.48438 l -45.5664,-120.4082 a 8.4830584,8.4830584 0 0 0 -7.9336,-5.480469 z M 8.4824219,62.493908 A 8.4830584,8.4830584 0 0 0 0,70.97633 v 57.9707 c 0,12.05596 2.8320675,22.55078 9.5390625,30.22656 a 8.4830584,8.4830584 0 0 0 0.029297,0.0332 c 6.8135255,7.71201 17.0797905,11.38476 28.4375005,11.38476 7.063217,0 13.63099,-1.54933 19.453124,-4.33203 a 8.4830584,8.4830584 0 0 0 6.183594,2.67774 h 18.9375 A 8.4830584,8.4830584 0 0 0 91.0625,160.45483 V 70.97633 A 8.4830584,8.4830584 0 0 0 82.580078,62.493908 H 62.484375 a 8.4830584,8.4830584 0 0 0 -8.482422,8.482422 v 61.90234 c -1.915967,3.04771 -4.552294,4.37305 -11.283203,4.37305 -3.01089,0 -3.496528,-0.49271 -4.078125,-1.19336 -0.581596,-0.70065 -1.580078,-2.85413 -1.580078,-7.35938 V 70.97633 A 8.4830584,8.4830584 0 0 0 28.578125,62.493908 Z M 157.06836,91.32008 l 5.50195,15.74805 H 151.5664 Z"
     style="font-style:normal;font-variant:normal;font-weight:500;font-stretch:normal;font-size:169.365px;line-height:1.25;font-family:Roboto;-inkscape-font-specification:'Roboto Medium';letter-spacing:8px;word-spacing:0px;fill:#ffffff;fill-opacity:1;stroke:none;stroke-width:1"
     id="path1017" />
  <rect
     y="-49.15126"
     x="99.272598"
     height="152.97151"
     width="0"
     id="rect971"
     style="fill:none;stroke:#000000;stroke-width:8;stroke-miterlimit:4;stroke-dasharray:none" />
  <path
     id="path1244"
     style="fill:#6e096b;fill-opacity:1;stroke:none;stroke-width:1;stroke-miterlimit:4;stroke-dasharray:none"
     d="m -96.272438,-2.5813934 c 0,5.57765 -5.070042,12.30299 -11.324262,12.302993 -6.25422,2e-6 -11.32427,-3.417169 -11.32427,-8.994822 0,-5.577652 5.07005,-11.2036416 11.32427,-11.2036396 6.25422,3e-6 11.324262,2.3178196 11.324262,7.8954686 z" />
  <path
     d="m -69.410418,-2.5813934 c 0,5.57765 -5.07004,9.784767 -11.32426,9.78477 -6.25422,2e-6 -11.32427,-0.898946 -11.32427,-6.476599 0,-5.577652 1.71909,-11.2036416 7.97331,-11.2036396 6.25422,3e-6 14.67522,2.3178196 14.67522,7.8954686 z"
     style="fill:#6e096b;fill-opacity:1;stroke:none;stroke-width:1;stroke-miterlimit:4;stroke-dasharray:none"
     id="path1246" />
  <path
     id="path1248"
     style="fill:#6e096b;fill-opacity:1;stroke:none;stroke-width:1;stroke-miterlimit:4;stroke-dasharray:none"
     d="m -96.272438,21.277702 c 0,5.57765 -5.070042,12.302987 -11.324262,12.302997 -6.25422,0 -11.32427,-6.214011 -11.32427,-11.791664 0,-5.577652 8.13188,-8.406804 14.3861,-8.406802 6.254222,3e-6 8.262432,2.31782 8.262432,7.895469 z" />
  <path
     id="path1250"
     style="fill:#6e096b;fill-opacity:1;stroke:none;stroke-width:1;stroke-miterlimit:4;stroke-dasharray:none"
     d="m -69.410418,22.195834 c 0,5.57765 -5.07004,9.784765 -11.32426,9.784775 -6.25422,0 -11.32427,-0.898951 -11.32427,-6.476604 0,-5.577652 8.59745,-11.203642 14.85167,-11.20364 6.25422,3e-6 7.79686,2.31782 7.79686,7.895469 z" />
  <path
     d="m -69.410418,40.263009 c 0,5.57765 -1.22162,12.21857 -7.47584,12.21858 -6.25422,0 -16.6752,-1.10513 -15.17269,-6.47661 0.98599,-3.52494 6.81435,-7.88341 11.47374,-11.20364 5.09335,-3.62947 11.17479,-0.11598 11.17479,5.46167 z"
     style="fill:#6e096b;fill-opacity:1;stroke:none;stroke-width:1;stroke-miterlimit:4;stroke-dasharray:none"
     id="path1252" />
  <path
     d="m -95.819178,43.815919 c 0,5.57765 -7.331432,1.19872 -11.447762,9.33728 -2.82275,5.58098 -11.20077,-3.2483 -11.20077,-8.82595 0,-5.57765 5.53415,-8.4068 11.78837,-8.4068 6.25422,0 10.860162,2.31782 10.860162,7.89547 z"
     style="fill:#6e096b;fill-opacity:1;stroke:none;stroke-width:1;stroke-miterlimit:4;stroke-dasharray:none"
     id="path1254" />
  <path
     id="path1256"
     style="fill:#6e096b;fill-opacity:1;stroke:none;stroke-width:1;stroke-miterlimit:4;stroke-dasharray:none"
     d="m -118.46771,63.669699 c 0,5.57765 4.21695,0.34226 8.33328,8.48082 2.82275,5.58098 14.315252,-2.39184 14.315252,-7.96949 0,-5.57765 -6.593302,-6.5579 -12.847522,-6.5579 -6.25422,0 -9.80101,0.46892 -9.80101,6.04657 z" />
  <path
     id="path1258"
     style="fill:#6e096b;fill-opacity:1;stroke:none;stroke-width:1;stroke-miterlimit:4;stroke-dasharray:none"
     d="m -69.410418,-2.5813934 c 0,5.57765 -5.07004,9.784767 -11.32426,9.78477 -6.25422,2e-6 -11.32427,-0.898946 -11.32427,-6.476599 0,-5.577652 1.71909,-11.2036416 7.97331,-11.2036396 6.25422,3e-6 14.67522,2.3178196 14.67522,7.8954686 z" />
  <use
     height="100%"
     width="100%"
     style="fill:#6e096b;fill-opacity:1"
     id="use1266"
     xlink:href="#path1256"
     y="0"
     x="0" />
  <path
     d="M 147.72461,40.046643 102.24023,160.45484 h 21.75 l 9.75781,-28.03515 h 46.64063 l 9.8418,28.03515 H 212.0625 L 166.49609,40.046643 Z m 185.77734,9.179687 v 21.75 h -14.7207 v 14.884766 h 14.7207 v 50.693354 c 0,17.03574 7.71933,25.55469 23.15625,25.55469 4.24515,0 8.65452,-0.63431 13.23047,-1.90234 v -15.54688 c -2.37067,0.55132 -4.71376,0.82617 -7.0293,0.82617 -3.4733,0 -5.89905,-0.74386 -7.27734,-2.23242 -1.32317,-1.54369 -1.98438,-4.02518 -1.98438,-7.44336 V 85.861096 h 15.79493 V 70.97633 h -15.79493 v -21.75 z m -176.43359,16.375 17.44922,49.94922 h -34.89844 z m 111.62109,3.720703 c -12.57006,0 -22.49408,4.107623 -29.77148,12.322266 -7.2774,8.159512 -10.91602,19.048451 -10.91602,32.666011 v 2.06641 c 0,14.27915 3.66551,25.47179 10.99805,33.57617 7.33253,8.10438 17.25656,12.15625 29.77148,12.15625 6.45043,0 12.45903,-1.40702 18.02735,-4.21875 5.56832,-2.81172 9.97964,-6.61564 13.23242,-11.41211 3.25278,-4.8516 4.99041,-10.06059 5.21094,-15.6289 h -18.93946 c -0.22053,4.30027 -1.98311,7.91199 -5.29101,10.83398 -3.30792,2.92199 -7.47129,4.38281 -12.48828,4.38281 -6.61582,0 -11.68836,-2.37194 -15.2168,-7.11328 -3.47331,-4.79647 -5.20899,-12.04485 -5.20899,-21.74805 v -3.22656 c 0.0551,-9.59294 1.84656,-16.73176 5.375,-21.417966 3.52844,-4.741338 8.54523,-7.111328 15.05079,-7.111328 5.07212,0 9.2355,1.653028 12.48828,4.960938 3.3079,3.307911 5.07048,7.525083 5.29101,12.652346 h 18.93946 C 304.9114,92.973142 301.38233,84.842502 294.65625,78.667736 287.98529,72.437839 279.3299,69.322033 268.68945,69.322033 Z m 159.31445,0 c -8.15951,0 -15.38098,1.902935 -21.66601,5.707031 -6.28503,3.748965 -11.16537,9.150156 -14.63867,16.207032 -3.47331,7.001743 -5.20899,14.886384 -5.20899,23.652344 v 0.99218 c 0,14.00349 3.77702,25.22303 11.33008,33.65821 7.60819,8.38004 17.72442,12.57031 30.34961,12.57031 8.26977,0 15.547,-1.90294 21.83203,-5.70703 6.34017,-3.8041 11.19165,-9.17839 14.55469,-16.125 3.41817,-6.94661 5.12695,-14.83124 5.12695,-23.65234 l -0.082,-4.71289 C 468.99511,99.06616 464.91439,88.755779 457.36133,80.98219 449.8634,73.208601 440.07778,69.322033 428.0039,69.322033 Z m 106.49414,0 c -8.60056,0 -15.32808,3.886568 -20.17968,11.660157 l -0.4961,-10.00586 h -19.18554 v 89.47851 h 20.0957 V 99.259533 c 3.19765,-7.056874 9.40041,-10.585937 18.60742,-10.585937 2.81173,0 5.54118,0.221054 8.1875,0.662109 l 0.082,-18.855469 c -1.87448,-0.771845 -4.24447,-1.158203 -7.11133,-1.158203 z M 8.4824219,70.97633 v 57.9707 c 0,10.75071 2.4814941,18.96595 7.4433591,24.64453 5.016998,5.67858 12.376875,8.51758 22.080079,8.51758 10.860971,0 19.241518,-3.47331 25.140624,-10.41992 l 0.496094,8.76562 h 18.9375 V 70.97633 H 62.484375 v 64.25586 c -3.418174,7.00174 -10.00729,10.50195 -19.765625,10.50195 -9.427544,0 -14.140625,-5.678 -14.140625,-17.03516 V 70.97633 Z M 428.0039,85.448986 c 6.67096,0 11.9357,2.644844 15.79493,7.9375 3.91436,5.292656 5.87304,12.460334 5.87304,21.501954 0,10.19939 -1.90293,17.94563 -5.70703,23.23828 -3.74896,5.29266 -9.01371,7.93945 -15.79492,7.93945 -6.78122,0 -12.07481,-2.59104 -15.87891,-7.77344 -3.8041,-5.23752 -5.70507,-12.46094 -5.70507,-21.66796 0,-10.36479 1.92982,-18.137922 5.78906,-23.320315 3.85922,-5.237525 9.06822,-7.855469 15.6289,-7.855469 z"
     style="font-style:normal;font-variant:normal;font-weight:500;font-stretch:normal;font-size:169.365px;line-height:1.25;font-family:Roboto;-inkscape-font-specification:'Roboto Medium';letter-spacing:8px;word-spacing:0px;fill:url(#linearGradient998);fill-opacity:1;stroke:none;stroke-width:1"
     id="path985" />
  <g
     style="stroke-width:1.55865"
     transform="matrix(0.64158243,0,0,0.64158243,360.85745,4.3870296)"
     id="g1392">
    <path
       id="path1224"
       style="fill:url(#radialGradient1335);fill-opacity:1;stroke:none;stroke-width:1.69936;stroke-miterlimit:4;stroke-dasharray:none"
       d="m 208.45117,-3.4042969 c -5.81253,0.1438594 -10.45035,2.2702775 -15.68164,4.453125 -5.47605,2.2849824 -11.593,5.2010944 -17.54297,8.1796875 -11.899,5.9567194 -22.81183,11.9989524 -25.75,13.6953124 -3.13378,1.809288 -15.11946,9.022226 -26.95703,16.927734 -5.91733,3.951777 -11.71155,8.010281 -16.36523,11.765626 -2.31262,1.866189 -4.39191,3.672081 -6.222659,5.65625 -0.589366,0.638752 -2.722015,2.919836 -3.970703,6.203124 C 88.324565,58.391733 80.467235,53.418418 78.328125,52.154297 75.84217,50.685224 66.640343,45.47215 56.919922,40.552734 52.061867,38.094118 47.167377,35.750182 42.808594,34.017578 c -2.156323,-0.857134 -4.240425,-1.608622 -6.445313,-2.128906 -0.452273,-0.106723 -6.145493,-1.652051 -11.007812,1.089844 -4.862701,2.742104 -6.485215,8.416241 -6.626953,8.855468 -0.694396,2.151833 -1.134591,4.324671 -1.517578,6.617188 -0.772909,4.626504 -1.297051,10.027823 -1.707032,15.457031 -0.820383,10.864003 -1.121128,21.435095 -1.15039,24.320313 -0.02926,2.884394 0.05683,13.463494 0.65625,24.341794 0.299599,5.43718 0.715954,10.84807 1.394531,15.48828 0.335954,2.29731 0.729478,4.47816 1.380859,6.64649 0.13234,0.44053 1.637769,6.14723 6.445313,8.98828 4.250774,2.512 9.38814,1.60629 9.941406,1.51172 0.282796,-0.0483 0.520642,-0.15839 0.796875,-0.21485 -6.614281,16.86292 -7.88712,35.7321 -3.181641,53.29297 5.787004,21.59714 20.29647,40.50614 39.660157,51.68555 19.363767,11.17974 42.994644,14.28896 64.591794,8.50195 21.59713,-5.78701 40.50614,-20.29646 51.68555,-39.66015 2.8049,-4.85857 5.04203,-10.00097 6.81445,-15.29493 0.49184,0.28948 0.91739,0.65099 1.4668,0.85938 2.47989,0.94064 5.04353,1.20802 7.13281,0.74219 2.08928,-0.46584 3.28891,-1.26622 3.02539,-1.16016 1.68009,-0.67619 3.14903,-1.48116 4.57032,-2.3125 2.9017,-1.69728 5.98904,-3.80511 9.02343,-5.96875 5.9147,-4.21741 11.13506,-8.32205 12.93555,-9.7832 a 5.8927425,5.8927425 0 0 0 0.34766,-0.26367 5.8927425,5.8927425 0 0 0 0.002,0 c 1.6484,-1.34576 7.04346,-5.91989 12.50195,-11.00391 2.7271,-2.54003 5.4105,-5.14492 7.6543,-7.64844 1.0966,-1.22352 2.18032,-2.49902 3.18164,-4.01367 -0.15465,0.23394 0.86941,-0.7824 1.74219,-2.73633 0.87277,-1.95392 1.12237,-4.51821 0.69726,-7.13476 -0.42522,-2.61727 -1.47596,-4.97015 -2.92383,-6.54688 -1.44786,-1.57673 -2.74087,-2.21594 -2.51757,-2.04101 -1.42266,-1.11451 -2.85123,-1.98569 -4.28516,-2.80274 -2.92127,-1.66452 -6.29105,-3.28428 -9.68164,-4.83008 -6.78764,-3.09452 -13.35636,-5.72663 -15.34375,-6.48047 -0.35444,-0.13444 -1.34803,-0.45027 -1.86328,-0.6289 0.15882,-0.46555 0.55968,-1.31335 0.62695,-1.5293 0.80275,-2.57675 1.32705,-5.28189 1.78711,-8.21875 0.92552,-5.90808 1.54401,-12.9524 2.00781,-20.052732 0.92788,-14.204853 1.18163,-28.192715 1.18164,-31.810547 -1e-5,-3.617836 -0.25376,-17.605693 -1.18164,-31.810547 -0.4638,-7.100334 -1.08229,-14.14465 -2.00781,-20.052735 -0.46006,-2.93685 -0.98436,-5.642 -1.78711,-8.2187496 -0.36899,-1.1844276 -1.89877,-6.7676391 -6.96289,-9.6914063 -2.92041,-1.6860859 -6.12878,-1.813158 -7.41797,-1.78125 z"
       transform="matrix(0.91719057,0,0,0.91719057,6.0786221,8.7417305)" />
    <path
       id="rect1149"
       style="fill:url(#radialGradient1190);fill-opacity:1;stroke:none;stroke-width:1.69936;stroke-miterlimit:4;stroke-dasharray:none"
       d="m 207.74805,12.568359 c -1.51131,0.318944 -4.79785,1.247755 -8.93164,2.972657 -4.91617,2.05136 -10.8007,4.847047 -16.56055,7.730468 -11.51971,5.766843 -22.67799,11.955019 -24.92774,13.253907 -2.39987,1.385569 -14.66973,8.761308 -26.08789,16.386718 -5.70907,3.812705 -11.2466,7.717265 -15.22265,10.925782 -1.98803,1.604258 -3.59036,3.05138 -4.54492,4.085937 -0.0968,0.104949 -0.0741,0.13867 -0.14844,0.240234 0.6568,0.743404 1.65305,1.731402 3.01758,2.898438 2.94259,2.516701 7.19046,5.656898 11.84179,8.878906 a 4.2737714,4.2737714 0 0 1 1.56055,5.03125 c -2.50397,6.586683 -4.12616,12.742395 -4.99609,18.380864 a 4.2737714,4.2737714 0 0 1 -4.48438,3.61328 c -7.1013,-0.43626 -14.26963,0.22747 -21.16992,1.96093 a 4.2737714,4.2737714 0 0 1 -5.0625,-2.69726 c -0.373402,-1.03734 -0.768435,-2.07889 -1.197266,-3.13672 a 4.2737714,4.2737714 0 0 1 1.583985,-5.15625 c 3.804674,-2.546492 7.339134,-5.064853 9.783201,-7.072266 0.86107,-0.70723 1.35553,-1.21091 1.88477,-1.730468 -0.68726,-0.698435 -1.51085,-1.496147 -2.72461,-2.496094 C 98.411608,84.208577 94.254418,81.210615 89.962891,78.28125 81.379837,72.422521 72.099917,66.717061 70.337891,65.675781 68.576141,64.634676 59.100202,59.256966 49.828125,54.564453 45.192087,52.218197 40.561252,50.023034 37.009766,48.611328 c -1.463585,-0.581771 -2.562171,-0.92056 -3.50586,-1.185547 -0.26163,0.944691 -0.541186,2.059389 -0.800781,3.613281 -0.629743,3.769547 -1.147809,8.869579 -1.539063,14.050782 -0.782506,10.362406 -1.084714,21.252544 -1.105468,23.298828 -0.02076,2.046834 0.05912,12.940298 0.630859,23.316408 0.285871,5.18805 0.700903,10.29855 1.253906,14.08008 0.227434,1.55522 0.482714,2.67169 0.72461,3.62109 0.615317,-0.15691 1.133397,-0.26412 2,-0.56055 2.721377,-0.93087 6.395341,-2.48543 10.28125,-4.27343 a 4.2737714,4.2737714 0 0 1 5.126953,1.21679 c 1.897321,2.37637 3.812009,4.50023 5.728516,6.40039 a 4.2737714,4.2737714 0 0 1 0.541015,5.41602 c -0.862346,1.28517 -1.682511,2.59951 -2.457031,3.93945 -9.085575,15.73804 -11.636994,35.11876 -6.933594,52.67188 4.703627,17.55396 16.605208,33.06391 32.34375,42.15039 15.738447,9.08664 35.119862,11.63917 52.673832,6.93554 17.55396,-4.70362 33.06391,-16.6052 42.15039,-32.34375 5.25715,-9.10631 8.4064,-19.42039 9.13281,-29.91015 a 4.2737714,4.2737714 0 0 1 4.78711,-3.94531 c 2.24641,0.27742 4.72316,0.39624 7.45898,0.30664 a 4.2737714,4.2737714 0 0 1 4.29493,3.26562 c 0.72009,2.97568 1.48635,5.77113 2.16015,7.70508 0.0201,0.0577 0.0308,0.0668 0.0508,0.12305 0.30367,-0.16429 0.45511,-0.21302 0.79883,-0.41407 2.15643,-1.26134 5.00063,-3.17892 7.83398,-5.19922 5.66672,-4.04058 11.46053,-8.60462 12.46876,-9.42773 1.00819,-0.82309 6.63926,-5.58632 11.73242,-10.33008 2.54658,-2.37188 4.99462,-4.77622 6.66211,-6.63672 0.25797,-0.28783 0.3322,-0.42167 0.54882,-0.67968 -0.2869,-0.17598 -0.39892,-0.27957 -0.73437,-0.47071 -2.17068,-1.23685 -5.25348,-2.74194 -8.41992,-4.18554 -6.3329,-2.88721 -13.18323,-5.62231 -14.40039,-6.08399 -1.21699,-0.46161 -8.15764,-2.95707 -14.8125,-4.99609 -3.32743,-1.01951 -6.63311,-1.9373 -9.07813,-2.45117 -0.38776,-0.0815 -0.54609,-0.0791 -0.88476,-0.13868 -0.0332,1.84349 0.0793,4.397 0.29882,7.17579 a 4.2737714,4.2737714 0 0 1 -2.91015,4.39062 c -2.61078,0.86917 -4.92106,1.86411 -6.9668,2.94141 a 4.2737714,4.2737714 0 0 1 -5.94141,-2.15625 c -2.00363,-4.87113 -4.56401,-9.51334 -7.61523,-13.80664 a 4.2737714,4.2737714 0 0 1 0.62891,-5.65625 c 3.92904,-3.52485 7.9332,-7.87542 11.91601,-13.09375 a 4.2737714,4.2737714 0 0 1 5.24414,-1.26172 c 5.45818,2.61797 10.70683,4.95196 14.69727,6.40625 1.93002,0.70338 3.53187,1.16991 4.62305,1.39453 0.0537,-0.12 0.0959,-0.11829 0.14062,-0.26172 0.4187,-1.34398 0.87026,-3.45467 1.26563,-5.97852 0.79073,-5.04768 1.40602,-11.79584 1.85351,-18.64648 0.89499,-13.701284 1.14648,-28.016208 1.14649,-30.787109 -1e-5,-2.770892 -0.2515,-17.085824 -1.14649,-30.78711 -0.44749,-6.850643 -1.06278,-13.598799 -1.85351,-18.646484 -0.39537,-2.523842 -0.84693,-4.634531 -1.26563,-5.978516 -0.0289,-0.09279 -0.0566,-0.0869 -0.0898,-0.169922 z M 193.86719,135.33984 c -0.004,0.0217 -0.008,0.11278 -0.0117,0.13868 0.11245,-0.24297 0.0432,-0.30887 0.0117,-0.13868 z m 8.89648,55.01368 c 0.009,0.0166 0.0291,0.0768 0.0371,0.0918 0.10222,0.19111 0.15731,0.10897 -0.0371,-0.0918 z"
       transform="matrix(0.91719057,0,0,0.91719057,6.0786221,8.7417305)" />
    <path
       id="path1278"
       style="fill:url(#radialGradient1293);fill-opacity:1;stroke:none;stroke-width:1.55865;stroke-miterlimit:4;stroke-dasharray:none"
       d="m 118.89665,102.15186 c -0.0813,0.46372 -0.16426,0.92835 -0.23468,1.38474 a 3.9198628,3.9198628 0 0 1 -4.11303,3.31407 c -6.51324,-0.40014 -13.08797,0.20863 -19.416849,1.79854 a 3.9198628,3.9198628 0 0 1 -4.643274,-2.4739 c -0.17594,-0.48877 -0.376364,-0.98558 -0.564287,-1.47789 a 67.883522,67.883522 0 0 0 -33.957548,23.96519 c 0.431354,0.45323 0.863405,0.89395 1.295174,1.32203 a 3.9198628,3.9198628 0 0 1 0.496213,4.96753 c -0.790935,1.17874 -1.543183,2.38424 -2.253565,3.61322 -8.333204,14.43479 -10.673341,32.2106 -6.359427,48.31016 4.314122,16.10032 15.23014,30.3259 29.665382,38.65994 14.435155,8.33418 32.211601,10.67533 48.311941,6.36121 16.10033,-4.31412 30.32591,-15.23014 38.65994,-29.66538 4.82181,-8.35223 7.71027,-17.8122 8.37653,-27.43331 a 3.9198628,3.9198628 0 0 1 3.91238,-3.64727 67.883522,67.883522 0 0 0 0.0215,-1.67315 67.883522,67.883522 0 0 0 -3.39468,-21.19392 3.9198628,3.9198628 0 0 1 -5.17353,-2.10846 c -1.83771,-4.46775 -4.18607,-8.72554 -6.98462,-12.66332 a 3.9198628,3.9198628 0 0 1 0.57683,-5.18786 c 0.20987,-0.18829 0.42024,-0.38876 0.63057,-0.5822 a 67.883522,67.883522 0 0 0 -44.85101,-25.58997 z" />
    <path
       id="path1230"
       style="fill:#6f2424;fill-opacity:1;stroke:none;stroke-width:1.55865px;stroke-linecap:butt;stroke-linejoin:miter;stroke-opacity:1"
       d="m 123.09207,83.546503 a 3.9198628,3.9198628 0 0 1 0.15227,3.131346 c -2.29662,6.041243 -3.78447,11.687203 -4.58237,16.858751 a 3.9198628,3.9198628 0 0 1 -1.67853,2.64767 c 14.65075,2.59763 29.60396,11.12275 44.83307,25.05435 a 3.9198628,3.9198628 0 0 1 1.30055,-2.91459 c 3.60367,-3.23295 7.27625,-7.22326 10.92925,-12.00946 a 3.9198628,3.9198628 0 0 1 4.80987,-1.15724 c 0.27473,0.13177 0.53989,0.25145 0.81329,0.38156 l 0.10033,-0.0949 C 160.54548,105.63306 141.51297,95.347856 123.09207,83.546503 Z M 90.160993,99.149492 C 75.719294,107.40095 60.943401,116.05654 47.848412,122.67937 l 0.06807,0.0967 a 3.9198628,3.9198628 0 0 1 4.091531,1.33817 c 1.740205,2.17958 3.496337,4.12757 5.25414,5.87037 a 3.9198628,3.9198628 0 0 1 0.664605,4.69344 C 67.959543,124.61236 79.86869,115.7942 94.45853,108.75667 a 3.9198628,3.9198628 0 0 1 -3.969716,-2.58139 c -0.34248,-0.95144 -0.704801,-1.90673 -1.098121,-2.87697 a 3.9198628,3.9198628 0 0 1 0.770297,-4.148848 z m 93.610767,44.026938 a 3.9198628,3.9198628 0 0 1 -2.40763,2.27864 c -2.39458,0.7972 -4.51355,1.70975 -6.38988,2.69784 a 3.9198628,3.9198628 0 0 1 -3.74042,-0.0502 c 2.6066,10.61945 3.77397,18.25837 4.10407,24.15686 a 3.9198628,3.9198628 0 0 1 3.21196,-1.0802 c 2.06039,0.25444 4.33204,0.36342 6.84131,0.28124 a 3.9198628,3.9198628 0 0 1 2.61901,0.89032 c -2.06833,-9.78428 -4.23954,-19.57762 -4.23842,-29.17454 z" />
    <use
       x="0"
       y="0"
       xlink:href="#path1258"
       id="use1262"
       transform="matrix(0.73243884,-0.35345558,0.32703522,0.67768996,200.12695,35.248198)"
       width="100%"
       height="100%"
       style="opacity:0.824773;stroke-width:1.99246" />
    <use
       x="0"
       y="0"
       xlink:href="#path1252"
       id="use1264"
       transform="matrix(0.98146793,-0.53205047,0.53205047,0.98146793,234.94101,-38.677008)"
       width="100%"
       height="100%"
       style="opacity:0.763911;stroke-width:1.39613" />
    <use
       x="0"
       y="0"
       xlink:href="#use1266"
       id="use1270"
       transform="matrix(0.63560217,0.14418773,-0.10266436,0.64751466,270.94508,121.29513)"
       width="100%"
       height="100%"
       style="opacity:0.584565;stroke-width:2.38702" />
    <use
       x="0"
       y="0"
       xlink:href="#path1250"
       id="use1272"
       transform="matrix(1.3769495,0,0,1.3769495,178.14803,57.775616)"
       width="100%"
       height="100%"
       style="opacity:0.733922;stroke-width:1.13195" />
    <use
       x="0"
       y="0"
       xlink:href="#path1252"
       id="use1274"
       transform="matrix(0.38204006,-0.56487518,0.56487518,0.38204006,49.131545,14.137963)"
       width="100%"
       height="100%"
       style="opacity:0.449983;stroke-width:2.28562" />
    <use
       x="0"
       y="0"
       xlink:href="#path1252"
       id="use1276"
       transform="matrix(1.4157758,1.1255484,-1.1255484,1.4157758,335.95238,115.22158)"
       width="100%"
       height="100%"
       style="opacity:0.677134;stroke-width:0.861765" />
    <circle
       style="opacity:1;fill:url(#radialGradient1325);fill-opacity:1;stroke:none;stroke-width:1.55864;stroke-miterlimit:4;stroke-dasharray:none"
       id="path1317"
       cx="110.93352"
       cy="170.79269"
       r="41.700821" />
  </g>
</svg>
