<svg id="hero-bg-svg" viewBox="0 0 946 633">
  <g transform="translate(-531 -504)" fill="none">
    <g id="repo"  transform="translate(790.5 562)">
      <path d="M18,264.156047 L18,75.6098489 C18,72.756524 19.5197172,70.1191843 21.9883694,68.6883736 L134.494185,3.48092151 C136.405497,2.37314032 138.852956,3.02453125 139.960738,4.93584387 C140.313974,5.54530139 140.5,6.23723417 140.5,6.94165916 L140.5,197.324339 C140.5,200.212862 138.942884,202.877069 136.426142,204.294663 L23.9630708,267.641209 C22.038269,268.725383 19.5990122,268.04392 18.5148381,266.119118 C18.1773199,265.519901 18,264.843782 18,264.156047 Z" id="Path-iso" fill="#5DA7B5"></path>
      <path d="M22,266.156047 L22,77.6098489 C22,74.756524 23.5197172,72.1191843 25.9883694,70.6883736 L138.494185,5.48092151 C140.405497,4.37314032 142.852956,5.02453125 143.960738,6.93584387 C144.313974,7.54530139 144.5,8.23723417 144.5,8.94165916 L144.5,199.324339 C144.5,202.212862 142.942884,204.877069 140.426142,206.294663 L27.9630708,269.641209 C26.038269,270.725383 23.5990122,270.04392 22.5148381,268.119118 C22.1773199,267.519901 22,266.843782 22,266.156047 Z" id="Path" fill="#FCFCFC"></path>
      <g transform="translate(0.500000, 32.000000)">
        <g>
          <path d="M0,73.3096301 L0,107.536242 C1.3527075e-16,108.640811 0.8954305,109.536242 2,109.536242 C2.35101508,109.536242 2.6958482,109.44386 2.99985125,109.268379 L120.999703,41.1546433 C122.237474,40.440157 123,39.119555 123,37.6903699 L123,3.46375813 C123,2.35918863 122.104569,1.46375813 121,1.46375813 C120.648985,1.46375813 120.304152,1.55614002 120.000149,1.73162146 L2.00029749,69.8453567 C0.762525542,70.559843 -1.75024694e-16,71.880445 0,73.3096301 Z" id="Path-4-iso" fill="#5DA7B5"></path>
          <g>
            <use fill="black" fill-opacity="1" filter="url(#repo-filter-2)" xlink:href="#home-hero-path-path-1"></use>
            <use fill="#FCFCFC" fill-rule="evenodd" xlink:href="#home-hero-path-path-1"></use>
          </g>
        </g>
        <g id="data" transform="translate(35.000000, 24.000000)" fill="#E9F3F5">
          <path d="M1.00772212,47.4241588 L82.5038611,0.854936536 C82.9833785,0.580926567 83.5942332,0.747523293 83.8682431,1.22704074 C83.9545847,1.37813844 84,1.54915274 84,1.72317968 L84,6.83935493 C84,7.55706862 83.6154279,8.2197555 82.9922779,8.57584121 L1.49613894,55.1450635 C1.01662149,55.4190734 0.405766827,55.2524767 0.131756858,54.7729593 C0.0454153173,54.6218616 2.13121533e-17,54.4508473 0,54.2768203 L0,49.1606451 C-5.4169651e-15,48.4429314 0.384572129,47.7802445 1.00772212,47.4241588 Z" id="Rectangle"></path>
        </g>
      </g>
      <g transform="translate(0.500000, 94.000000)">
        <g>
          <path d="M0,73.3096301 L0,107.536242 C1.3527075e-16,108.640811 0.8954305,109.536242 2,109.536242 C2.35101508,109.536242 2.6958482,109.44386 2.99985125,109.268379 L120.999703,41.1546433 C122.237474,40.440157 123,39.119555 123,37.6903699 L123,3.46375813 C123,2.35918863 122.104569,1.46375813 121,1.46375813 C120.648985,1.46375813 120.304152,1.55614002 120.000149,1.73162146 L2.00029749,69.8453567 C0.762525542,70.559843 -1.75024694e-16,71.880445 0,73.3096301 Z" id="Path-4-iso" fill="#5DA7B5"></path>
          <g>
            <use fill="black" fill-opacity="1" filter="url(#repo-filter-4)" xlink:href="#home-hero-path-path-3"></use>
            <use fill="#FCFCFC" fill-rule="evenodd" xlink:href="#home-hero-path-path-3"></use>
          </g>
        </g>
        <g id="data" transform="translate(35.000000, 24.000000)" fill="#E9F3F5">
          <path d="M1.00772212,47.4241588 L82.5038611,0.854936536 C82.9833785,0.580926567 83.5942332,0.747523293 83.8682431,1.22704074 C83.9545847,1.37813844 84,1.54915274 84,1.72317968 L84,6.83935493 C84,7.55706862 83.6154279,8.2197555 82.9922779,8.57584121 L1.49613894,55.1450635 C1.01662149,55.4190734 0.405766827,55.2524767 0.131756858,54.7729593 C0.0454153173,54.6218616 2.13121533e-17,54.4508473 0,54.2768203 L0,49.1606451 C-5.4169651e-15,48.4429314 0.384572129,47.7802445 1.00772212,47.4241588 Z" id="Rectangle"></path>
        </g>
      </g>
      <g transform="translate(0.500000, 154.000000)">
        <g>
          <path d="M0,73.3096301 L0,107.536242 C1.3527075e-16,108.640811 0.8954305,109.536242 2,109.536242 C2.35101508,109.536242 2.6958482,109.44386 2.99985125,109.268379 L120.999703,41.1546433 C122.237474,40.440157 123,39.119555 123,37.6903699 L123,3.46375813 C123,2.35918863 122.104569,1.46375813 121,1.46375813 C120.648985,1.46375813 120.304152,1.55614002 120.000149,1.73162146 L2.00029749,69.8453567 C0.762525542,70.559843 -1.75024694e-16,71.880445 0,73.3096301 Z" id="Path-4-iso" fill="#5DA7B5"></path>
          <g>
            <use fill="black" fill-opacity="1" filter="url(#repo-filter-6)" xlink:href="#home-hero-path-path-5"></use>
            <use fill="#FCFCFC" fill-rule="evenodd" xlink:href="#home-hero-path-path-5"></use>
          </g>
        </g>
        <g id="data" transform="translate(35.000000, 24.000000)" fill="#E9F3F5">
          <path d="M1.00772212,47.4241588 L82.5038611,0.854936536 C82.9833785,0.580926567 83.5942332,0.747523293 83.8682431,1.22704074 C83.9545847,1.37813844 84,1.54915274 84,1.72317968 L84,6.83935493 C84,7.55706862 83.6154279,8.2197555 82.9922779,8.57584121 L1.49613894,55.1450635 C1.01662149,55.4190734 0.405766827,55.2524767 0.131756858,54.7729593 C0.0454153173,54.6218616 2.13121533e-17,54.4508473 0,54.2768203 L0,49.1606451 C-5.4169651e-15,48.4429314 0.384572129,47.7802445 1.00772212,47.4241588 Z" id="Rectangle"></path>
        </g>
      </g>

      <g id="+-icon" transform="translate(8.500000, 116.170569)" stroke="#CC6769" stroke-linecap="round" stroke-width="2">
        <line x1="3.5" y1="5.68434189e-14" x2="3.5" y2="6.47023277" id="Line-3"></line>
        <line x1="3.5" y1="5.68434189e-14" x2="3.5" y2="6.47023277" id="Line-3" transform="translate(3.500000, 3.235116) rotate(62.000000) translate(-3.500000, -3.235116) "></line>
      </g>
      <g id="+-icon" transform="translate(8.500000, 238.170569)" stroke="#CC6769" stroke-linecap="round" stroke-width="2">
        <line x1="3.5" y1="5.68434189e-14" x2="3.5" y2="6.47023277" id="Line-3"></line>
        <line x1="3.5" y1="5.68434189e-14" x2="3.5" y2="6.47023277" id="Line-3" transform="translate(3.500000, 3.235116) rotate(62.000000) translate(-3.500000, -3.235116) "></line>
      </g>
      <g id="--Icon" transform="translate(8.500000, 179.170569)" stroke="#CC6769" stroke-linecap="round" stroke-width="2">
        <line x1="3.5" y1="-1" x2="3.5" y2="5.47023277" id="Line-3" transform="translate(3.500000, 2.235116) rotate(62.000000) translate(-3.500000, -2.235116) "></line>
      </g>
      <line x1="12" y1="130.5" x2="12" y2="173.5" id="Line-4" stroke="#CC6769" stroke-width="2" stroke-linecap="round"></line>
      <line x1="12" y1="189.5" x2="12" y2="230.5" id="Line-4" stroke="#CC6769" stroke-width="2" stroke-linecap="round"></line>
    </g>


    <g id="Elephant" transform="translate(803.000000, 497.000000)">
      <g transform="translate(2.000000, 0.000000)">
        <g>
          <polygon fill="#9FB8BC" style="mix-blend-mode: multiply;" filter="url(#hero-phant-filter-1)" points="76 415.375264 112.380557 394.360465 147 415 110.864701 435.639535"></polygon>
          <path d="M209.958984,372.5 L222.380557,354.360465 L244.134766,369.357422 C243.47869,376.808097 237.314302,380.564282 225.641602,380.625977 C213.968901,380.687672 208.741362,377.979013 209.958984,372.5 Z" fill="#9FB8BC" style="mix-blend-mode: multiply;" filter="url(#hero-phant-filter-2)"></path>
          <path d="M175.958984,354.5 L188.380557,336.360465 L210.134766,351.357422 C209.47869,358.808097 203.314302,362.564282 191.641602,362.625977 C179.968901,362.687672 174.741362,359.979013 175.958984,354.5 Z" fill="#9FB8BC" style="mix-blend-mode: multiply;" filter="url(#hero-phant-filter-3)"></path>
          <g transform="translate(76.000000, 355.000000)">
            <mask id="hero-phant-mask-5" fill="white">
                <use xlink:href="#hero-phant-path-4"></use>
            </mask>
            <use fill="#F69279" xlink:href="#hero-phant-path-4"></use>
            <path d="M16.9589844,21.5 C17.8521129,10.5968308 22.1991181,4.44318494 30,3.0390625 C37.8008819,1.63494006 51.8707061,6.06114891 72.2094727,16.3176891 C62.0698242,20.9590865 50.9493815,24.9741545 38.8481445,28.362893 C26.7469076,31.7516316 19.4505208,29.4640006 16.9589844,21.5 Z" fill-opacity="0.7" fill="#A4A4A4" style="mix-blend-mode: multiply;" filter="url(#hero-phant-filter-6)" mask="url(#hero-phant-mask-5)"></path>
          </g>
          <polygon fill="#F69279" transform="translate(68.703706, 37.652968) rotate(53.000000) translate(-68.703706, -37.652968) " points="34.4427176 37.6790793 71.5114453 21.6259027 102.964694 37.3109239 62.1574313 53.680034"></polygon>
          <polygon fill="#D06868" points="77.48 414.200001 76 376.096728 110.78 395.700001 110.78 434.920001"></polygon>
          <polygon fill="#D06868" transform="translate(34.507571, 41.299316) rotate(53.000000) translate(-34.507571, -41.299316) " points="22.8669973 53.1972333 17.9142275 11.820753 45.6289412 27.8217077 51.1009148 70.7778798"></polygon>
          <polygon fill="#A5597E" points="110.78 434.920001 110.78 395.700001 146.79545 375.72 146.284256 413.823273"></polygon>
          <polygon fill="#A5597E" transform="translate(54.964899, 68.037150) rotate(53.000000) translate(-54.964899, -68.037150) " points="37.2127713 97.6371507 32.4209583 54.8062601 73.2282207 38.43715 77.5088402 80.1513133"></polygon>
        </g>
        <path d="M109,349.279645 L135,334.47161 L135,312.720355 L109,327.52839 L109,349.279645 Z" stroke="#979797" stroke-width="2" fill="#D8D8D8"></path>
        <path d="M49,267.270172 L65,258.056284 L65,244.729828 L49,253.943716 L49,267.270172 Z" stroke="#979797" stroke-width="2" fill="#D8D8D8"></path>
        <path d="M33,258.310037 L47,267.182361 L47,253.689963 L33,244.817639 L33,258.310037 Z" stroke="#979797" stroke-width="2" fill="#D8D8D8"></path>
      </g>
      <g>
        <use fill="#4B2357" xlink:href="#hero-phant-path-8"></use>
        <use fill="url(#hero-phant-gradient-7)" xlink:href="#hero-phant-path-8"></use>
      </g>
      <path d="M222.724007,297.165151 C222.724007,312.306023 220.811931,309.123839 211.964533,322.074669 C211.083886,323.363761 206.342635,320.556453 205.732422,322.074669 C203.205099,328.362678 207.022106,340.626351 209.450748,348.655562 C210.277393,351.388489 206.879764,358.02092 203.557884,359.127413 C199.702754,360.411527 197.064407,362.636111 193.7378,362.495734 C186.461929,362.188704 177.083999,358.593598 180.086792,352.803975 C183.60923,346.012432 170.576694,334.436412 174.959961,313.686523 C176.983038,304.109505 222.724007,282.024278 222.724007,297.165151 Z" fill="#4B2357"></path>
      <g transform="translate(31.921875, 254.028320) scale(-1, 1) rotate(23.000000) translate(-31.921875, -254.028320) translate(6.921875, 232.028320)" fill="#D3CBAF">
        <path d="M29.2968356,21.9479993 C21.7171703,26.4575841 12.2530783,26.9624734 7.85391334,28.2525414 L7.85391334,28.2525414 C2.34942488,29.8665332 4.29046288,36.3837064 4.50611981,38 L4.50611981,38 C9.39885874,38.001999 19.5443277,36.3900248 26.7044712,31.9988361 L26.7044712,31.9988361 C38.942406,24.4928566 47.0722048,6.90323225 45.8851923,6.04353369 L45.8851923,6.04353369 C45.8701976,6.03290595 45.854518,6.02429781 45.83765,6.01750653 L45.83765,6.01750653 C44.5128436,5.48565323 37.2545791,17.2134316 29.2968356,21.9479993" id="Tusk2" transform="translate(25.000000, 22.000000) rotate(-16.000000) translate(-25.000000, -22.000000) "></path>
      </g>
      <g transform="translate(50.000000, 216.000000)">
        <mask id="hero-phant-mask-11" fill="white">
          <use xlink:href="#hero-phant-path-10"></use>
        </mask>
        <g>
          <use fill="#4E587D" xlink:href="#hero-phant-path-10"></use>
          <use fill="url(#hero-phant-gradient-9)" xlink:href="#hero-phant-path-10"></use>
        </g>
        <path d="M156.085874,111.078441 C157.475638,104.520297 158.622304,99.0775888 159.525871,94.7503161 C160.429439,90.4230433 161.811114,85.9481084 163.670898,81.3255114 C156.29289,96.9700426 148.780649,104.792308 141.134177,104.792308 C129.66447,104.792308 121.215585,100.3885 118.136044,96.0716051 C115.056503,91.7547106 116.509799,77.0762632 112.160499,67.8264879 C109.260965,61.6599711 106.433788,58.9679138 103.678966,59.7503161 C110.086644,62.3213168 111.582883,70.1199413 108.167684,83.1461897 C104.752485,96.1724381 102.253557,103.387811 100.670898,104.792308 L122.285924,120.750316 L156.085874,111.078441 Z" fill="#4C3D6A" mask="url(#hero-phant-mask-11)"></path>
        <path d="M85.3945313,62.7503161 C100.694661,52.1813056 116.037109,46.8968004 131.421875,46.8968004 C154.499023,46.8968004 153.108398,49.7388228 159.606445,56.468315 C163.938477,60.9546431 166.328451,65.7700398 166.776367,70.914505 C172.094727,62.0270509 177.669271,54.0211494 183.5,46.8968004 C192.246094,36.210277 207.040939,34.6466375 213,48 C216.972708,56.9022417 218.799205,41.152347 218.479492,0.750316065 L66,13.6370348 L85.3945313,62.7503161 Z" fill="#4F6486" opacity="0.5" mask="url(#hero-phant-mask-11)"></path>
        <path d="M70.25,4.75031607 C72.8563382,25.6166098 76.7730049,37.3665044 82,40 C93.8237342,45.9571036 127.282124,26.9194451 135.532715,28.6975817 C156.115234,33.1334494 156.992187,42.1044738 165.496094,38.7503093 C174,35.3961448 171.626953,22.6227211 192.867188,24.2672523 C207.027344,25.3636065 217.071615,32.1078557 223,44.5 L218.479492,-5.24968393 C187.324646,-10.5991703 162.982347,-12.682609 145.452594,-11.5 C127.922841,-10.317391 102.85531,-4.900619 70.25,4.75031607 Z" fill="#4F728F" opacity="0.5" mask="url(#hero-phant-mask-11)"></path>
        <path d="M86.5748745,39.6355262 C88.1438177,39.6355262 106.920701,19.9558946 125.993164,17.9545704 C134.224775,17.0908055 146.361684,14.3643224 154.489258,19.5883257 C163.764157,25.5497731 159.595142,25.2617467 166.679314,21.565918 C174.756462,17.3520508 186.320168,17.9230136 170.963867,10 C159.980794,4.33333333 140.216014,-1.20182292 111.669526,-6.60546875 L34,-13.0514417 C67.5525205,22.0732036 85.0774787,39.6355262 86.5748745,39.6355262 Z" fill="#507E98" opacity="0.400000006" mask="url(#hero-phant-mask-11)"></path>
        <path d="M62.2900391,87.2412252 C65.0019531,84.5934387 68.1832682,77.1934742 71.8339844,65.0413317 L14.182485,67.0598864 C23.7136691,80.1723979 31.0241796,87.8805178 36.1140164,90.1842461 C46.6303656,94.9440866 60.7188159,88.7752942 62.2900391,87.2412252 Z" fill="#4C3D6A" mask="url(#hero-phant-mask-11)"></path>
        <g mask="url(#hero-phant-mask-11)">
            <use fill="black" fill-opacity="1" filter="url(#hero-phant-filter-13)" xlink:href="#hero-phant-path-12"></use>
            <use fill="#4F7C96" fill-rule="evenodd" xlink:href="#hero-phant-path-12"></use>
        </g>
        <path d="M98.7954499,107.321289 C95.1359182,111.723307 91.5929428,113.11084 88.1665238,111.483887 C84.7401047,109.856934 81.1971293,108.756348 77.5375977,108.182129 C80.9607546,112.304648 84.986959,115.199993 89.6162109,116.868164 C94.2454629,118.536335 97.3052092,115.354043 98.7954499,107.321289 Z" fill="#4C3D6A" mask="url(#hero-phant-mask-11)"></path>
      </g>
      <g transform="translate(13.669526, 111.673364)">
        <mask id="hero-phant-mask-16" fill="white">
          <use xlink:href="#hero-phant-path-15"></use>
        </mask>
        <g>
          <use fill="#4F7C96" xlink:href="#hero-phant-path-15"></use>
          <use fill="url(#hero-phant-gradient-14)" xlink:href="#hero-phant-path-15"></use>
        </g>
        <path d="M113.879954,197.326636 C112.846967,181.734623 114.330474,171.503286 118.330474,166.632626 C124.330474,159.326636 138.714745,143.492011 130.330474,134.620907 C124.894755,128.869563 105.767193,128.614747 99.7281993,134.620907 C96.4524079,137.878888 104.16394,143.866416 103.686912,149.789684 C102.78262,161.018312 102.78262,175.971163 103.686912,194.648237 L113.879954,197.326636 Z" fill="#4E567C" mask="url(#hero-phant-mask-16)"></path>
        <path d="M39.9417083,1.63262607 C51.6522745,-4.26403921 57.5075577,-4.26403921 57.5075577,1.63262607 C57.5075577,6.35458707 54.3116622,11.6403061 50.5129594,12.1547615 C47.1960764,12.6039644 43.2031641,8.47402751 43.2953736,9.41452711 C44.9912148,26.7114315 53.3304744,43.5649177 37.6468806,61.7826912 C37.0302855,62.4544552 40.1795421,61.9876428 37.6468806,63.3266365 C36.0278955,64.1825783 33.4109793,62.7965317 32.9814495,63.3266365 C31.5918175,65.0416527 35.8489319,66.2252828 34.7474666,66.9946052 C32.4280761,68.6145917 30.3304744,63.3266365 27.8634173,65.4399177 C26.5641722,66.5528512 31.6943091,70.3599606 30.3304744,71.2186785 C29.0910524,71.9990617 27.1721412,67.4637278 25.9437556,68.3266365 C21.3293843,71.5681116 15.7492947,78.5346965 12.4958389,85.3266365 C11.8591537,86.6557857 10.5383028,90.8228535 9.84902905,92.8266365 C9.65101766,93.4022741 12.6914615,93.9693196 12.4958389,94.5608295 C12.2429543,95.3254845 8.57361361,96.0006426 8.33047436,96.7577888 C8.00934954,97.7577855 8.12146735,98.1042123 7.83047436,99.0134286 C7.47484656,100.124598 10.8127746,99.4815634 10.4752311,100.652808 C10.1846857,101.660974 6.80846679,102.555217 6.53457593,103.599586 C1.79499494,121.672007 8.77708895,128.089834 12.4958389,140.159047 C17.498794,156.396151 22.7770059,167.443323 28.3304744,173.300565 C22.6811688,173.423863 19.0882869,172.31254 17.5518285,169.966596 C15.247141,166.447679 -11.3973902,148.141094 -13.6695256,128.155518 C-15.1842826,114.8318 -6.46249439,90.2243433 12.4958389,54.3331469 L32.9814495,14.9974519 L39.9417083,1.63262607 Z" fill="#5DA7B5" mask="url(#hero-phant-mask-16)"></path>
        <path d="M106.580474,173.309801 C105.524485,168.480747 105.524485,164.609623 106.580474,161.696428 C108.164459,157.326636 110.830474,152.058407 106.580474,152.058407 C102.330474,152.058407 106.891672,158.521657 104.611073,163.944813 C102.330474,169.367968 87.1983129,171.389136 76.3304744,171.389136 C65.4626358,171.389136 37.4893285,165.790159 32.9099014,169.367968 C29.8569501,171.753174 29.8569501,179.204688 32.9099014,191.72251 C70.3356827,187.577518 90.7391115,185.070994 94.1201879,184.202939 C97.5012643,183.334883 101.654693,179.703837 106.580474,173.309801 Z" fill="#4C416D" mask="url(#hero-phant-mask-16)"></path>
        <path d="M57.5075577,58.8891365 C52.5296931,65.9238587 46.8039987,71.5095792 40.3304744,75.6462979 C30.6201879,81.8513761 23.7918269,82.3617927 16.4823746,94.3266365 C14.6462291,97.3322234 11.8620104,103.541354 9.48338636,111.185396 C9.2768475,111.849137 8.45452519,114.671879 8.2526045,115.418812 C8.17493953,115.706106 7.38818763,118.814964 7.22979409,119.502537 C2.11358053,141.711581 3.05357288,169.673221 34.8783259,170.94773 C82.9175876,172.871593 11.1539582,173.98484 16.4823746,131.326636 C18.7333507,113.305786 28.1863239,85.9593993 40.3304744,80.881324 C50.2649018,76.7272441 55.9905963,69.396515 57.5075577,58.8891365 Z" fill="#4D547F" opacity="0.400000006" mask="url(#hero-phant-mask-16)"></path>
        <path d="M37.546783,174.326636 C37.1262787,174.936306 38.8126565,175.241142 42.6059165,175.241142 C46.3991764,175.241142 54.8154466,174.333924 67.8547269,172.519488 C59.9882638,171.471649 53.813513,170.94773 49.3304744,170.94773 C44.8474358,170.94773 40.9195386,172.074032 37.546783,174.326636 Z" fill="#4B2A5C" mask="url(#hero-phant-mask-16)"></path>
        <path d="M62.8547269,171.890459 C73.2798941,173.404334 81.025156,173.699249 86.0905125,172.775204 C91.155869,171.851159 95.8474439,170.260881 100.165237,168.004371 C89.6087286,168.004371 81.6638077,168.004371 76.3304744,168.004371 C70.997141,168.004371 66.1540421,167.547123 61.8011775,166.632626 L62.8547269,171.890459 Z" fill="#4E567C" mask="url(#hero-phant-mask-16)"></path>
        <path d="M36.3304744,121.326636 C40.65274,127.019996 46.1472061,129.866676 52.8138728,129.866676 C62.8138728,129.866676 68.3304744,111.653273 78.3304744,105.326636 C82.0655914,102.963564 85.8934249,102.465825 90.7572322,102 C93.3021756,101.756261 97.4444282,101.669443 103.18399,101.739545 C88.3155843,89.1224605 75.3644125,84.3181576 64.3304744,87.3266365 C53.2965363,90.3351154 43.9632029,101.668449 36.3304744,121.326636 Z" fill="#4F718F" mask="url(#hero-phant-mask-16)"></path>
        <path d="M46.6566462,127.112444 C37.4741612,129.756869 28.8517197,107.141354 28.3304744,108.162226 C25.0394258,114.607829 39.7140167,139.424322 54.3304744,137.186011 C55.7039338,136.975685 56.7456717,136.058029 57.7244281,134.753781 C58.1101,134.239851 54.8487973,130.825684 55.2313533,130.211326 C55.5324988,129.727707 59.4749688,132.059262 59.792393,131.535142 C60.1077052,131.01451 57.1604069,128.693923 57.5075577,128.152155 C57.8868722,127.560192 61.5644844,128.74591 62.0014517,128.152155 C63.657076,125.902481 65.8001368,123.727801 68.9884517,122.293859 C70.0697073,121.807565 72.2317292,121.324839 75.4745173,120.845679 C73.685773,119.175092 72.6974917,118.029096 72.5096736,117.407691 C71.2294001,113.171851 77.1644692,108.245815 80.9832073,106.594215 C89.2623695,103.013485 96.6626304,101.395262 103.18399,101.739545 L90.5926007,92.6065844 C71.3983185,97.1785255 61.8011775,102.363739 61.8011775,108.162226 C61.8011775,116.859957 55.8391312,124.468019 46.6566462,127.112444 Z" fill="#507E98" mask="url(#hero-phant-mask-16)"></path>
        <path d="M132.890563,166.632626 C142.963521,144.428633 144.333791,130.189412 137.001373,123.914962 C127.932374,116.154497 105.495169,124.862924 103.32787,125.857161 C99.6086862,127.563318 94.6095542,127.999733 88.3304744,127.166406 C91.301937,127.126025 96.301069,123.948567 103.32787,117.634031 C110.354671,111.319494 110.354671,106.021333 103.32787,101.739545 C105.421527,101.121938 107.751606,101.684821 110.318105,103.428195 C111.911202,104.510355 145.330474,103.428195 154.726959,125.857161 C162.047877,143.331849 154.769079,156.923671 132.890563,166.632626 Z" fill="#507E98" mask="url(#hero-phant-mask-16)"></path>
        <path d="M69.7464259,160.768043 C64.5994428,160.800952 60.127459,161.267073 56.3304744,162.166406 C59.0282704,164.499701 60.8518381,165.563528 61.8011775,165.357886 C68.3245894,163.944813 71.728155,165.357886 76.3304744,165.357886 C82.3359642,165.357886 81.5591394,163.827939 74,160.768043 C76.311267,160.735133 74.8934089,160.735133 69.7464259,160.768043 Z" fill="#507E98" mask="url(#hero-phant-mask-16)"></path>
        <g mask="url(#hero-phant-mask-16)">
          <g transform="translate(40.330474, 159.326636) scale(-1, 1) rotate(26.000000) translate(-40.330474, -159.326636) translate(15.330474, 137.326636)">
            <path d="M29.6678963,21.8219439 C22.0882309,26.3315287 12.6241389,26.8364181 8.22497396,28.126486 L8.22497396,28.126486 C2.72048551,29.7404779 4.6615235,36.2576511 4.87718044,37.8739446 L4.87718044,37.8739446 C9.76991936,37.8759437 19.9153883,36.2639694 27.0755318,31.8727808 L27.0755318,31.8727808 C39.3134666,24.3668013 47.4432655,6.77717689 46.2562529,5.91747833 L46.2562529,5.91747833 C46.2412583,5.90685059 46.2255787,5.89824245 46.2087106,5.89145117 L46.2087106,5.89145117 C44.8839043,5.35959788 37.6256398,17.0873763 29.6678963,21.8219439" id="Tusk" fill="url(#hero-phant-gradient-17)" transform="translate(25.371061, 21.873945) rotate(-16.000000) translate(-25.371061, -21.873945) "></path>
            <path d="M6.04440395,38.2702661 C5.03861111,33.5646624 5.88223064,32.0340428 5.88223064,32.0340428 C5.88223064,32.0340428 7.35707529,35.2450723 11.1518255,34.9010141 C15.5318617,34.5041018 21.3883254,33.6878659 28.7909337,29.2784628 C36.6624375,24.5897422 43.5510867,14.2702661 43.5510867,14.2702661 C43.5510867,14.2702661 39.6765223,25.0632869 27.7242134,32.4024198 C20.7313271,36.696057 10.822851,38.2722208 6.04440395,38.2702661" id="Fill-61" fill="#D3CBAF" transform="translate(24.551087, 26.270266) rotate(-16.000000) translate(-24.551087, -26.270266) "></path>
          </g>
        </g>
        <path d="M73.6779011,143.962163 C73.6779011,141.254003 83.3244256,139.535481 89.1859431,141.633103 C95.0474606,143.730725 98.3440188,148.92856 94.5713598,153.84747 C90.7987007,158.76638 88.3106198,151.360363 83.3716539,149.78969 C78.4326879,148.219017 73.6779011,146.670322 73.6779011,143.962163 Z" fill="#4E567C" mask="url(#hero-phant-mask-16)"></path>
        <g id="Eye" mask="url(#hero-phant-mask-16)">
          <g transform="translate(83.761464, 145.711402) rotate(29.000000) translate(-83.761464, -145.711402) translate(80.761464, 142.711402)">
            <path d="M2.99843244,-6.76427962e-06 C4.6552721,-0.00134107604 5.99910441,0.343424201 5.99998982,1.99999324 C6.00134338,3.65702316 4.65885446,5.99865747 3.0020148,5.99999324 C1.34517513,6.00089427 0.000896036988,4.65881288 -1.01813013e-05,3.00178972 C-0.000895141024,1.34476656 1.34114498,0.000895726278 2.99843244,-6.76427962e-06 Z" id="Fill-66" fill="#020408"></path>
            <path d="M4,0.9995 C4.00049958,1.55149977 3.55299977,1.99949958 3.0005,2 C2.44850023,2.00049958 2.00050042,1.55299977 2,1.0005 C1.99950042,0.44850023 2.44700023,0.000500417911 2.9995,0 C3.55149977,-0.000499581671 3.99949958,0.447500231 4,0.9995" id="Fill-68" fill="#D5B8D8"></path>
          </g>
        </g>
      </g>
    </g>
  </g>
</svg>
