<svg xmlns="http://www.w3.org/2000/svg" viewBox="0 0 328.25 358.39"><defs><style>.cls-1{isolation:isolate;}.cls-2{fill:#e27e80;}.cls-2,.cls-3,.cls-4{stroke:#fff;stroke-linecap:round;stroke-linejoin:round;stroke-width:2px;}.cls-3{fill:#e6372d;}.cls-4{fill:#aa1d1a;}.cls-5{font-size:22px;fill:#231f20;font-family:GTWalsheim-CondensedBold, GT Walsheim;font-weight:700;}.cls-6{letter-spacing:-0.01em;}.cls-7{letter-spacing:0.01em;}.cls-8{letter-spacing:0em;}.cls-9{fill:#1e1b1c;}</style></defs><title>Grand total</title><g id="Calque_2" data-name="Calque 2"><g class="cls-1"><polygon class="cls-2" points="318.4 93.99 180.98 173.85 42.66 94 180.09 14.14 318.4 93.99"/><polygon class="cls-3" points="318.4 93.99 317.89 265.66 180.47 345.52 180.98 173.85 318.4 93.99"/><polygon class="cls-4" points="180.98 173.85 180.47 345.52 42.15 265.67 42.66 94 180.98 173.85"/></g></g><g id="Calque_3" data-name="Calque 3"><text class="cls-5" transform="translate(33.47 210.86) rotate(-88.9)">P<tspan class="cls-6" x="11.84" y="0">r</tspan><tspan class="cls-7" x="19.23" y="0">o</tspan><tspan x="30.54" y="0">du</tspan><tspan class="cls-8" x="53.81" y="0">c</tspan><tspan x="64.33" y="0">t</tspan></text><path class="cls-9" d="M97.25,52.86c.48.72.22,1.4-.76,2-1.8,1-4.54.81-6.91-.56s-2.77-2.94-1-4A4.57,4.57,0,0,1,92,49.82l-1.1-.64,2.26-1.31,7.48,4.31L98.36,53.5Zm-5.37.07a3.42,3.42,0,0,0,3.42.36c.88-.51.69-1.23-.62-2A3.41,3.41,0,0,0,91.26,51c-.9.52-.69,1.21.62,2"/><path class="cls-9" d="M106,49a6.27,6.27,0,0,1-1.07.76,4.65,4.65,0,0,1-4.74,0l-3.44-2-.94.55-1.77-1,1-.55-2.24-1.29,2.27-1.32,2.23,1.29,1.22-.7,1.76,1-1.21.71,2.82,1.63a1.71,1.71,0,0,0,1.84.13l.43-.29Z"/><path class="cls-9" d="M87.2,53.66c3.27,1.89,3.69,4.18.73,5.9L84.6,61.5,73.67,55.19l3.44-2C80,51.51,83.86,51.73,87.2,53.66Zm-2.27,5.27.95-.55c1.43-.83,1.19-1.93-1.15-3.29s-4.25-1.48-5.68-.65l-1,.55,6.83,3.94"/><path class="cls-9" d="M111.12,43.46c1.37,1,1.19,2.19-.66,3.26a7.31,7.31,0,0,1-7.53-.18c-2.51-1.45-2.69-3.06-.46-4.36a6.77,6.77,0,0,1,6.81.09,10.09,10.09,0,0,1,1,.66l-4.57,2.66a3,3,0,0,0,3,.15c.65-.38.72-.73.35-1.09Zm-6.84,1.3,2.48-1.44a2.68,2.68,0,0,0-2.77-.25c-.83.48-.73,1.07.29,1.69"/><path class="cls-9" d="M102.46,314c1.82,1,1.42,2.63-.92,4s-5.1,1.61-6.91.56c-1-.57-1.27-1.24-.79-2l-4.23,2.46-2.26-1.3,10.56-6.14,2.26,1.31-1.1.63A4.65,4.65,0,0,1,102.46,314Zm-6.64,3a3.38,3.38,0,0,0,3.41-.36c1.3-.76,1.5-1.45.6-2a3.41,3.41,0,0,0-3.42.34c-1.3.75-1.49,1.47-.59,2"/><path class="cls-9" d="M93.37,308.72c2.26,1.3,2.13,3-.28,4.4a7.65,7.65,0,0,1-7.6.18c-2.27-1.31-2.14-3,.27-4.41A7.64,7.64,0,0,1,93.37,308.72Zm-6,3.46a3.42,3.42,0,0,0,3.42-.36c1.32-.77,1.5-1.47.61-2a3.41,3.41,0,0,0-3.42.37c-1.32.76-1.5,1.47-.61,2"/><path class="cls-9" d="M87.52,301.65,83,304.25a4.79,4.79,0,0,1,3.38.49c1.47.85,1.36,1.87-.49,2.94l-4.85,2.82-2.3-1.33L83,306.71c1-.59,1.19-1,.49-1.44s-1.68-.31-2.82.35l-4,2.33-2.28-1.31,10.85-6.31Z"/><path class="cls-9" d="M80.82,297.43c2.3,1.33,2.28,2.7.06,4l-2.36-1.36c1-.61,1.1-1.14.38-1.56a2.08,2.08,0,0,0-2.1,0c-.7.41-.57.84-.19,1.56l.74,1.27c.67,1.27.38,2.15-1,3a6.91,6.91,0,0,1-6.79-.12c-2.37-1.37-2.47-2.9,0-4.32l2.4,1.39c-1.16.67-1.25,1.3-.41,1.79a2.3,2.3,0,0,0,2.3,0c.67-.39.7-.85.31-1.53l-.72-1.18c-.76-1.26-.56-2.22,1-3.11A6.66,6.66,0,0,1,80.82,297.43Z"/></g></svg>