<svg xmlns="http://www.w3.org/2000/svg" viewBox="0 0 1367.34 452.78"><defs><style>.cls-1{isolation:isolate;}.cls-2,.cls-5{fill:#e27e80;}.cls-2,.cls-3,.cls-4{stroke:#fff;stroke-linecap:round;stroke-linejoin:round;stroke-width:2px;}.cls-3,.cls-6{fill:#aa1d1a;}.cls-4,.cls-7{fill:#e6372d;}.cls-8{font-size:22px;fill:#231f20;font-family:GTWalsheim-CondensedBold, GT Walsheim;font-weight:700;}.cls-9{letter-spacing:-0.01em;}.cls-10{letter-spacing:0.01em;}.cls-11{letter-spacing:0em;}.cls-12{fill:#1e1b1c;}</style></defs><title>Drilldown</title><g id="Calque_2" data-name="Calque 2"><g class="cls-1"><polygon class="cls-2" points="170.15 71.61 310.17 153 339.81 135.89 199.79 54.5 170.15 71.61"/><polygon class="cls-3" points="170.19 71.5 170.45 240.06 310.44 321.57 310.17 153 170.19 71.5"/><polygon class="cls-4" points="310.17 153 310.28 321.33 339.92 304.22 339.81 135.89 310.17 153"/></g><g class="cls-1"><polygon class="cls-2" points="135.15 92.61 275.17 174 304.81 156.89 164.79 75.5 135.15 92.61"/><polygon class="cls-3" points="135.19 92.5 135.45 261.06 275.44 342.57 275.17 174 135.19 92.5"/><polygon class="cls-4" points="275.17 174 275.28 342.33 304.92 325.22 304.81 156.89 275.17 174"/></g><g class="cls-1"><polygon class="cls-2" points="99.15 112.61 239.17 194 268.81 176.89 128.79 95.5 99.15 112.61"/><polygon class="cls-3" points="99.19 112.5 99.45 281.06 239.44 362.57 239.17 194 99.19 112.5"/><polygon class="cls-4" points="239.17 194 239.28 362.33 268.92 345.22 268.81 176.89 239.17 194"/></g><g class="cls-1"><polygon class="cls-2" points="64.15 133.61 204.17 215 233.81 197.89 93.79 116.5 64.15 133.61"/><polygon class="cls-3" points="64.19 133.5 64.45 302.06 204.44 383.57 204.17 215 64.19 133.5"/><polygon class="cls-4" points="204.17 215 204.28 383.33 233.92 366.22 233.81 197.89 204.17 215"/></g><g class="cls-1"><polygon class="cls-5" points="667.1 56.11 807.12 137.5 836.75 120.39 696.73 39 667.1 56.11"/><polygon class="cls-6" points="667.13 55.99 667.39 224.56 807.38 306.07 807.12 137.5 667.13 55.99"/><polygon class="cls-7" points="807.12 137.5 807.23 305.83 836.86 288.72 836.75 120.39 807.12 137.5"/></g><g class="cls-1"><polygon class="cls-5" points="632.1 77.11 772.12 158.5 801.75 141.39 661.73 60 632.1 77.11"/><polygon class="cls-6" points="632.13 76.99 632.39 245.56 772.38 327.07 772.12 158.5 632.13 76.99"/><polygon class="cls-7" points="772.12 158.5 772.23 326.83 801.86 309.72 801.75 141.39 772.12 158.5"/></g><g class="cls-1"><polygon class="cls-2" points="632.17 59.26 602.73 76.37 573.09 59.26 602.54 42.15 632.17 59.26"/><polygon class="cls-4" points="632.17 59.26 632.07 227.8 602.62 244.91 602.73 76.37 632.17 59.26"/><polygon class="cls-3" points="602.73 76.37 602.62 244.91 572.98 227.8 573.09 59.26 602.73 76.37"/></g><g class="cls-1"><polygon class="cls-2" points="667.58 80.21 638.13 97.32 608.49 80.21 637.94 63.1 667.58 80.21"/><polygon class="cls-4" points="667.58 80.21 667.47 248.75 638.02 265.87 638.13 97.32 667.58 80.21"/><polygon class="cls-3" points="638.13 97.32 638.02 265.87 608.38 248.75 608.49 80.21 638.13 97.32"/></g><g class="cls-1"><polygon class="cls-2" points="703.09 100.21 673.64 117.32 644 100.21 673.45 83.1 703.09 100.21"/><polygon class="cls-4" points="703.09 100.21 702.98 268.75 673.53 285.87 673.64 117.32 703.09 100.21"/><polygon class="cls-3" points="673.64 117.32 673.53 285.87 643.89 268.76 644 100.21 673.64 117.32"/></g><g class="cls-1"><polygon class="cls-2" points="738.38 120.44 708.93 137.55 679.29 120.44 708.74 103.33 738.38 120.44"/><polygon class="cls-4" points="738.38 120.44 738.27 288.98 708.82 306.1 708.93 137.55 738.38 120.44"/><polygon class="cls-3" points="708.93 137.55 708.82 306.1 679.18 288.99 679.29 120.44 708.93 137.55"/></g><g class="cls-1"><polygon class="cls-5" points="511.1 158.11 651.12 239.5 680.75 222.39 540.73 141 511.1 158.11"/><polygon class="cls-6" points="511.13 157.99 511.39 326.56 651.38 408.07 651.12 239.5 511.13 157.99"/><polygon class="cls-7" points="651.12 239.5 651.23 407.83 680.86 390.72 680.75 222.39 651.12 239.5"/></g><g class="cls-1"><polygon class="cls-5" points="1140.05 57.11 1280.07 138.5 1309.71 121.39 1169.69 40 1140.05 57.11"/><polygon class="cls-6" points="1140.08 56.99 1140.34 225.56 1280.33 307.07 1280.07 138.5 1140.08 56.99"/><polygon class="cls-7" points="1280.07 138.5 1280.18 306.83 1309.82 289.72 1309.71 121.39 1280.07 138.5"/></g><g class="cls-1"><polygon class="cls-5" points="1105.05 78.11 1245.07 159.5 1274.71 142.39 1134.69 61 1105.05 78.11"/><polygon class="cls-6" points="1105.08 77.99 1105.34 246.56 1245.33 328.07 1245.07 159.5 1105.08 77.99"/><polygon class="cls-7" points="1245.07 159.5 1245.18 327.83 1274.82 310.72 1274.71 142.39 1245.07 159.5"/></g><g class="cls-1"><polygon class="cls-5" points="1103.13 61.26 1073.68 78.37 1044.04 61.26 1073.49 44.15 1103.13 61.26"/><polygon class="cls-7" points="1103.13 61.26 1103.02 229.8 1073.57 246.91 1073.68 78.37 1103.13 61.26"/><polygon class="cls-6" points="1073.68 78.37 1073.57 246.91 1043.93 229.8 1044.04 61.26 1073.68 78.37"/></g><g class="cls-1"><polygon class="cls-5" points="1138.53 82.21 1109.08 99.32 1079.44 82.21 1108.89 65.1 1138.53 82.21"/><polygon class="cls-7" points="1138.53 82.21 1138.42 250.75 1108.97 267.87 1109.08 99.32 1138.53 82.21"/><polygon class="cls-6" points="1109.08 99.32 1108.97 267.87 1079.33 250.75 1079.44 82.21 1109.08 99.32"/></g><g class="cls-1"><polygon class="cls-5" points="1174.04 102.21 1144.59 119.32 1114.95 102.21 1144.4 85.1 1174.04 102.21"/><polygon class="cls-7" points="1174.04 102.21 1173.93 270.75 1144.48 287.87 1144.59 119.32 1174.04 102.21"/><polygon class="cls-6" points="1144.59 119.32 1144.48 287.87 1114.84 270.76 1114.95 102.21 1144.59 119.32"/></g><g class="cls-1"><polygon class="cls-5" points="984.05 159.11 1124.07 240.5 1153.71 223.39 1013.69 142 984.05 159.11"/><polygon class="cls-6" points="984.08 158.99 984.34 327.56 1124.33 409.07 1124.07 240.5 984.08 158.99"/><polygon class="cls-7" points="1124.07 240.5 1124.18 408.83 1153.82 391.72 1153.71 223.39 1124.07 240.5"/></g><g class="cls-1"><polygon class="cls-2" points="1231.8 190.53 1202.35 207.64 1172.71 190.53 1202.16 173.41 1231.8 190.53"/><polygon class="cls-4" points="1231.8 190.53 1231.69 229.02 1202.24 246.14 1202.35 207.64 1231.8 190.53"/><polygon class="cls-3" points="1202.35 207.64 1202.24 246.14 1172.6 229.03 1172.71 190.53 1202.35 207.64"/></g><g class="cls-1"><polygon class="cls-2" points="1231.8 147.18 1202.35 164.29 1172.71 147.18 1202.16 130.06 1231.8 147.18"/><polygon class="cls-4" points="1231.8 147.18 1231.69 185.68 1202.24 202.79 1202.35 164.29 1231.8 147.18"/><polygon class="cls-3" points="1202.35 164.29 1202.24 202.79 1172.6 185.68 1172.71 147.18 1202.35 164.29"/></g><g class="cls-1"><polygon class="cls-2" points="1231.8 103.83 1202.35 120.94 1172.71 103.83 1202.16 86.72 1231.8 103.83"/><polygon class="cls-4" points="1231.8 103.83 1231.69 142.33 1202.24 159.44 1202.35 120.94 1231.8 103.83"/><polygon class="cls-3" points="1202.35 120.94 1202.24 159.44 1172.6 142.33 1172.71 103.83 1202.35 120.94"/></g><g class="cls-1"><polygon class="cls-2" points="1231.8 60.48 1202.35 77.59 1172.71 60.48 1202.16 43.37 1231.8 60.48"/><polygon class="cls-4" points="1231.8 60.48 1231.69 98.98 1202.24 116.09 1202.35 77.59 1231.8 60.48"/><polygon class="cls-3" points="1202.35 77.59 1202.24 116.09 1172.6 98.98 1172.71 60.48 1202.35 77.59"/></g></g><g id="Calque_3" data-name="Calque 3"><text class="cls-8" transform="translate(54.93 247.5) rotate(-88.9)">P<tspan class="cls-9" x="11.84" y="0">r</tspan><tspan class="cls-10" x="19.23" y="0">o</tspan><tspan x="30.54" y="0">du</tspan><tspan class="cls-11" x="53.81" y="0">c</tspan><tspan x="64.33" y="0">t</tspan></text><path class="cls-12" d="M108.65,90.29c3.28,1.9,3.7,4.18.74,5.91l-3.34,1.93-10.92-6.3,3.44-2C101.46,88.15,105.31,88.37,108.65,90.29Zm-2.25,5.27.95-.54c1.42-.83,1.18-1.94-1.16-3.3s-4.26-1.48-5.68-.65l-1,.55,6.84,3.94"/><path class="cls-12" d="M118.71,89.49c.48.72.21,1.4-.76,2-1.8,1-4.54.81-6.92-.56s-2.76-3-1-4a4.65,4.65,0,0,1,3.39-.46l-1.1-.64,2.26-1.31,7.48,4.32-2.27,1.31Zm-5.38.07a3.37,3.37,0,0,0,3.42.36c.89-.51.7-1.23-.61-2a3.45,3.45,0,0,0-3.43-.34c-.9.52-.69,1.22.62,2"/><path class="cls-12" d="M132.58,80.09c1.36,1,1.18,2.19-.67,3.27a7.29,7.29,0,0,1-7.52-.18c-2.52-1.46-2.7-3.07-.46-4.37a6.77,6.77,0,0,1,6.81.09,11.42,11.42,0,0,1,1,.66l-4.57,2.66a3,3,0,0,0,3,.15c.66-.38.73-.72.35-1.09Zm-6.83,1.3L128.23,80a2.69,2.69,0,0,0-2.79-.24c-.82.48-.72,1.07.31,1.68"/><path class="cls-12" d="M127.5,85.67a6.71,6.71,0,0,1-1.07.77,4.69,4.69,0,0,1-4.75,0l-3.44-2-.94.55-1.76-1,.94-.55-2.23-1.29,2.26-1.31,2.24,1.29,1.21-.71,1.76,1-1.21.7,2.83,1.64a1.7,1.7,0,0,0,1.84.12c.12-.07.23-.15.43-.29Z"/><path class="cls-12" d="M102.28,334.07c2.29,1.33,2.27,2.69.06,4L100,336.69c1-.6,1.1-1.14.38-1.56a2.1,2.1,0,0,0-2.1,0c-.7.41-.57.85-.19,1.56l.74,1.28c.67,1.26.38,2.14-1,3a6.92,6.92,0,0,1-6.78-.12c-2.38-1.38-2.47-2.91,0-4.33l2.4,1.39c-1.16.68-1.25,1.31-.41,1.8a2.31,2.31,0,0,0,2.29,0c.68-.4.7-.85.32-1.54L94.82,337c-.76-1.27-.56-2.23,1-3.11A6.63,6.63,0,0,1,102.28,334.07Z"/><path class="cls-12" d="M123.92,350.64c1.81,1.05,1.42,2.63-.93,4s-5.09,1.6-6.9.55c-1-.57-1.27-1.23-.79-2l-4.23,2.46-2.27-1.31,10.57-6.14,2.26,1.31-1.1.64A4.65,4.65,0,0,1,123.92,350.64Zm-6.64,3a3.39,3.39,0,0,0,3.4-.37c1.31-.76,1.51-1.45.62-2a3.41,3.41,0,0,0-3.44.33c-1.3.76-1.48,1.48-.58,2"/><path class="cls-12" d="M114.82,345.35c2.26,1.31,2.13,3-.27,4.41a7.62,7.62,0,0,1-7.6.17c-2.26-1.31-2.14-3,.26-4.4A7.67,7.67,0,0,1,114.82,345.35Zm-5.95,3.46a3.38,3.38,0,0,0,3.41-.36c1.32-.76,1.5-1.47.62-2a3.44,3.44,0,0,0-3.43.36c-1.31.77-1.49,1.47-.6,2"/><path class="cls-12" d="M109,338.28l-4.48,2.61a4.66,4.66,0,0,1,3.37.49c1.47.85,1.37,1.87-.47,2.94l-4.85,2.82-2.32-1.34,4.24-2.46c1-.59,1.19-1,.48-1.44s-1.68-.3-2.81.35l-4,2.34-2.28-1.32L106.7,337Z"/><text class="cls-8" transform="translate(497.48 271.27) rotate(-88.9)">P<tspan class="cls-9" x="11.84" y="0">r</tspan><tspan class="cls-10" x="19.23" y="0">o</tspan><tspan x="30.54" y="0">du</tspan><tspan class="cls-11" x="53.81" y="0">c</tspan><tspan x="64.33" y="0">t</tspan></text><path class="cls-12" d="M523.42,106.73c3.28,1.89,3.69,4.18.73,5.9l-3.33,1.94-10.93-6.31,3.44-2C516.22,104.58,520.08,104.8,523.42,106.73ZM521.16,112l1-.55c1.43-.83,1.18-1.94-1.16-3.29s-4.25-1.49-5.68-.66l-.94.55,6.83,4"/><path class="cls-12" d="M542.26,102.11a6.69,6.69,0,0,1-1.07.76,4.67,4.67,0,0,1-4.74,0l-3.44-2-1,.55-1.76-1,1-.56L529,98.55l2.26-1.31,2.23,1.29,1.21-.7,1.76,1-1.21.71,2.82,1.63a1.7,1.7,0,0,0,1.85.12l.43-.28Z"/><path class="cls-12" d="M547.35,96.53c1.36,1,1.17,2.19-.67,3.26a7.31,7.31,0,0,1-7.53-.18c-2.52-1.45-2.69-3.07-.46-4.36a6.79,6.79,0,0,1,6.82.09c.26.15.68.42,1,.65l-4.58,2.66a3,3,0,0,0,3,.16c.65-.38.73-.73.35-1.09Zm-6.84,1.29L543,96.38a2.71,2.71,0,0,0-2.79-.24c-.81.48-.72,1.08.31,1.68"/><path class="cls-12" d="M533.48,105.93c.47.72.21,1.4-.77,2-1.79,1-4.54.82-6.91-.56s-2.77-3-1-4a4.56,4.56,0,0,1,3.38-.45l-1.1-.64,2.26-1.32,7.48,4.32-2.26,1.32Zm-5.39.07a3.41,3.41,0,0,0,3.43.36c.89-.52.69-1.24-.62-2a3.41,3.41,0,0,0-3.42-.34c-.9.52-.7,1.21.61,2"/><path class="cls-12" d="M552.1,366.41c2.3,1.33,2.28,2.7.06,4L549.8,369c1-.61,1.1-1.15.38-1.56a2.08,2.08,0,0,0-2.1,0c-.7.4-.57.84-.19,1.56l.74,1.27c.67,1.27.38,2.14-1,3a6.91,6.91,0,0,1-6.79-.13c-2.37-1.37-2.48-2.9,0-4.31l2.41,1.39c-1.17.67-1.26,1.3-.41,1.79a2.32,2.32,0,0,0,2.28,0c.68-.4.71-.85.32-1.54l-.72-1.17c-.76-1.27-.56-2.23,1-3.11A6.63,6.63,0,0,1,552.1,366.41Z"/><g class="cls-1"><path class="cls-12" d="M558.8,370.62l-4.48,2.61a4.78,4.78,0,0,1,3.38.49c1.46.85,1.36,1.87-.48,2.94l-4.86,2.82-2.31-1.33,4.24-2.47c1-.59,1.19-1,.49-1.43s-1.69-.31-2.82.35l-4,2.33-2.28-1.32,10.86-6.31Z"/><path class="cls-12" d="M564.64,377.69c2.27,1.31,2.14,3-.27,4.41a7.64,7.64,0,0,1-7.61.17c-2.26-1.3-2.13-3,.28-4.4A7.65,7.65,0,0,1,564.64,377.69Zm-6,3.46a3.39,3.39,0,0,0,3.43-.36c1.32-.76,1.5-1.46.61-2a3.4,3.4,0,0,0-3.42.36c-1.32.77-1.5,1.47-.62,2"/></g><path class="cls-12" d="M573.74,383c1.81,1,1.41,2.64-.93,4s-5.09,1.6-6.9.56c-1-.57-1.26-1.24-.79-2L560.89,388l-2.27-1.31,10.56-6.13,2.27,1.31-1.1.63A4.7,4.7,0,0,1,573.74,383Zm-6.64,3a3.34,3.34,0,0,0,3.4-.37c1.3-.75,1.5-1.45.62-2a3.44,3.44,0,0,0-3.44.33c-1.3.76-1.49,1.48-.58,2"/><text class="cls-8" transform="translate(974.08 273.66) rotate(-88.9)">P<tspan class="cls-9" x="11.84" y="0">r</tspan><tspan class="cls-10" x="19.23" y="0">o</tspan><tspan x="30.54" y="0">du</tspan><tspan class="cls-11" x="53.81" y="0">c</tspan><tspan x="64.33" y="0">t</tspan></text><g class="cls-1"><path class="cls-12" d="M1018.33,111.24c.47.73.21,1.4-.76,2-1.81,1-4.54.81-6.92-.56s-2.77-3-1-4a4.59,4.59,0,0,1,3.39-.45l-1.11-.64,2.26-1.32,7.48,4.32-2.26,1.31Zm-5.38.07a3.37,3.37,0,0,0,3.42.36c.89-.51.7-1.23-.62-2a3.46,3.46,0,0,0-3.42-.34c-.9.52-.69,1.22.62,2"/><path class="cls-12" d="M1008.27,112c3.28,1.9,3.69,4.19.73,5.91l-3.33,1.94-10.93-6.31,3.45-2C1001.07,109.9,1004.93,110.11,1008.27,112Zm-2.26,5.28,1-.55c1.43-.83,1.18-1.94-1.16-3.29s-4.25-1.49-5.68-.66l-.94.55,6.83,3.95"/></g><path class="cls-12" d="M1027.11,107.42a6.6,6.6,0,0,1-1.06.77,4.69,4.69,0,0,1-4.75,0l-3.44-2-.94.55-1.76-1,.94-.55-2.23-1.29,2.26-1.32,2.24,1.29,1.2-.7,1.76,1-1.2.7,2.83,1.63a1.67,1.67,0,0,0,1.83.13c.12-.07.23-.15.43-.29Z"/><path class="cls-12" d="M1032.2,101.85c1.36,1,1.18,2.18-.67,3.26a7.31,7.31,0,0,1-7.53-.18c-2.51-1.45-2.69-3.07-.46-4.37a6.79,6.79,0,0,1,6.82.1,9.5,9.5,0,0,1,1,.66L1026.8,104a3,3,0,0,0,3,.15c.65-.38.73-.73.35-1.08Zm-6.84,1.29,2.48-1.44a2.71,2.71,0,0,0-2.79-.24c-.81.48-.72,1.07.31,1.68"/><path class="cls-12" d="M1028,360.24c2.29,1.32,2.27,2.69,0,4l-2.36-1.36c1-.61,1.1-1.14.38-1.56a2.08,2.08,0,0,0-2.1,0c-.7.41-.57.83-.19,1.56l.73,1.27c.68,1.27.4,2.14-1,3a6.89,6.89,0,0,1-6.78-.12c-2.38-1.37-2.48-2.9,0-4.32l2.4,1.39c-1.16.67-1.24,1.31-.4,1.79a2.27,2.27,0,0,0,2.28,0c.68-.39.71-.85.33-1.54l-.73-1.17c-.75-1.26-.56-2.22,1-3.11A6.65,6.65,0,0,1,1028,360.24Z"/><path class="cls-12" d="M1049.67,376.81c1.82,1,1.42,2.63-.92,4s-5.09,1.6-6.9.56c-1-.57-1.28-1.24-.8-2l-4.23,2.46-2.26-1.31,10.56-6.13,2.26,1.31-1.1.63A4.59,4.59,0,0,1,1049.67,376.81Zm-6.64,3a3.39,3.39,0,0,0,3.41-.38c1.3-.75,1.5-1.44.61-2a3.44,3.44,0,0,0-3.43.33c-1.31.76-1.49,1.48-.59,2"/><path class="cls-12" d="M1040.58,371.52c2.26,1.3,2.13,3-.28,4.4a7.65,7.65,0,0,1-7.6.18c-2.27-1.31-2.14-3,.27-4.41A7.64,7.64,0,0,1,1040.58,371.52Zm-6,3.46a3.42,3.42,0,0,0,3.42-.36c1.32-.77,1.5-1.47.61-2a3.42,3.42,0,0,0-3.42.36c-1.32.77-1.5,1.48-.61,2"/><path class="cls-12" d="M1034.74,364.44l-4.49,2.61a4.74,4.74,0,0,1,3.38.49c1.47.85,1.37,1.87-.48,2.94l-4.85,2.82L1026,372l4.23-2.46c1-.6,1.19-1,.49-1.44s-1.68-.31-2.82.35l-4,2.33-2.28-1.31,10.86-6.31Z"/></g></svg>