<svg xmlns="http://www.w3.org/2000/svg" viewBox="0 0 327.63 342.13"><defs><style>.cls-1{isolation:isolate;}.cls-2{fill:#e27e80;}.cls-2,.cls-3,.cls-4{stroke:#fff;stroke-linecap:round;stroke-linejoin:round;stroke-width:2px;}.cls-3{fill:#e6372d;}.cls-4{fill:#aa1d1a;}.cls-5{font-size:22px;fill:#231f20;font-family:GTWalsheim-CondensedBold, GT Walsheim;font-weight:700;}.cls-6{letter-spacing:-0.01em;}.cls-7{letter-spacing:0.01em;}.cls-8{letter-spacing:0em;}.cls-9{fill:#1e1b1c;}</style></defs><title>Pivot table</title><g id="Calque_2" data-name="Calque 2"><g class="cls-1"><polygon class="cls-2" points="312.06 213.99 282.62 231.1 146.87 152.37 176.32 135.26 312.06 213.99"/><polygon class="cls-3" points="312.06 213.99 311.95 252.49 282.51 269.61 282.62 231.1 312.06 213.99"/><polygon class="cls-4" points="282.62 231.1 282.51 269.61 146.76 190.87 146.87 152.37 282.62 231.1"/></g><g class="cls-1"><polygon class="cls-2" points="312.06 170.92 282.62 188.03 146.87 109.3 176.32 92.19 312.06 170.92"/><polygon class="cls-3" points="312.06 170.92 311.95 209.42 282.51 226.53 282.62 188.03 312.06 170.92"/><polygon class="cls-4" points="282.62 188.03 282.51 226.53 146.76 147.8 146.87 109.3 282.62 188.03"/></g><g class="cls-1"><polygon class="cls-2" points="312.06 127.92 282.62 145.03 146.87 66.3 176.32 49.19 312.06 127.92"/><polygon class="cls-3" points="312.06 127.92 311.95 166.42 282.51 183.53 282.62 145.03 312.06 127.92"/><polygon class="cls-4" points="282.62 145.03 282.51 183.53 146.76 104.8 146.87 66.3 282.62 145.03"/></g><g class="cls-1"><polygon class="cls-2" points="312.06 83.92 282.62 101.03 146.87 22.3 176.32 5.19 312.06 83.92"/><polygon class="cls-3" points="312.06 83.92 311.95 122.42 282.51 139.53 282.62 101.03 312.06 83.92"/><polygon class="cls-4" points="282.62 101.03 282.51 139.53 146.76 60.8 146.87 22.3 282.62 101.03"/></g><g class="cls-1"><polygon class="cls-2" points="275.06 235.99 245.62 253.1 109.87 174.37 139.32 157.26 275.06 235.99"/><polygon class="cls-3" points="275.06 235.99 274.95 274.49 245.51 291.61 245.62 253.1 275.06 235.99"/><polygon class="cls-4" points="245.62 253.1 245.51 291.61 109.76 212.87 109.87 174.37 245.62 253.1"/></g><g class="cls-1"><polygon class="cls-2" points="275.06 192.92 245.62 210.03 109.87 131.3 139.32 114.19 275.06 192.92"/><polygon class="cls-3" points="275.06 192.92 274.95 231.42 245.51 248.53 245.62 210.03 275.06 192.92"/><polygon class="cls-4" points="245.62 210.03 245.51 248.53 109.76 169.8 109.87 131.3 245.62 210.03"/></g><g class="cls-1"><polygon class="cls-2" points="275.06 149.92 245.62 167.03 109.87 88.3 139.32 71.19 275.06 149.92"/><polygon class="cls-3" points="275.06 149.92 274.95 188.42 245.51 205.53 245.62 167.03 275.06 149.92"/><polygon class="cls-4" points="245.62 167.03 245.51 205.53 109.76 126.8 109.87 88.3 245.62 167.03"/></g><g class="cls-1"><polygon class="cls-2" points="275.06 105.92 245.62 123.03 109.87 44.3 139.32 27.19 275.06 105.92"/><polygon class="cls-3" points="275.06 105.92 274.95 144.42 245.51 161.53 245.62 123.03 275.06 105.92"/><polygon class="cls-4" points="245.62 123.03 245.51 161.53 109.76 82.8 109.87 44.3 245.62 123.03"/></g><g class="cls-1"><polygon class="cls-2" points="238.06 256.99 208.62 274.11 72.87 195.37 102.32 178.26 238.06 256.99"/><polygon class="cls-3" points="238.06 256.99 237.95 295.49 208.51 312.61 208.62 274.11 238.06 256.99"/><polygon class="cls-4" points="208.62 274.11 208.51 312.61 72.76 233.87 72.87 195.37 208.62 274.11"/></g><g class="cls-1"><polygon class="cls-2" points="238.06 213.92 208.62 231.03 72.87 152.3 102.32 135.19 238.06 213.92"/><polygon class="cls-3" points="238.06 213.92 237.95 252.42 208.51 269.54 208.62 231.03 238.06 213.92"/><polygon class="cls-4" points="208.62 231.03 208.51 269.54 72.76 190.8 72.87 152.3 208.62 231.03"/></g><g class="cls-1"><polygon class="cls-2" points="238.06 170.92 208.62 188.03 72.87 109.3 102.32 92.19 238.06 170.92"/><polygon class="cls-3" points="238.06 170.92 237.95 209.42 208.51 226.53 208.62 188.03 238.06 170.92"/><polygon class="cls-4" points="208.62 188.03 208.51 226.53 72.76 147.8 72.87 109.3 208.62 188.03"/></g><g class="cls-1"><polygon class="cls-2" points="238.06 126.92 208.62 144.03 72.87 65.3 102.32 48.19 238.06 126.92"/><polygon class="cls-3" points="238.06 126.92 237.95 165.42 208.51 182.53 208.62 144.03 238.06 126.92"/><polygon class="cls-4" points="208.62 144.03 208.51 182.53 72.76 103.8 72.87 65.3 208.62 144.03"/></g><g class="cls-1"><polygon class="cls-2" points="201.06 278.99 171.62 296.11 35.87 217.37 65.32 200.26 201.06 278.99"/><polygon class="cls-3" points="201.06 278.99 200.95 317.49 171.51 334.61 171.62 296.11 201.06 278.99"/><polygon class="cls-4" points="171.62 296.11 171.51 334.61 35.76 255.87 35.87 217.37 171.62 296.11"/></g><g class="cls-1"><polygon class="cls-2" points="201.06 235.92 171.62 253.03 35.87 174.3 65.32 157.19 201.06 235.92"/><polygon class="cls-3" points="201.06 235.92 200.95 274.42 171.51 291.54 171.62 253.03 201.06 235.92"/><polygon class="cls-4" points="171.62 253.03 171.51 291.54 35.76 212.8 35.87 174.3 171.62 253.03"/></g><g class="cls-1"><polygon class="cls-2" points="201.06 192.92 171.62 210.03 35.87 131.3 65.32 114.19 201.06 192.92"/><polygon class="cls-3" points="201.06 192.92 200.95 231.42 171.51 248.53 171.62 210.03 201.06 192.92"/><polygon class="cls-4" points="171.62 210.03 171.51 248.53 35.76 169.8 35.87 131.3 171.62 210.03"/></g><g class="cls-1"><polygon class="cls-2" points="201.06 148.92 171.62 166.03 35.87 87.3 65.32 70.19 201.06 148.92"/><polygon class="cls-3" points="201.06 148.92 200.95 187.42 171.51 204.53 171.62 166.03 201.06 148.92"/><polygon class="cls-4" points="171.62 166.03 171.51 204.53 35.76 125.8 35.87 87.3 171.62 166.03"/></g></g><g id="Calque_3" data-name="Calque 3"><text class="cls-5" transform="translate(27.39 201.86) rotate(-88.9)">P<tspan class="cls-6" x="11.84" y="0">r</tspan><tspan class="cls-7" x="19.23" y="0">o</tspan><tspan x="30.54" y="0">du</tspan><tspan class="cls-8" x="53.81" y="0">c</tspan><tspan x="64.33" y="0">t</tspan></text><path class="cls-9" d="M91.17,43.86c.48.72.21,1.4-.76,2-1.8,1-4.54.81-6.92-.56s-2.76-3-1-4a4.65,4.65,0,0,1,3.39-.45l-1.1-.64,2.26-1.31,7.48,4.31L92.28,44.5Zm-5.38.07a3.42,3.42,0,0,0,3.43.36c.88-.51.7-1.23-.62-2A3.43,3.43,0,0,0,85.17,42c-.89.52-.69,1.22.62,2"/><path class="cls-9" d="M100,40a6.69,6.69,0,0,1-1.07.76,4.7,4.7,0,0,1-4.74,0l-3.44-2-.94.55-1.77-1,1-.55-2.23-1.29L89,35.17l2.23,1.29,1.21-.7,1.76,1-1.2.7,2.82,1.63a1.68,1.68,0,0,0,1.84.12l.43-.28Z"/><path class="cls-9" d="M81.12,44.66c3.28,1.89,3.69,4.18.73,5.9L78.51,52.5,67.59,46.19l3.44-2A10.17,10.17,0,0,1,81.12,44.66Zm-2.26,5.27,1-.55c1.42-.83,1.18-1.94-1.16-3.29S74.4,44.61,73,45.43L72,46l6.84,4"/><path class="cls-9" d="M105,34.46c1.37,1,1.18,2.19-.66,3.26a7.31,7.31,0,0,1-7.53-.18c-2.52-1.45-2.69-3.06-.46-4.36a6.76,6.76,0,0,1,6.82.09c.26.15.68.42,1,.66l-4.57,2.66a3,3,0,0,0,3,.15c.65-.38.73-.73.35-1.09Zm-6.83,1.3,2.48-1.44a2.69,2.69,0,0,0-2.79-.25c-.82.48-.72,1.08.31,1.69"/><path class="cls-9" d="M74.75,288.43c2.29,1.33,2.26,2.7,0,4l-2.35-1.36c1-.61,1.1-1.15.38-1.56a2.08,2.08,0,0,0-2.1,0c-.7.4-.58.84-.19,1.56l.73,1.27c.68,1.27.39,2.15-1,3a6.87,6.87,0,0,1-6.78-.12c-2.38-1.37-2.48-2.91,0-4.32l2.4,1.39c-1.17.67-1.25,1.31-.41,1.79a2.27,2.27,0,0,0,2.28,0c.69-.39.71-.84.33-1.54l-.72-1.17c-.76-1.26-.56-2.23,1-3.11A6.68,6.68,0,0,1,74.75,288.43Z"/><path class="cls-9" d="M81.44,292.64,77,295.25a4.69,4.69,0,0,1,3.38.49c1.46.85,1.36,1.87-.48,2.94L75,301.5l-2.31-1.33,4.23-2.46c1-.6,1.19-1,.49-1.45s-1.67-.3-2.81.36l-4,2.33-2.28-1.31,10.85-6.31Z"/><path class="cls-9" d="M96.38,305c1.81,1.05,1.42,2.64-.93,4s-5.09,1.6-6.9.56c-1-.57-1.26-1.24-.8-2l-4.23,2.46-2.26-1.3,10.56-6.14,2.26,1.3-1.1.64A4.72,4.72,0,0,1,96.38,305Zm-6.64,3a3.34,3.34,0,0,0,3.4-.37c1.3-.75,1.5-1.45.62-2a3.44,3.44,0,0,0-3.44.33c-1.3.76-1.49,1.48-.58,2"/><path class="cls-9" d="M87.28,299.71c2.27,1.31,2.14,3-.27,4.41a7.64,7.64,0,0,1-7.61.17c-2.26-1.3-2.13-3,.27-4.41A7.69,7.69,0,0,1,87.28,299.71Zm-6,3.47a3.41,3.41,0,0,0,3.42-.37c1.31-.76,1.49-1.46.6-2a3.38,3.38,0,0,0-3.41.35c-1.32.77-1.5,1.47-.61,2"/></g></svg>