<svg xmlns="http://www.w3.org/2000/svg" viewBox="0 0 341.17 403.75"><defs><style>.cls-1{opacity:0.1;}.cls-2{isolation:isolate;}.cls-3,.cls-6{fill:#e27e80;}.cls-4,.cls-7{fill:#e6372d;}.cls-5,.cls-8{fill:#aa1d1a;}.cls-6,.cls-7,.cls-8{stroke:#fff;stroke-linecap:round;stroke-linejoin:round;stroke-width:2px;}.cls-9{font-size:22px;fill:#231f20;font-family:GTWalsheim-CondensedBold, GT Walsheim;font-weight:700;}.cls-10{letter-spacing:-0.01em;}.cls-11{letter-spacing:0.01em;}.cls-12{letter-spacing:0em;}.cls-13{fill:#1e1b1c;}</style></defs><title> Tranche pour un shop</title><g id="Calque_2" data-name="Calque 2"><g class="cls-1"><g class="cls-2"><polygon class="cls-3" points="209.72 58.48 69.7 139.88 40.06 122.76 180.08 41.37 209.72 58.48"/><polygon class="cls-4" points="209.69 58.37 209.42 226.94 69.44 308.45 69.7 139.88 209.69 58.37"/><polygon class="cls-5" points="69.7 139.88 69.59 308.21 39.95 291.1 40.06 122.76 69.7 139.88"/></g></g><g class="cls-1"><g class="cls-2"><polygon class="cls-3" points="244.72 79.48 104.7 160.88 75.06 143.76 215.08 62.37 244.72 79.48"/><polygon class="cls-4" points="244.69 79.37 244.42 247.94 104.44 329.45 104.7 160.88 244.69 79.37"/><polygon class="cls-5" points="104.7 160.88 104.59 329.21 74.95 312.1 75.06 143.76 104.7 160.88"/></g></g><polygon class="cls-6" points="282.72 101.48 142.7 182.88 113.06 165.76 253.08 84.37 282.72 101.48"/><polygon class="cls-7" points="282.69 101.37 282.42 269.94 142.44 351.45 142.7 182.88 282.69 101.37"/><polygon class="cls-8" points="142.7 182.88 142.59 351.21 112.95 334.1 113.06 165.76 142.7 182.88"/><g class="cls-1"><g class="cls-2"><polygon class="cls-3" points="321.72 119.48 181.7 200.88 152.06 183.76 292.08 102.37 321.72 119.48"/><polygon class="cls-4" points="321.69 119.37 321.42 287.94 181.44 369.45 181.7 200.88 321.69 119.37"/><polygon class="cls-5" points="181.7 200.88 181.59 369.21 151.95 352.1 152.06 183.76 181.7 200.88"/></g></g></g><g id="Calque_3" data-name="Calque 3"><text class="cls-9" transform="translate(30.46 237.94) rotate(-88.9)">P<tspan class="cls-10" x="11.84" y="0">r</tspan><tspan class="cls-11" x="19.23" y="0">o</tspan><tspan x="30.54" y="0">du</tspan><tspan class="cls-12" x="53.81" y="0">c</tspan><tspan x="64.33" y="0">t</tspan></text><path class="cls-13" d="M84.18,80.74c3.28,1.89,3.7,4.17.73,5.89l-3.33,1.94-10.93-6.3,3.45-2C77,78.59,80.84,78.81,84.18,80.74ZM81.93,86l.94-.55c1.43-.83,1.19-1.93-1.15-3.28s-4.26-1.49-5.69-.66l-.94.55L81.93,86"/><g class="cls-2"><path class="cls-13" d="M108.12,70.53c1.35,1,1.17,2.2-.67,3.27a7.31,7.31,0,0,1-7.53-.18c-2.52-1.45-2.7-3.07-.46-4.37a6.77,6.77,0,0,1,6.81.09c.27.16.68.42,1,.66l-4.58,2.66a3,3,0,0,0,3,.15c.65-.38.72-.73.35-1.09Zm-6.84,1.3,2.48-1.44a2.69,2.69,0,0,0-2.79-.24c-.82.47-.73,1.07.31,1.68"/><path class="cls-13" d="M94.24,79.93c.47.72.21,1.4-.77,2-1.79,1-4.54.81-6.91-.56s-2.76-3-1-4A4.59,4.59,0,0,1,89,76.89l-1.11-.64,2.27-1.31,7.47,4.31-2.26,1.32ZM88.86,80a3.39,3.39,0,0,0,3.42.35c.89-.51.7-1.23-.61-2A3.43,3.43,0,0,0,88.24,78c-.9.52-.69,1.22.62,2"/></g><path class="cls-13" d="M103,76.11a6.18,6.18,0,0,1-1.06.77,4.67,4.67,0,0,1-4.74,0l-3.44-2-1,.55-1.77-1,1-.55-2.22-1.29L92,71.25l2.23,1.28,1.21-.7,1.77,1L96,73.56l2.82,1.62a1.7,1.7,0,0,0,1.85.13c.12-.07.23-.16.43-.29Z"/><path class="cls-13" d="M108.68,345.7c1.8,1.05,1.41,2.64-.93,4s-5.1,1.6-6.91.56c-1-.57-1.26-1.24-.78-2l-4.24,2.46-2.26-1.3,10.56-6.14,2.26,1.3-1.1.64A4.67,4.67,0,0,1,108.68,345.7Zm-6.65,3a3.36,3.36,0,0,0,3.41-.37c1.3-.75,1.5-1.45.61-2a3.44,3.44,0,0,0-3.44.33c-1.3.76-1.48,1.48-.58,2"/><path class="cls-13" d="M99.58,340.41c2.26,1.31,2.13,3-.27,4.41a7.64,7.64,0,0,1-7.61.17c-2.27-1.31-2.14-3,.27-4.41A7.69,7.69,0,0,1,99.58,340.41Zm-6,3.47a3.4,3.4,0,0,0,3.42-.37c1.32-.76,1.5-1.47.62-2a3.4,3.4,0,0,0-3.42.36c-1.32.77-1.51,1.47-.62,2"/><path class="cls-13" d="M93.73,333.34l-4.48,2.6a4.73,4.73,0,0,1,3.38.5c1.47.85,1.36,1.87-.48,2.94l-4.86,2.82L85,340.86l4.23-2.45c1-.6,1.2-1,.5-1.45s-1.68-.31-2.82.35l-4,2.34-2.28-1.32L91.45,332Z"/><path class="cls-13" d="M87,329.13c2.29,1.33,2.27,2.7,0,4l-2.36-1.36c1-.61,1.1-1.15.38-1.56a2.08,2.08,0,0,0-2.1,0c-.69.4-.57.84-.19,1.55l.74,1.28c.67,1.27.38,2.14-1,3a6.89,6.89,0,0,1-6.78-.13c-2.37-1.37-2.47-2.9,0-4.31l2.4,1.38c-1.17.68-1.26,1.31-.41,1.8a2.29,2.29,0,0,0,2.28,0c.69-.4.72-.85.32-1.54L79.57,332c-.75-1.26-.56-2.23,1-3.11A6.66,6.66,0,0,1,87,329.13Z"/></g></svg>