<svg xmlns="http://www.w3.org/2000/svg" viewBox="0 0 346.91 409.12"><defs><style>.cls-1{opacity:0.1;}.cls-2{isolation:isolate;}.cls-3,.cls-6{fill:#e27e80;}.cls-4,.cls-7{fill:#e6372d;}.cls-5,.cls-8{fill:#aa1d1a;}.cls-6,.cls-7,.cls-8{stroke:#fff;stroke-linecap:round;stroke-linejoin:round;stroke-width:2px;}.cls-9{font-size:22px;fill:#231f20;font-family:GTWalsheim-CondensedBold, GT Walsheim;font-weight:700;}.cls-10{letter-spacing:-0.01em;}.cls-11{letter-spacing:0.01em;}.cls-12{letter-spacing:0em;}.cls-13{fill:#1e1b1c;}</style></defs><title>Pivot table + Filtre</title><g id="Calque_2" data-name="Calque 2"><g class="cls-1"><g class="cls-2"><polygon class="cls-3" points="217.32 185.17 187.87 202.28 158.23 185.17 187.68 168.06 217.32 185.17"/><polygon class="cls-4" points="217.32 185.17 217.21 223.67 187.76 240.78 187.87 202.28 217.32 185.17"/><polygon class="cls-5" points="187.87 202.28 187.76 240.78 158.12 223.67 158.23 185.17 187.87 202.28"/></g><g class="cls-2"><polygon class="cls-3" points="217.32 141.82 187.87 158.93 158.23 141.82 187.68 124.71 217.32 141.82"/><polygon class="cls-4" points="217.32 141.82 217.21 180.32 187.76 197.43 187.87 158.93 217.32 141.82"/><polygon class="cls-5" points="187.87 158.93 187.76 197.43 158.12 180.32 158.23 141.82 187.87 158.93"/></g><g class="cls-2"><polygon class="cls-3" points="217.32 98.47 187.87 115.58 158.23 98.47 187.68 81.36 217.32 98.47"/><polygon class="cls-4" points="217.32 98.47 217.21 136.97 187.76 154.08 187.87 115.58 217.32 98.47"/><polygon class="cls-5" points="187.87 115.58 187.76 154.08 158.12 136.97 158.23 98.47 187.87 115.58"/></g><g class="cls-2"><polygon class="cls-3" points="217.32 55.12 187.87 72.24 158.23 55.12 187.68 38.01 217.32 55.12"/><polygon class="cls-4" points="217.32 55.12 217.21 93.62 187.76 110.74 187.87 72.24 217.32 55.12"/><polygon class="cls-5" points="187.87 72.24 187.76 110.74 158.12 93.62 158.23 55.12 187.87 72.24"/></g><g class="cls-2"><polygon class="cls-3" points="180.47 206.84 151.02 223.95 121.39 206.84 150.83 189.73 180.47 206.84"/><polygon class="cls-4" points="180.47 206.84 180.36 245.34 150.91 262.45 151.02 223.95 180.47 206.84"/><polygon class="cls-5" points="151.02 223.95 150.91 262.45 121.28 245.34 121.39 206.84 151.02 223.95"/></g><g class="cls-2"><polygon class="cls-3" points="180.47 163.49 151.02 180.61 121.39 163.49 150.83 146.38 180.47 163.49"/><polygon class="cls-4" points="180.47 163.49 180.36 201.99 150.91 219.1 151.02 180.61 180.47 163.49"/><polygon class="cls-5" points="151.02 180.61 150.91 219.1 121.28 201.99 121.39 163.49 151.02 180.61"/></g><g class="cls-2"><polygon class="cls-3" points="180.47 120.14 151.02 137.26 121.39 120.15 150.83 103.03 180.47 120.14"/><polygon class="cls-4" points="180.47 120.14 180.36 158.65 150.91 175.76 151.02 137.26 180.47 120.14"/><polygon class="cls-5" points="151.02 137.26 150.91 175.76 121.28 158.65 121.39 120.15 151.02 137.26"/></g><g class="cls-2"><polygon class="cls-3" points="180.47 76.8 151.02 93.91 121.39 76.8 150.83 59.69 180.47 76.8"/><polygon class="cls-4" points="180.47 76.8 180.36 115.3 150.91 132.41 151.02 93.91 180.47 76.8"/><polygon class="cls-5" points="151.02 93.91 150.91 132.41 121.28 115.3 121.39 76.8 151.02 93.91"/></g><g class="cls-2"><polygon class="cls-3" points="143.63 227.79 114.18 244.91 84.54 227.79 113.99 210.68 143.63 227.79"/><polygon class="cls-4" points="143.63 227.79 143.52 266.29 114.07 283.4 114.18 244.91 143.63 227.79"/><polygon class="cls-5" points="114.18 244.91 114.07 283.4 84.43 266.29 84.54 227.79 114.18 244.91"/></g><g class="cls-2"><polygon class="cls-3" points="143.63 184.44 114.18 201.56 84.54 184.44 113.99 167.33 143.63 184.44"/><polygon class="cls-4" points="143.63 184.44 143.52 222.94 114.07 240.06 114.18 201.56 143.63 184.44"/><polygon class="cls-5" points="114.18 201.56 114.07 240.06 84.43 222.94 84.54 184.44 114.18 201.56"/></g><g class="cls-2"><polygon class="cls-3" points="143.63 141.1 114.18 158.21 84.54 141.1 113.99 123.98 143.63 141.1"/><polygon class="cls-4" points="143.63 141.1 143.52 179.6 114.07 196.71 114.18 158.21 143.63 141.1"/><polygon class="cls-5" points="114.18 158.21 114.07 196.71 84.43 179.6 84.54 141.1 114.18 158.21"/></g><g class="cls-2"><polygon class="cls-3" points="143.63 97.75 114.18 114.86 84.54 97.75 113.99 80.64 143.63 97.75"/><polygon class="cls-4" points="143.63 97.75 143.52 136.25 114.07 153.36 114.18 114.86 143.63 97.75"/><polygon class="cls-5" points="114.18 114.86 114.07 153.36 84.43 136.25 84.54 97.75 114.18 114.86"/></g><g class="cls-2"><polygon class="cls-3" points="106.78 249.47 77.33 266.58 47.69 249.47 77.14 232.35 106.78 249.47"/><polygon class="cls-4" points="106.78 249.47 106.67 287.97 77.22 305.08 77.33 266.58 106.78 249.47"/><polygon class="cls-5" points="77.33 266.58 77.22 305.08 47.59 287.97 47.69 249.47 77.33 266.58"/></g><g class="cls-2"><polygon class="cls-3" points="106.78 206.12 77.33 223.23 47.69 206.12 77.14 189.01 106.78 206.12"/><polygon class="cls-4" points="106.78 206.12 106.67 244.62 77.22 261.73 77.33 223.23 106.78 206.12"/><polygon class="cls-5" points="77.33 223.23 77.22 261.73 47.59 244.62 47.69 206.12 77.33 223.23"/></g><g class="cls-2"><polygon class="cls-3" points="106.78 162.77 77.33 179.88 47.69 162.77 77.14 145.66 106.78 162.77"/><polygon class="cls-4" points="106.78 162.77 106.67 201.27 77.22 218.38 77.33 179.88 106.78 162.77"/><polygon class="cls-5" points="77.33 179.88 77.22 218.38 47.59 201.27 47.69 162.77 77.33 179.88"/></g><g class="cls-2"><polygon class="cls-3" points="106.78 119.42 77.33 136.53 47.69 119.42 77.14 102.31 106.78 119.42"/><polygon class="cls-4" points="106.78 119.42 106.67 157.92 77.22 175.03 77.33 136.53 106.78 119.42"/><polygon class="cls-5" points="77.33 136.53 77.22 175.03 47.59 157.92 47.69 119.42 77.33 136.53"/></g></g><g class="cls-1"><g class="cls-2"><polygon class="cls-3" points="252.72 206.12 223.27 223.23 193.63 206.12 223.08 189.01 252.72 206.12"/><polygon class="cls-4" points="252.72 206.12 252.61 244.62 223.16 261.73 223.27 223.23 252.72 206.12"/><polygon class="cls-5" points="223.27 223.23 223.16 261.73 193.52 244.62 193.63 206.12 223.27 223.23"/></g><g class="cls-2"><polygon class="cls-3" points="252.72 162.77 223.27 179.88 193.63 162.77 223.08 145.66 252.72 162.77"/><polygon class="cls-4" points="252.72 162.77 252.61 201.27 223.16 218.38 223.27 179.88 252.72 162.77"/><polygon class="cls-5" points="223.27 179.88 223.16 218.38 193.52 201.27 193.63 162.77 223.27 179.88"/></g><g class="cls-2"><polygon class="cls-3" points="252.72 119.42 223.27 136.53 193.63 119.42 223.08 102.31 252.72 119.42"/><polygon class="cls-4" points="252.72 119.42 252.61 157.92 223.16 175.03 223.27 136.53 252.72 119.42"/><polygon class="cls-5" points="223.27 136.53 223.16 175.03 193.52 157.92 193.63 119.42 223.27 136.53"/></g><g class="cls-2"><polygon class="cls-3" points="252.72 76.08 223.27 93.19 193.63 76.08 223.08 58.96 252.72 76.08"/><polygon class="cls-4" points="252.72 76.08 252.61 114.57 223.16 131.69 223.27 93.19 252.72 76.08"/><polygon class="cls-5" points="223.27 93.19 223.16 131.69 193.52 114.58 193.63 76.08 223.27 93.19"/></g><g class="cls-2"><polygon class="cls-3" points="215.87 227.79 186.43 244.91 156.79 227.79 186.23 210.68 215.87 227.79"/><polygon class="cls-4" points="215.87 227.79 215.76 266.29 186.32 283.4 186.43 244.91 215.87 227.79"/><polygon class="cls-5" points="186.43 244.91 186.32 283.4 156.68 266.29 156.79 227.79 186.43 244.91"/></g><g class="cls-2"><polygon class="cls-3" points="215.87 184.44 186.43 201.56 156.79 184.44 186.23 167.33 215.87 184.44"/><polygon class="cls-4" points="215.87 184.44 215.76 222.94 186.32 240.06 186.43 201.56 215.87 184.44"/><polygon class="cls-5" points="186.43 201.56 186.32 240.06 156.68 222.94 156.79 184.44 186.43 201.56"/></g><g class="cls-2"><polygon class="cls-3" points="215.87 141.1 186.43 158.21 156.79 141.1 186.23 123.98 215.87 141.1"/><polygon class="cls-4" points="215.87 141.1 215.76 179.6 186.32 196.71 186.43 158.21 215.87 141.1"/><polygon class="cls-5" points="186.43 158.21 186.32 196.71 156.68 179.6 156.79 141.1 186.43 158.21"/></g><g class="cls-2"><polygon class="cls-3" points="215.87 97.75 186.43 114.86 156.79 97.75 186.23 80.64 215.87 97.75"/><polygon class="cls-4" points="215.87 97.75 215.76 136.25 186.32 153.36 186.43 114.86 215.87 97.75"/><polygon class="cls-5" points="186.43 114.86 186.32 153.36 156.68 136.25 156.79 97.75 186.43 114.86"/></g><g class="cls-2"><polygon class="cls-3" points="179.03 248.74 149.58 265.86 119.94 248.75 149.39 231.63 179.03 248.74"/><polygon class="cls-4" points="179.03 248.74 178.92 287.24 149.47 304.36 149.58 265.86 179.03 248.74"/><polygon class="cls-5" points="149.58 265.86 149.47 304.36 119.83 287.24 119.94 248.75 149.58 265.86"/></g><g class="cls-2"><polygon class="cls-3" points="179.03 205.4 149.58 222.51 119.94 205.4 149.39 188.28 179.03 205.4"/><polygon class="cls-4" points="179.03 205.4 178.92 243.9 149.47 261.01 149.58 222.51 179.03 205.4"/><polygon class="cls-5" points="149.58 222.51 149.47 261.01 119.83 243.9 119.94 205.4 149.58 222.51"/></g><g class="cls-2"><polygon class="cls-3" points="179.03 162.05 149.58 179.16 119.94 162.05 149.39 144.94 179.03 162.05"/><polygon class="cls-4" points="179.03 162.05 178.92 200.55 149.47 217.66 149.58 179.16 179.03 162.05"/><polygon class="cls-5" points="149.58 179.16 149.47 217.66 119.83 200.55 119.94 162.05 149.58 179.16"/></g><g class="cls-2"><polygon class="cls-3" points="179.03 118.7 149.58 135.81 119.94 118.7 149.39 101.59 179.03 118.7"/><polygon class="cls-4" points="179.03 118.7 178.92 157.2 149.47 174.31 149.58 135.81 179.03 118.7"/><polygon class="cls-5" points="149.58 135.81 149.47 174.31 119.83 157.2 119.94 118.7 149.58 135.81"/></g><g class="cls-2"><polygon class="cls-3" points="142.18 270.42 112.73 287.53 83.09 270.42 112.54 253.31 142.18 270.42"/><polygon class="cls-4" points="142.18 270.42 142.07 308.92 112.62 326.03 112.73 287.53 142.18 270.42"/><polygon class="cls-5" points="112.73 287.53 112.62 326.03 82.99 308.92 83.09 270.42 112.73 287.53"/></g><g class="cls-2"><polygon class="cls-3" points="142.18 227.07 112.73 244.18 83.09 227.07 112.54 209.96 142.18 227.07"/><polygon class="cls-4" points="142.18 227.07 142.07 265.57 112.62 282.68 112.73 244.18 142.18 227.07"/><polygon class="cls-5" points="112.73 244.18 112.62 282.68 82.99 265.57 83.09 227.07 112.73 244.18"/></g><g class="cls-2"><polygon class="cls-3" points="142.18 183.72 112.73 200.84 83.09 183.72 112.54 166.61 142.18 183.72"/><polygon class="cls-4" points="142.18 183.72 142.07 222.22 112.62 239.33 112.73 200.84 142.18 183.72"/><polygon class="cls-5" points="112.73 200.84 112.62 239.33 82.99 222.22 83.09 183.72 112.73 200.84"/></g><g class="cls-2"><polygon class="cls-3" points="142.18 140.37 112.73 157.49 83.09 140.38 112.54 123.26 142.18 140.37"/><polygon class="cls-4" points="142.18 140.37 142.07 178.87 112.62 195.99 112.73 157.49 142.18 140.37"/><polygon class="cls-5" points="112.73 157.49 112.62 195.99 82.99 178.88 83.09 140.38 112.73 157.49"/></g></g><g class="cls-2"><polygon class="cls-6" points="290.12 228.63 260.67 245.74 231.03 228.63 260.48 211.51 290.12 228.63"/><polygon class="cls-7" points="290.12 228.63 290.01 267.13 260.56 284.24 260.67 245.74 290.12 228.63"/><polygon class="cls-8" points="260.67 245.74 260.56 284.24 230.92 267.13 231.03 228.63 260.67 245.74"/></g><g class="cls-2"><polygon class="cls-6" points="290.12 185.28 260.67 202.39 231.03 185.28 260.48 168.16 290.12 185.28"/><polygon class="cls-7" points="290.12 185.28 290.01 223.78 260.56 240.89 260.67 202.39 290.12 185.28"/><polygon class="cls-8" points="260.67 202.39 260.56 240.89 230.92 223.78 231.03 185.28 260.67 202.39"/></g><g class="cls-2"><polygon class="cls-6" points="290.12 141.93 260.67 159.04 231.03 141.93 260.48 124.82 290.12 141.93"/><polygon class="cls-7" points="290.12 141.93 290.01 180.43 260.56 197.54 260.67 159.04 290.12 141.93"/><polygon class="cls-8" points="260.67 159.04 260.56 197.54 230.92 180.43 231.03 141.93 260.67 159.04"/></g><g class="cls-2"><polygon class="cls-6" points="290.12 98.58 260.67 115.69 231.03 98.58 260.48 81.47 290.12 98.58"/><polygon class="cls-7" points="290.12 98.58 290.01 137.08 260.56 154.19 260.67 115.69 290.12 98.58"/><polygon class="cls-8" points="260.67 115.69 260.56 154.19 230.92 137.08 231.03 98.58 260.67 115.69"/></g><g class="cls-2"><polygon class="cls-6" points="253.27 250.3 223.83 267.41 194.19 250.3 223.63 233.19 253.27 250.3"/><polygon class="cls-7" points="253.27 250.3 253.16 288.8 223.72 305.91 223.83 267.41 253.27 250.3"/><polygon class="cls-8" points="223.83 267.41 223.72 305.91 194.08 288.8 194.19 250.3 223.83 267.41"/></g><g class="cls-2"><polygon class="cls-6" points="253.27 206.95 223.83 224.06 194.19 206.95 223.63 189.84 253.27 206.95"/><polygon class="cls-7" points="253.27 206.95 253.16 245.45 223.72 262.56 223.83 224.06 253.27 206.95"/><polygon class="cls-8" points="223.83 224.06 223.72 262.56 194.08 245.45 194.19 206.95 223.83 224.06"/></g><g class="cls-2"><polygon class="cls-6" points="253.27 163.6 223.83 180.72 194.19 163.6 223.63 146.49 253.27 163.6"/><polygon class="cls-7" points="253.27 163.6 253.16 202.1 223.72 219.22 223.83 180.72 253.27 163.6"/><polygon class="cls-8" points="223.83 180.72 223.72 219.22 194.08 202.1 194.19 163.6 223.83 180.72"/></g><g class="cls-2"><polygon class="cls-6" points="253.27 120.25 223.83 137.37 194.19 120.26 223.63 103.14 253.27 120.25"/><polygon class="cls-7" points="253.27 120.25 253.16 158.75 223.72 175.87 223.83 137.37 253.27 120.25"/><polygon class="cls-8" points="223.83 137.37 223.72 175.87 194.08 158.76 194.19 120.26 223.83 137.37"/></g><g class="cls-2"><polygon class="cls-6" points="216.43 271.25 186.98 288.36 157.34 271.25 186.79 254.14 216.43 271.25"/><polygon class="cls-7" points="216.43 271.25 216.32 309.75 186.87 326.86 186.98 288.36 216.43 271.25"/><polygon class="cls-8" points="186.98 288.36 186.87 326.86 157.23 309.75 157.34 271.25 186.98 288.36"/></g><g class="cls-2"><polygon class="cls-6" points="216.43 227.9 186.98 245.01 157.34 227.9 186.79 210.79 216.43 227.9"/><polygon class="cls-7" points="216.43 227.9 216.32 266.4 186.87 283.51 186.98 245.01 216.43 227.9"/><polygon class="cls-8" points="186.98 245.01 186.87 283.51 157.23 266.4 157.34 227.9 186.98 245.01"/></g><g class="cls-2"><polygon class="cls-6" points="216.43 184.56 186.98 201.67 157.34 184.56 186.79 167.44 216.43 184.56"/><polygon class="cls-7" points="216.43 184.56 216.32 223.05 186.87 240.17 186.98 201.67 216.43 184.56"/><polygon class="cls-8" points="186.98 201.67 186.87 240.17 157.23 223.06 157.34 184.56 186.98 201.67"/></g><g class="cls-2"><polygon class="cls-6" points="216.43 141.21 186.98 158.32 157.34 141.21 186.79 124.09 216.43 141.21"/><polygon class="cls-7" points="216.43 141.21 216.32 179.71 186.87 196.82 186.98 158.32 216.43 141.21"/><polygon class="cls-8" points="186.98 158.32 186.87 196.82 157.23 179.71 157.34 141.21 186.98 158.32"/></g><g class="cls-2"><polygon class="cls-6" points="179.58 292.92 150.13 310.04 120.5 292.93 149.94 275.81 179.58 292.92"/><polygon class="cls-7" points="179.58 292.92 179.47 331.42 150.03 348.54 150.13 310.04 179.58 292.92"/><polygon class="cls-8" points="150.13 310.04 150.03 348.54 120.39 331.43 120.5 292.93 150.13 310.04"/></g><g class="cls-2"><polygon class="cls-6" points="179.58 249.58 150.13 266.69 120.5 249.58 149.94 232.47 179.58 249.58"/><polygon class="cls-7" points="179.58 249.58 179.47 288.08 150.03 305.19 150.13 266.69 179.58 249.58"/><polygon class="cls-8" points="150.13 266.69 150.03 305.19 120.39 288.08 120.5 249.58 150.13 266.69"/></g><g class="cls-2"><polygon class="cls-6" points="179.58 206.23 150.13 223.34 120.5 206.23 149.94 189.12 179.58 206.23"/><polygon class="cls-7" points="179.58 206.23 179.47 244.73 150.03 261.84 150.13 223.34 179.58 206.23"/><polygon class="cls-8" points="150.13 223.34 150.03 261.84 120.39 244.73 120.5 206.23 150.13 223.34"/></g><g class="cls-2"><polygon class="cls-6" points="179.58 162.88 150.13 179.99 120.5 162.88 149.94 145.77 179.58 162.88"/><polygon class="cls-7" points="179.58 162.88 179.47 201.38 150.03 218.49 150.13 179.99 179.58 162.88"/><polygon class="cls-8" points="150.13 179.99 150.03 218.49 120.39 201.38 120.5 162.88 150.13 179.99"/></g><g class="cls-1"><g class="cls-2"><polygon class="cls-3" points="325.52 246.58 296.07 263.69 266.43 246.58 295.88 229.47 325.52 246.58"/><polygon class="cls-4" points="325.52 246.58 325.41 285.08 295.96 302.19 296.07 263.69 325.52 246.58"/><polygon class="cls-5" points="296.07 263.69 295.96 302.19 266.32 285.08 266.43 246.58 296.07 263.69"/></g><g class="cls-2"><polygon class="cls-3" points="325.52 203.23 296.07 220.34 266.43 203.23 295.88 186.12 325.52 203.23"/><polygon class="cls-4" points="325.52 203.23 325.41 241.73 295.96 258.84 296.07 220.34 325.52 203.23"/><polygon class="cls-5" points="296.07 220.34 295.96 258.84 266.32 241.73 266.43 203.23 296.07 220.34"/></g><g class="cls-2"><polygon class="cls-3" points="325.52 159.88 296.07 176.99 266.43 159.88 295.88 142.77 325.52 159.88"/><polygon class="cls-4" points="325.52 159.88 325.41 198.38 295.96 215.49 296.07 176.99 325.52 159.88"/><polygon class="cls-5" points="296.07 176.99 295.96 215.49 266.32 198.38 266.43 159.88 296.07 176.99"/></g><g class="cls-2"><polygon class="cls-3" points="325.52 116.53 296.07 133.65 266.43 116.53 295.88 99.42 325.52 116.53"/><polygon class="cls-4" points="325.52 116.53 325.41 155.03 295.96 172.15 296.07 133.65 325.52 116.53"/><polygon class="cls-5" points="296.07 133.65 295.96 172.15 266.32 155.03 266.43 116.53 296.07 133.65"/></g><g class="cls-2"><polygon class="cls-3" points="288.67 268.25 259.23 285.36 229.59 268.25 259.04 251.14 288.67 268.25"/><polygon class="cls-4" points="288.67 268.25 288.56 306.75 259.12 323.86 259.23 285.36 288.67 268.25"/><polygon class="cls-5" points="259.23 285.36 259.12 323.86 229.48 306.75 229.59 268.25 259.23 285.36"/></g><g class="cls-2"><polygon class="cls-3" points="288.67 224.9 259.23 242.01 229.59 224.9 259.04 207.79 288.67 224.9"/><polygon class="cls-4" points="288.67 224.9 288.56 263.4 259.12 280.51 259.23 242.01 288.67 224.9"/><polygon class="cls-5" points="259.23 242.01 259.12 280.51 229.48 263.4 229.59 224.9 259.23 242.01"/></g><g class="cls-2"><polygon class="cls-3" points="288.67 181.56 259.23 198.67 229.59 181.56 259.04 164.44 288.67 181.56"/><polygon class="cls-4" points="288.67 181.56 288.56 220.05 259.12 237.17 259.23 198.67 288.67 181.56"/><polygon class="cls-5" points="259.23 198.67 259.12 237.17 229.48 220.06 229.59 181.56 259.23 198.67"/></g><g class="cls-2"><polygon class="cls-3" points="288.67 138.21 259.23 155.32 229.59 138.21 259.04 121.09 288.67 138.21"/><polygon class="cls-4" points="288.67 138.21 288.56 176.71 259.12 193.82 259.23 155.32 288.67 138.21"/><polygon class="cls-5" points="259.23 155.32 259.12 193.82 229.48 176.71 229.59 138.21 259.23 155.32"/></g><g class="cls-2"><polygon class="cls-3" points="251.83 289.2 222.38 306.31 192.74 289.2 222.19 272.09 251.83 289.2"/><polygon class="cls-4" points="251.83 289.2 251.72 327.7 222.27 344.81 222.38 306.31 251.83 289.2"/><polygon class="cls-5" points="222.38 306.31 222.27 344.81 192.63 327.7 192.74 289.2 222.38 306.31"/></g><g class="cls-2"><polygon class="cls-3" points="251.83 245.85 222.38 262.97 192.74 245.85 222.19 228.74 251.83 245.85"/><polygon class="cls-4" points="251.83 245.85 251.72 284.35 222.27 301.47 222.38 262.97 251.83 245.85"/><polygon class="cls-5" points="222.38 262.97 222.27 301.47 192.63 284.36 192.74 245.85 222.38 262.97"/></g><g class="cls-2"><polygon class="cls-3" points="251.83 202.51 222.38 219.62 192.74 202.51 222.19 185.39 251.83 202.51"/><polygon class="cls-4" points="251.83 202.51 251.72 241.01 222.27 258.12 222.38 219.62 251.83 202.51"/><polygon class="cls-5" points="222.38 219.62 222.27 258.12 192.63 241.01 192.74 202.51 222.38 219.62"/></g><g class="cls-2"><polygon class="cls-3" points="251.83 159.16 222.38 176.27 192.74 159.16 222.19 142.05 251.83 159.16"/><polygon class="cls-4" points="251.83 159.16 251.72 197.66 222.27 214.77 222.38 176.27 251.83 159.16"/><polygon class="cls-5" points="222.38 176.27 222.27 214.77 192.63 197.66 192.74 159.16 222.38 176.27"/></g><g class="cls-2"><polygon class="cls-3" points="214.98 310.88 185.53 327.99 155.9 310.88 185.34 293.76 214.98 310.88"/><polygon class="cls-4" points="214.98 310.88 214.87 349.38 185.43 366.49 185.53 327.99 214.98 310.88"/><polygon class="cls-5" points="185.53 327.99 185.43 366.49 155.79 349.38 155.9 310.88 185.53 327.99"/></g><g class="cls-2"><polygon class="cls-3" points="214.98 267.53 185.53 284.64 155.9 267.53 185.34 250.42 214.98 267.53"/><polygon class="cls-4" points="214.98 267.53 214.87 306.03 185.43 323.14 185.53 284.64 214.98 267.53"/><polygon class="cls-5" points="185.53 284.64 185.43 323.14 155.79 306.03 155.9 267.53 185.53 284.64"/></g><g class="cls-2"><polygon class="cls-3" points="214.98 224.18 185.53 241.29 155.9 224.18 185.34 207.07 214.98 224.18"/><polygon class="cls-4" points="214.98 224.18 214.87 262.68 185.43 279.79 185.53 241.29 214.98 224.18"/><polygon class="cls-5" points="185.53 241.29 185.43 279.79 155.79 262.68 155.9 224.18 185.53 241.29"/></g><g class="cls-2"><polygon class="cls-3" points="214.98 180.83 185.53 197.94 155.9 180.83 185.34 163.72 214.98 180.83"/><polygon class="cls-4" points="214.98 180.83 214.87 219.33 185.43 236.44 185.53 197.94 214.98 180.83"/><polygon class="cls-5" points="185.53 197.94 185.43 236.44 155.79 219.33 155.9 180.83 185.53 197.94"/></g></g></g><g id="Calque_3" data-name="Calque 3"><text class="cls-9" transform="translate(38.47 234.86) rotate(-88.9)">P<tspan class="cls-10" x="11.84" y="0">r</tspan><tspan class="cls-11" x="19.23" y="0">o</tspan><tspan x="30.54" y="0">du</tspan><tspan class="cls-12" x="53.81" y="0">c</tspan><tspan x="64.33" y="0">t</tspan></text><path class="cls-13" d="M102.26,76.86c.47.72.21,1.4-.77,2-1.8,1-4.53.8-6.91-.57s-2.77-2.94-1-4a4.67,4.67,0,0,1,3.4-.45l-1.11-.64,2.26-1.31,7.48,4.31-2.26,1.32Zm-5.39.07a3.42,3.42,0,0,0,3.43.36c.89-.51.7-1.23-.62-2A3.41,3.41,0,0,0,96.26,75c-.9.52-.7,1.22.61,2"/><path class="cls-13" d="M116.13,67.46c1.36,1,1.17,2.19-.67,3.26a7.31,7.31,0,0,1-7.53-.18c-2.51-1.45-2.69-3.06-.46-4.36a6.76,6.76,0,0,1,6.82.09c.26.15.68.42,1,.66l-4.57,2.66a3,3,0,0,0,3,.15c.65-.38.73-.73.35-1.09Zm-6.84,1.3,2.48-1.44a2.69,2.69,0,0,0-2.79-.25c-.81.48-.72,1.08.31,1.69"/><path class="cls-13" d="M111,73a6.58,6.58,0,0,1-1.06.76,4.69,4.69,0,0,1-4.75,0l-3.44-2-.94.55-1.76-1,.94-.55L97.8,69.48l2.26-1.31,2.24,1.29,1.2-.7,1.76,1-1.2.7,2.83,1.63a1.67,1.67,0,0,0,1.83.12l.43-.28Z"/><path class="cls-13" d="M92.2,77.66c3.28,1.89,3.69,4.18.73,5.9L89.6,85.5,78.67,79.19l3.45-2C85,75.52,88.86,75.73,92.2,77.66Zm-2.26,5.27,1-.55c1.43-.83,1.18-1.94-1.16-3.29s-4.25-1.48-5.68-.66l-.94.55,6.83,4"/><path class="cls-13" d="M100.58,330c2.3,1.32,2.28,2.7.06,4l-2.36-1.36c1-.61,1.1-1.15.38-1.56a2.08,2.08,0,0,0-2.1,0c-.7.41-.57.84-.19,1.56l.74,1.28c.68,1.26.38,2.14-1,3a6.91,6.91,0,0,1-6.79-.13c-2.37-1.37-2.48-2.9,0-4.31l2.41,1.39c-1.17.67-1.26,1.3-.41,1.79a2.32,2.32,0,0,0,2.28,0c.68-.4.71-.85.32-1.54l-.72-1.17c-.76-1.27-.56-2.23,1-3.11A6.6,6.6,0,0,1,100.58,330Z"/><path class="cls-13" d="M113.12,341.27c2.27,1.31,2.14,3-.27,4.41a7.64,7.64,0,0,1-7.61.17c-2.26-1.31-2.13-3,.28-4.41A7.67,7.67,0,0,1,113.12,341.27Zm-6,3.46a3.39,3.39,0,0,0,3.43-.36c1.32-.77,1.5-1.47.61-2a3.4,3.4,0,0,0-3.42.36c-1.32.77-1.5,1.47-.62,2"/><path class="cls-13" d="M107.28,334.2l-4.48,2.6a4.75,4.75,0,0,1,3.38.5c1.46.85,1.37,1.86-.48,2.94l-4.86,2.82-2.31-1.34,4.24-2.46c1-.59,1.19-1,.49-1.44a2.69,2.69,0,0,0-2.81.35l-4,2.34-2.28-1.32L105,332.88Z"/><path class="cls-13" d="M122.22,346.56c1.81,1.05,1.41,2.63-.93,4s-5.08,1.61-6.9.56c-1-.57-1.27-1.23-.79-2l-4.23,2.46-2.26-1.31,10.55-6.14,2.27,1.31-1.1.64A4.59,4.59,0,0,1,122.22,346.56Zm-6.64,3a3.39,3.39,0,0,0,3.41-.37c1.3-.75,1.49-1.45.6-2a3.4,3.4,0,0,0-3.43.33c-1.3.75-1.49,1.48-.58,2"/></g></svg>