<svg xmlns="http://www.w3.org/2000/svg" viewBox="0 0 315.65 345.48"><defs><style>.cls-1{isolation:isolate;}.cls-2{fill:#e27e80;}.cls-2,.cls-3,.cls-4{stroke:#fff;stroke-linecap:round;stroke-linejoin:round;stroke-width:2px;}.cls-3{fill:#e6372d;}.cls-4{fill:#aa1d1a;}.cls-5{font-size:22px;fill:#231f20;font-family:GTWalsheim-CondensedBold, GT Walsheim;font-weight:700;}.cls-6{letter-spacing:-0.01em;}.cls-7{letter-spacing:0.01em;}.cls-8{letter-spacing:0em;}.cls-9{fill:#1e1b1c;}</style></defs><title> Tranche par shop</title><g id="Calque_2" data-name="Calque 2"><g class="cls-1"><polygon class="cls-2" points="198.83 25.74 58.8 107.13 29.17 90.02 169.19 8.63 198.83 25.74"/><polygon class="cls-3" points="198.79 25.63 198.53 194.2 58.54 275.7 58.8 107.13 198.79 25.63"/><polygon class="cls-4" points="58.8 107.13 58.7 275.46 29.06 258.35 29.17 90.02 58.8 107.13"/></g><g class="cls-1"><polygon class="cls-2" points="233.83 46.74 93.8 128.13 64.17 111.02 204.19 29.63 233.83 46.74"/><polygon class="cls-3" points="233.79 46.63 233.53 215.2 93.54 296.7 93.8 128.13 233.79 46.63"/><polygon class="cls-4" points="93.8 128.13 93.69 296.46 64.06 279.35 64.17 111.02 93.8 128.13"/></g><g class="cls-1"><polygon class="cls-2" points="269.83 66.74 129.8 148.13 100.17 131.02 240.19 49.63 269.83 66.74"/><polygon class="cls-3" points="269.79 66.63 269.53 235.2 129.54 316.7 129.8 148.13 269.79 66.63"/><polygon class="cls-4" points="129.8 148.13 129.69 316.46 100.06 299.35 100.17 131.02 129.8 148.13"/></g><g class="cls-1"><polygon class="cls-2" points="304.83 87.74 164.8 169.13 135.17 152.02 275.19 70.63 304.83 87.74"/><polygon class="cls-3" points="304.79 87.63 304.53 256.2 164.54 337.7 164.8 169.13 304.79 87.63"/><polygon class="cls-4" points="164.8 169.13 164.69 337.46 135.06 320.35 135.17 152.02 164.8 169.13"/></g></g><g id="Calque_3" data-name="Calque 3"><text class="cls-5" transform="translate(21.48 210.86) rotate(-88.9)">P<tspan class="cls-6" x="11.84" y="0">r</tspan><tspan class="cls-7" x="19.23" y="0">o</tspan><tspan x="30.54" y="0">du</tspan><tspan class="cls-8" x="53.81" y="0">c</tspan><tspan x="64.33" y="0">t</tspan></text><g class="cls-1"><path class="cls-9" d="M95.73,40.06c1.36,1,1.18,2.19-.67,3.26a7.31,7.31,0,0,1-7.53-.18c-2.51-1.45-2.7-3.06-.46-4.36a6.76,6.76,0,0,1,6.82.09,10.67,10.67,0,0,1,1,.66l-4.58,2.65a3,3,0,0,0,3,.16c.65-.38.73-.73.36-1.09ZM88.9,41.35l2.48-1.44a2.71,2.71,0,0,0-2.79-.24c-.83.48-.73,1.07.31,1.68"/><path class="cls-9" d="M90.64,45.63a6.28,6.28,0,0,1-1.07.77,4.67,4.67,0,0,1-4.74,0l-3.44-2-.94.55-1.77-1,.95-.55-2.24-1.29,2.27-1.31,2.23,1.29,1.21-.71,1.77,1-1.22.71,2.83,1.63a1.68,1.68,0,0,0,1.84.12,4.66,4.66,0,0,0,.43-.29Z"/><path class="cls-9" d="M81.86,49.46c.47.72.21,1.39-.77,2-1.79,1-4.54.81-6.91-.56s-2.77-3-1-4a4.58,4.58,0,0,1,3.39-.45l-1.11-.64,2.27-1.32,7.47,4.32L83,50.09Zm-5.39.07a3.42,3.42,0,0,0,3.43.36c.88-.51.7-1.24-.62-2a3.43,3.43,0,0,0-3.42-.33c-.9.52-.69,1.21.61,2"/><path class="cls-9" d="M71.79,50.26c3.29,1.89,3.71,4.18.74,5.9L69.2,58.1,58.27,51.79l3.45-2C64.6,48.11,68.46,48.33,71.79,50.26Zm-2.24,5.27.94-.55c1.43-.83,1.19-1.94-1.16-3.29S65.08,50.2,63.65,51l-.94.55,6.84,4"/></g><path class="cls-9" d="M76.06,299.55c2.3,1.32,2.27,2.69,0,4l-2.35-1.36c1-.61,1.1-1.15.38-1.57a2.1,2.1,0,0,0-2.1,0c-.7.4-.57.84-.19,1.56l.73,1.27c.68,1.27.39,2.14-1,3a6.94,6.94,0,0,1-6.79-.12c-2.37-1.37-2.47-2.91,0-4.32l2.4,1.39c-1.16.67-1.25,1.3-.4,1.79a2.27,2.27,0,0,0,2.28,0c.69-.4.71-.85.32-1.54l-.72-1.17c-.75-1.26-.56-2.23,1-3.11A6.63,6.63,0,0,1,76.06,299.55Z"/><path class="cls-9" d="M88.6,310.83c2.27,1.3,2.14,3-.27,4.4a7.64,7.64,0,0,1-7.61.17c-2.26-1.3-2.13-3,.28-4.4A7.62,7.62,0,0,1,88.6,310.83Zm-5.95,3.46a3.42,3.42,0,0,0,3.42-.36c1.32-.77,1.5-1.48.61-2a3.42,3.42,0,0,0-3.42.36c-1.32.77-1.5,1.47-.61,2"/><path class="cls-9" d="M82.76,303.75l-4.48,2.61a4.69,4.69,0,0,1,3.38.49c1.46.85,1.37,1.87-.48,2.94l-4.85,2.82L74,311.28l4.23-2.46c1-.6,1.19-1,.49-1.45s-1.68-.3-2.81.36l-4,2.33-2.28-1.32,10.86-6.3Z"/><path class="cls-9" d="M97.7,316.12c1.81,1,1.41,2.63-.93,4s-5.08,1.6-6.9.55c-1-.56-1.26-1.23-.79-2l-4.23,2.46-2.26-1.31,10.56-6.13,2.26,1.3-1.1.64A4.64,4.64,0,0,1,97.7,316.12Zm-6.64,3a3.37,3.37,0,0,0,3.4-.38c1.31-.76,1.51-1.45.62-2a3.44,3.44,0,0,0-3.44.33c-1.3.76-1.49,1.48-.58,2"/></g></svg>