
<svg id="local-desk" viewBox="0 0 309 193" version="1.1" xmlns="http://www.w3.org/2000/svg" xmlns:xlink="http://www.w3.org/1999/xlink">
    <defs>
        <linearGradient x1="50%" y1="0%" x2="50%" y2="100%" id="hero-local-gradient1">
            <stop stop-color="#E9F3F5" offset="0%"></stop>
            <stop stop-color="#FFFFFF" offset="100%"></stop>
        </linearGradient>
        <path d="M0,60.6853146 L0,5.46615516 C7.52907669e-16,4.36158566 0.8954305,3.46615516 2,3.46615516 C2.35142137,3.46615516 2.69663906,3.5587509 3.00088868,3.73461774 L84.5206507,50.8558675 C85.7471185,51.5648084 86.5071277,52.8695812 86.518739,54.2861565 L86.9714018,109.511017 C86.9804553,110.615549 86.0923942,111.518289 84.9878619,111.527342 C84.6325837,111.530255 84.2829426,111.438473 83.9749012,111.261437 L2.0068645,64.1533704 C0.765393332,63.4398812 -2.36819654e-15,62.1172076 0,60.6853146 Z" id="local-path-2"></path>
        <filter x="-4.6%" y="-2.3%" width="118.4%" height="111.8%" filterUnits="objectBoundingBox" id="local-filter-3">
            <feOffset dx="4" dy="4" in="SourceAlpha" result="shadowOffsetOuter1"></feOffset>
            <feGaussianBlur stdDeviation="2" in="shadowOffsetOuter1" result="shadowBlurOuter1"></feGaussianBlur>
            <feColorMatrix values="0 0 0 0 0   0 0 0 0 0   0 0 0 0 0  0 0 0 0.1 0" type="matrix" in="shadowBlurOuter1"></feColorMatrix>
        </filter>
        <linearGradient x1="50%" y1="0%" x2="50%" y2="100%" id="hero-local-gradient4">
            <stop stop-color="#E9F3F5" offset="0%"></stop>
            <stop stop-color="#FFFFFF" offset="100%"></stop>
        </linearGradient>
        <path d="M30,36.6986679 L30,5.49683329 C30,4.39226379 30.8954305,3.49683329 32,3.49683329 C32.3565856,3.49683329 32.706687,3.5921688 33.0140403,3.77296485 L70.5588761,25.8581624 C71.7640194,26.5670702 72.5115377,27.853793 72.5304304,29.2518501 L72.952285,60.4690929 C72.9672103,61.5735615 72.0839608,62.4810096 70.9794922,62.4959348 C70.6172272,62.5008303 70.260436,62.4072302 69.9472267,62.2251318 L31.9895182,40.1566966 C30.7578242,39.4405955 30,38.1234032 30,36.6986679 Z" id="local-path-5"></path>
        <filter x="-9.3%" y="-4.0%" width="137.1%" height="121.0%" filterUnits="objectBoundingBox" id="local-filter-6">
            <feOffset dx="4" dy="4" in="SourceAlpha" result="shadowOffsetOuter1"></feOffset>
            <feGaussianBlur stdDeviation="2" in="shadowOffsetOuter1" result="shadowBlurOuter1"></feGaussianBlur>
            <feColorMatrix values="0 0 0 0 0   0 0 0 0 0   0 0 0 0 0  0 0 0 0.1 0" type="matrix" in="shadowBlurOuter1"></feColorMatrix>
        </filter>
    </defs>
    <g id="Page-1" stroke="none" stroke-width="1" fill="none" fill-rule="evenodd">
      <g id="ISO-TEXT" transform="translate(-550.000000, -876.000000)">
      <g id="Group-4" transform="translate(540.000000, 875.000000)">
        <path d="M14.9423544,67.3040396 L116.979861,7.92155656 C120.083816,6.11515641 123.918064,6.1119209 127.025063,7.91307998 L313.999389,116.303994 C318.777425,119.07387 320.405361,125.192662 317.635484,129.970698 C316.753548,131.492038 315.486034,132.753915 313.960779,133.629061 L211.981502,192.141761 C208.896776,193.911686 205.104132,193.910105 202.020883,192.137609 L14.9883282,84.6164785 C10.200287,81.8639331 8.55019165,75.7510799 11.3027371,70.9630387 C12.1748936,69.4459261 13.4298952,68.1842413 14.9423544,67.3040396 Z" id="table-top-iso" fill="#5497A4"></path>
        <path d="M14.9423544,63.3040396 L116.979861,3.92155656 C120.083816,2.11515641 123.918064,2.1119209 127.025063,3.91307998 L313.999389,112.303994 C318.777425,115.07387 320.405361,121.192662 317.635484,125.970698 C316.753548,127.492038 315.486034,128.753915 313.960779,129.629061 L211.981502,188.141761 C208.896776,189.911686 205.104132,189.910105 202.020883,188.137609 L14.9883282,80.6164785 C10.200287,77.8639331 8.55019165,71.7510799 11.3027371,66.9630387 C12.1748936,65.4459261 13.4298952,64.1842413 14.9423544,63.3040396 Z" id="table-top" fill="#FCFCFC"></path>
        <g id="Keyboard" transform="translate(125.000000, 93.000000)">
          <path d="M19.0280805,1.19298853 L65.0694237,28.2761316 C66.0214899,28.8361705 66.3392908,30.061974 65.7792518,31.0140403 C65.6068358,31.3071476 65.362531,31.5514524 65.0694237,31.7238684 L53.0280805,38.8070115 C51.7762841,39.5433623 50.2237159,39.5433623 48.9719195,38.8070115 L2.93057633,11.7238684 C1.97851009,11.1638295 1.66070919,9.93802599 2.22074815,8.98595975 C2.39316423,8.69285241 2.637469,8.44854765 2.93057633,8.27613157 L14.9719195,1.19298853 C16.2237159,0.456637681 17.7762841,0.456637681 19.0280805,1.19298853 Z" id="keyboard" fill="#D9E7EA"></path>
          <line x1="22" y1="17" x2="39" y2="27" id="Path-8" stroke="#FFFFFF" stroke-width="2" stroke-linecap="round"></line>
          <path d="M83.0486778,44.2804236 L87.5959703,47.1224814 C88.0643068,47.4151918 88.20668,48.0321421 87.9139696,48.5004787 C87.8280214,48.6379958 87.7099186,48.7525475 87.5698424,48.8342586 L79.0868021,53.7826988 C77.8035482,54.5312636 76.211132,54.5069575 74.9513222,53.7195764 L70.4040297,50.8775186 C69.9356932,50.5848082 69.79332,49.9678579 70.0860304,49.4995213 C70.1719786,49.3620042 70.2900814,49.2474525 70.4301576,49.1657414 L78.9131979,44.2173012 C80.1964518,43.4687364 81.788868,43.4930425 83.0486778,44.2804236 Z" id="mouse" fill="#D9E7EA"></path>
        </g>
        <g id="Computer" transform="translate(175.000000, 9.000000)">
          <path d="M51,72 L69,83 L36.0769915,102.753805 C34.8002481,103.519851 33.2036819,103.513361 31.9332085,102.736961 L18.8182422,94.7222591 C17.8757331,94.1462813 17.5786008,92.9153045 18.1545785,91.9727954 C18.3228927,91.6973723 18.5553683,91.466779 18.8321507,91.3007096 L51,72 L51,72 Z" id="base" fill="#D9E7EA"></path>
          <path d="M4,58.6853146 L4,3.46615516 C4,2.36158566 4.8954305,1.46615516 6,1.46615516 C6.35142137,1.46615516 6.69663906,1.5587509 7.00088868,1.73461774 L88.5206507,48.8558675 C89.7471185,49.5648084 90.5071277,50.8695812 90.518739,52.2861565 L90.9714018,107.511017 C90.9804553,108.615549 90.0923942,109.518289 88.9878619,109.527342 C88.6325837,109.530255 88.2829426,109.438473 87.9749012,109.261437 L6.0068645,62.1533704 C4.76539333,61.4398812 4,60.1172076 4,58.6853146 Z" id="screen-iso" fill="#5DA7B5"></path>
          <g id="screen">
            <use fill="black" filter="url(#local-filter-3)" xlink:href="#local-path-2"></use>
            <use fill="url(#hero-local-gradient1)" fill-rule="evenodd" xlink:href="#local-path-2"></use>
          </g>
          <g id="screen-info" transform="translate(14.000000, 33.000000)">
            <path d="M39.9712859,21.6507144 L52.9425717,28.8569843 C54.2124325,29.5624625 55,30.9009449 55,32.3536134 L55,46.6009711 C55,47.7055406 54.1045695,48.6009711 53,48.6009711 C52.6601115,48.6009711 52.3258301,48.5143501 52.0287141,48.3492856 L39.0574283,41.1430157 C37.7875675,40.4375375 37,39.0990551 37,37.6463866 L37,23.3990289 C37,22.2944594 37.8954305,21.3990289 39,21.3990289 C39.3398885,21.3990289 39.6741699,21.4856499 39.9712859,21.6507144 Z" id="Rectangle" fill="#CC6769"></path>
            <line x1="20" y1="11" x2="20" y2="30" id="Path-2" stroke="#CC6769" stroke-width="2" stroke-linecap="round"></line>
            <line x1="24" y1="17" x2="24" y2="32" id="Path-2" stroke="#CC6769" stroke-width="2" stroke-linecap="round"></line>
            <line x1="16" y1="13" x2="16" y2="27" id="Path-2" stroke="#CC6769" stroke-width="2" stroke-linecap="round"></line>
            <line x1="12" y1="18" x2="12" y2="25" id="Path-2" stroke="#CC6769" stroke-width="2" stroke-linecap="round"></line>
            <circle id="Oval" fill="#5DA7B5" cx="2.5" cy="2.5" r="2.5"></circle>
          </g>
        </g>
        <g id="laptop" transform="translate(87.000000, 0.000000)">
          <path d="M33.0614687,37.1910708 L73.0905313,60.3189737 C74.0469395,60.871565 74.3742976,62.0948508 73.8217063,63.051259 C73.6550813,63.3396484 73.419072,63.5818591 73.1351002,63.7559063 L47.0298899,79.7558739 C45.7790319,80.5225289 44.2088488,80.5428904 42.9385313,79.8089292 L2.90946868,56.6810263 C1.95306053,56.128435 1.62570235,54.9051492 2.17829373,53.948741 C2.34491873,53.6603516 2.58092805,53.4181409 2.86489976,53.2440937 L28.9701101,37.2441261 C30.2209681,36.4774711 31.7911512,36.4571096 33.0614687,37.1910708 Z" id="keyboard" fill="#D9E7EA"></path>
          <path d="M30.1571344,57.4875935 L39.425143,62.6838707 C39.9068775,62.9539639 40.0784467,63.5634406 39.8083535,64.0451751 C39.7222667,64.1987183 39.5971749,64.3268169 39.4457193,64.4165258 L34.368876,67.423598 C33.7486717,67.7909521 32.9787705,67.7961413 32.3536708,67.4371807 L23.1191691,62.1343104 C22.6402339,61.859284 22.4749331,61.2480774 22.7499594,60.7691422 C22.8383044,60.6152968 22.9659866,60.4877232 23.1199071,60.3995092 L28.1845579,57.4968838 C28.7947188,57.1471916 29.5437067,57.1436641 30.1571344,57.4875935 Z" id="touchpad" fill="#FFFFFF"></path>
          <path d="M34,34.6986679 L34,3.49683329 C34,2.39226379 34.8954305,1.49683329 36,1.49683329 C36.3565856,1.49683329 36.706687,1.5921688 37.0140403,1.77296485 L74.5588761,23.8581624 C75.7640194,24.5670702 76.5115377,25.853793 76.5304304,27.2518501 L76.952285,58.4690929 C76.9672103,59.5735615 76.0839608,60.4810096 74.9794922,60.4959348 C74.6172272,60.5008303 74.260436,60.4072302 73.9472267,60.2251318 L35.9895182,38.1566966 C34.7578242,37.4405955 34,36.1234032 34,34.6986679 Z" id="laptop-screen-iso" fill="#5DA7B5"></path>
          <g id="laptop-screen-">
            <use fill="black" fill-opacity="1" filter="url(#local-filter-6)" xlink:href="#local-path-5"></use>
            <use fill="url(#hero-local-gradient4)" fill-rule="evenodd" xlink:href="#local-path-5"></use>
          </g>
          <g id="screen-info" transform="translate(43.500000, 32.000000)" stroke="#CC6769" stroke-linecap="round" stroke-width="2">
            <line x1="8.5" y1="-1.42053036e-13" x2="8.5" y2="12" id="Path-2"></line>
            <line x1="12.5" y1="6" x2="12.5" y2="14" id="Path-2"></line>
            <line x1="4.5" y1="2" x2="4.5" y2="9" id="Path-2"></line>
            <line x1="0.5" y1="4" x2="0.5" y2="7" id="Path-2"></line>
          </g>
        </g>
        <g id="coffee-cup" transform="translate(221.000000, 132.000000)">
          <path d="M2.3436575,8.53552622 C-0.781134395,6.58289452 -0.781134395,3.41685594 2.34314891,1.46422423 C5.46743221,-0.488407472 10.5330128,-0.487908333 13.6567875,1.46472337 C16.7810708,3.41735508 16.7810708,6.58289452 13.6567875,8.53552622 C10.5330128,10.4881579 5.4679408,10.4881579 2.3436575,8.53552622" id="Fill-6" fill="#D9E7EA"></path>
          <path d="M3.05027069,8.68187137 C0.316576436,6.92492827 0.316576436,4.07549302 3.05027069,2.31806844 C5.78396495,0.560643854 10.2157302,0.560643854 12.9499122,2.31806844 C15.6831187,4.07549302 15.6836065,6.92492827 12.9499122,8.68235286 C10.216218,10.439296 5.78396495,10.439296 3.05027069,8.68187137" id="Fill-10" fill="#B7C2C4"></path>
          <path d="M3.71470891,5.98300481 C2.74848797,6.51794345 2.17724748,7.1889415 2,7.88490009 C2.27303024,8.15946604 2.59444559,8.41983873 2.96819584,8.66014511 C5.74737708,10.4465367 10.2531166,10.4465367 13.0318042,8.66063453 C13.4055544,8.41983873 13.7269698,8.15946604 14,7.88490009 C13.8232462,7.1889415 13.251512,6.51794345 12.2847974,5.98300481 C9.91837071,4.67233173 6.08162929,4.67233173 3.71470891,5.98300481" id="Fill-14" fill="#754C24"></path>
          <circle id="coffee-splash-1" r="2" cy="5" cx="8" fill="#754C24" transform="scale(1 2)" />
          <circle id="coffee-splash-2" r="1" cy="6" cx="8" fill="#754C24" />
          <path d="M15.4549595,8 L15.0858854,9.50305539 C16.448803,9.52030357 17.1736683,11.0401143 16.7068702,12.9433274 C16.2391234,14.8465405 14.7557111,16.4171102 13.3690741,16.4969446 L13,18 C14.9895846,17.906367 17.1262295,15.6503055 17.7970146,12.9181944 C18.468274,10.1860832 17.4203503,8.00344964 15.4549595,8" id="Fill-1" fill="#D9E7EA"></path>
          <g id="Group-5" transform="translate(0.000000, 5.000000)" fill="#D9E7EA">
            <path d="M0.0265414565,0.407914544 C0.175116994,1.54837936 0.947473886,2.66307376 2.3436575,3.53552622 C5.4679408,5.48815793 10.5330128,5.48815793 13.6567875,3.53552622 C14.4677717,3.02867288 15.0682451,2.44009515 15.4582077,1.81222016 L13.207,13.1787 C13.207,13.1787 11.7185,16.0002 7.9255,16.0002 C3.7705,16.0002 2.188,13.1787 2.188,13.1787 L0.02,0.4087 Z" id="Combined-Shape"></path>
          </g>
        </g>
      </g>
    </g>
  </g>
</svg>
