<svg id="hero-bg-svg" viewBox="0 0 946 633">
  <defs>
    <filter x="-4.2%" y="-7.3%" width="108.5%" height="114.5%" filterUnits="objectBoundingBox" id="hero-phant-filter-1">
      <feGaussianBlur stdDeviation="1" in="SourceGraphic"></feGaussianBlur>
    </filter>
    <filter x="-8.7%" y="-11.4%" width="117.5%" height="122.8%" filterUnits="objectBoundingBox" id="hero-phant-filter-2">
      <feGaussianBlur stdDeviation="1" in="SourceGraphic"></feGaussianBlur>
    </filter>
    <filter x="-8.7%" y="-11.4%" width="117.5%" height="122.8%" filterUnits="objectBoundingBox" id="hero-phant-filter-3">
      <feGaussianBlur stdDeviation="1" in="SourceGraphic"></feGaussianBlur>
    </filter>
    <polygon id="hero-phant-path-4" points="-3.02580207e-14 21.0967275 36.2757451 0 70.7954499 20.7200003 34.7642558 41.4400005"></polygon>
    <filter x="-5.4%" y="-11.1%" width="110.9%" height="122.1%" filterUnits="objectBoundingBox" id="hero-phant-filter-6">
      <feGaussianBlur stdDeviation="1" in="SourceGraphic"></feGaussianBlur>
    </filter>
    <linearGradient x1="50%" y1="0%" x2="50%" y2="100%" id="hero-phant-gradient-7">
      <stop stop-color="#462656" offset="0%"></stop>
      <stop stop-color="#4B2357" offset="100%"></stop>
    </linearGradient>
    <path d="M120.25,297.395874 C115.973175,318.111173 113.834763,331.802156 113.834763,338.468823 C113.834763,342.367811 125.839513,362.802883 127.542189,366.707031 C130.206483,372.816119 134.572341,375.096728 123.510638,379.424261 C110.086753,384.675923 97,386 97,375 C97,364 78.1080951,357.203985 82.0705675,338.468823 C83.899429,329.821693 87.0120563,300.042325 86.1140164,289.758308 C85.8350232,286.563382 96.0460412,286.060508 116.74707,288.249684 L120.25,297.395874 Z" id="hero-phant-path-8"></path>
    <linearGradient x1="24.1603609%" y1="41.1053084%" x2="90.7853891%" y2="74.5153337%" id="hero-phant-gradient-9">
      <stop stop-color="#4C5D7F" offset="0%"></stop>
      <stop stop-color="#4C436D" offset="100%"></stop>
    </linearGradient>
    <path d="M55.8857422,2.27373675e-13 C65.4619141,3.99316406 74.6235352,5.27169401 83.3706055,3.83558983 C86.9411857,3.24936782 91.5304958,1.92280615 96.5600888,1 C101.743266,0.0490150069 110.1142,1.21729969 113.971354,1 C140.070964,-0.470368149 170.821289,4.99834371 193.066406,19 C215.311523,33.0016563 211,44.8603448 212,55.0493645 C213,65.2383841 213.690806,79.0899182 202.794922,90.9495348 C199.373698,94.6733635 201.056641,101.198657 195.623047,113.448973 C190.189453,125.699289 193.72117,134.409734 193.066406,142.88151 C192.586383,149.092383 200.00651,152.583292 193.066406,158.241225 C184.8933,164.904365 170.394531,164.904365 163.5,158.241225 C161.14402,155.964315 164.33881,152.000188 163.5,148.795996 C161.293513,140.367375 156.723633,131.008753 156.723633,120.750316 C156.723633,111.797631 156.723633,107.808268 156.723633,108.782227 C143.861267,112.135953 132.653259,112.791983 123.099609,110.750316 C113.54596,108.708649 106.512757,106.181306 102,103.168285 L91,116.750316 L90.1301935,117 C99.9212155,119.853516 102.809634,126.280273 98.7954499,136.280273 C92.7741733,151.280273 88.0465982,149.921243 79.5813654,147 C71.6363458,144.258276 59.1047505,136.517588 58.1416016,132.397913 C56.1522399,123.888822 48,122.877269 50,112.750316 C50.5982009,109.72134 54.6948805,101.21831 62.2900391,87.2412252 C55.3686455,86.3700477 50.2856923,85.2896393 47.0411795,84 C43.7966667,82.7103607 39.4496069,80.0424973 34,75.9964098 L0,72.6415427 L55.8857422,2.27373675e-13 Z" id="hero-phant-path-10"></path>
    <path d="M0,-91 C-2.46706822,-85.3359375 9,-68.0208333 2.57617188,-54.9277344 C-3.84765625,-41.8346354 -22,-39 -30,-20.9375 C-38,-2.875 -38,10.7062101 -30,30.4726562 C-22,50.2391024 -20.5016325,53.2504356 0,65.8359375 C3.38735785,67.9153621 -2.94769128,71.2738752 0,72.6816406 C8.03594233,76.5194651 19.2539452,75.5582315 28,75.7608976 C35.462892,75.9338299 40.6191554,77.515625 46,77.515625 C55.3333333,77.515625 63.4726563,74.6770833 70.4179688,69 C71.4655641,85 75.3262411,93 82,93 C87.6636845,93 84.1884074,72.7702517 92,65.8359375 C102,56.9589844 113.837788,42.1583086 109.929688,27 C104.629838,6.44353127 91.6293618,10.9053853 82,8.00976562 C75.2771506,5.98815553 70.410095,-2.79099234 60,-5.3804488 C52.9738788,-7.12815954 55.9893617,-11 48,-10 C36.2773921,-8.53272284 21.136116,1.46727716 2.57617188,20 C-8.68511285,8.97135417 -12.2105035,-1.02864583 -8,-10 C-1.68424479,-23.4570312 16,-31 21.4893617,-48.0625 C26.9787234,-65.125 22.9631115,-92.3069815 21.4893617,-96.6640625 C20.0156119,-101.021144 14.5329318,-94.6972183 9,-93.3720703 C3.46706822,-92.0469223 2.46706822,-96.6640625 0,-91 Z" id="hero-phant-path-12"></path>
    <filter x="-33.4%" y="-18.3%" width="166.8%" height="151.3%" filterUnits="objectBoundingBox" id="hero-phant-filter-13">
      <feOffset dx="0" dy="14" in="SourceAlpha" result="shadowOffsetOuter1"></feOffset>
      <feGaussianBlur stdDeviation="14" in="shadowOffsetOuter1" result="shadowBlurOuter1"></feGaussianBlur>
      <feColorMatrix values="0 0 0 0 0   0 0 0 0 0   0 0 0 0 0  0 0 0 0.272180944 0" type="matrix" in="shadowBlurOuter1"></feColorMatrix>
    </filter>
    <linearGradient x1="39.3745775%" y1="2.99054569%" x2="59.668871%" y2="84.3831064%" id="hero-phant-gradient-14">
      <stop stop-color="#518EA3" offset="0%"></stop>
      <stop stop-color="#4E6687" offset="100%"></stop>
    </linearGradient>
    <path d="M40.3304744,7.6987068 C37.8634061,13.3627693 45.3304744,36.3058032 38.9066462,49.3989021 C32.4828181,62.4920011 14.3304744,65.3266365 6.33047436,83.3891365 C-1.66952564,101.451636 -1.66952564,115.032847 6.33047436,134.799293 C14.3304744,154.565739 17.9519266,161.724495 41.045728,170.94773 C41.045728,170.94773 31.203168,174.326636 36.3304744,177.008277 C44.2777008,181.164769 55.5844196,179.884868 64.3304744,180.087534 C71.7933664,180.260466 76.9496298,181.842261 82.3304744,181.842261 C91.6638077,181.842261 99.8031306,179.00372 106.748443,173.326636 C107.796038,189.326636 111.656715,197.326636 118.330474,197.326636 C123.994159,197.326636 120.518882,177.096888 128.330474,170.162574 C138.330474,161.285621 150.168263,146.484945 146.260162,131.326636 C140.960312,110.770168 127.959836,115.232022 118.330474,112.336402 C111.607625,110.314792 106.740569,101.535644 96.3304744,98.9461877 C89.3043532,97.1984769 74.3295003,93.6770197 63.4010419,102.326636 C52.4725835,110.976253 50.6147698,118.306177 45.3304744,125.749804 C44.7021623,126.634865 42.5608862,126.160475 38.9066462,124.326636 C27.6453615,113.297991 24.1199709,103.297991 28.3304744,94.3266365 C34.6462296,80.8696052 52.3304744,73.3266365 57.8198361,56.2641365 C63.3091978,39.2016365 58.8042242,6.60070969 57.3304744,2.24362867 C55.8567246,-2.11345235 54.8634061,4.00148852 49.3304744,5.32663648 C43.7975426,6.65178445 42.7975426,2.0346443 40.3304744,7.6987068 Z" id="hero-phant-path-15"></path>
    <linearGradient x1="81.0440639%" y1="47.2715493%" x2="-7.75950396%" y2="70.0305692%" id="hero-phant-gradient-17">
      <stop stop-color="#EFE8CD" offset="0%"></stop>
      <stop stop-color="#D3CAAF" offset="100%"></stop>
    </linearGradient>
    <filter id="hero-repo-shadow-blur" width="152.2%" height="142.9%" x="-27.8%" y="-22.2%" filterUnits="objectBoundingBox">
      <feGaussianBlur in="SourceGraphic" stdDeviation="10" />
    </filter>
    <filter id="home-repo-filter" width="155.5%" height="146%" x="-29.4%" y="-23.7%" filterUnits="objectBoundingBox">
      <feOffset dx="-4" dy="-2" in="SourceAlpha" result="shadowOffsetOuter1" />
      <feColorMatrix in="shadowOffsetOuter1"
        values="0 0 0 0 0.364705882 0 0 0 0 0.654901961 0 0 0 0 0.709803922 0 0 0 1 0" />
    </filter>
    <filter id="home-hero-filter-5" width="108.5%" height="125.7%" x="-4.3%" y="-11.8%" filterUnits="objectBoundingBox">
      <feGaussianBlur in="SourceGraphic" stdDeviation="8" />
    </filter>
    <filter id="home-hero-hub-shadow" width="109.7%" height="127.8%" x="-4.9%" y="-12.9%" filterUnits="objectBoundingBox">
      <feOffset dy="4" in="SourceAlpha" result="shadowOffsetOuter1" />
      <feColorMatrix in="shadowOffsetOuter1"
        values="0 0 0 0 0.364705882 0 0 0 0 0.654901961 0 0 0 0 0.709803922 0 0 0 1 0" />
    </filter>
    <filter id="home-hero-filter-20" width="130.7%" height="178.2%" x="-15.4%" y="-39.1%" filterUnits="objectBoundingBox">
      <feGaussianBlur in="SourceGraphic" stdDeviation="10" />
    </filter>
    <filter id="home-hero-filter-39" width="108.5%" height="125.7%" x="-4.3%" y="-11.8%" filterUnits="objectBoundingBox">
      <feGaussianBlur in="SourceGraphic" stdDeviation="8" />
    </filter>
    <filter id="home-hero-local-shadow" width="109.7%" height="127.8%" x="-4.9%" y="-12.9%" filterUnits="objectBoundingBox">
      <feOffset dy="4" in="SourceAlpha" result="shadowOffsetOuter1" />
      <feColorMatrix in="shadowOffsetOuter1" values="0 0 0 0 0.364705882 0 0 0 0 0.654901961 0 0 0 0 0.709803922 0 0 0 1 0" />
    </filter>
    <filter id="home-hero-server-shadow" width="124.1%" height="150%" x="-17%" y="-23.7%" filterUnits="objectBoundingBox">
      <feGaussianBlur in="SourceGraphic" stdDeviation="10" />
    </filter>
    <path id="home-hero-repo" d="M.5 124.156V75.61a8 8 0 013.988-6.922L116.994 3.481A4 4 0 01123 6.94v50.383a8 8 0 01-4.074 6.97L6.463 127.642A4 4 0 01.5 124.156z" />
    <path id="home-hero-hub" d="M14.942 112.304L116.98 52.922a10 10 0 0110.045-.009L314 161.304c4.778 2.77 6.406 8.889 3.636 13.667a10 10 0 01-3.674 3.658l-101.98 58.513a10 10 0 01-9.96-.004L14.988 129.616c-4.788-2.752-6.438-8.865-3.685-13.653a10 10 0 013.64-3.659z" />
    <path id="home-hero-local" d="M14.942 112.304L116.98 52.922a10 10 0 0110.045-.009L314 161.304c4.778 2.77 6.406 8.889 3.636 13.667a10 10 0 01-3.674 3.658l-101.98 58.513a10 10 0 01-9.96-.004L14.988 129.616c-4.788-2.752-6.438-8.865-3.685-13.653a10 10 0 013.64-3.659z" />
    <path d="M3,75.3096301 L3,109.536242 C3,110.640811 3.8954305,111.536242 5,111.536242 C5.35101508,111.536242 5.6958482,111.44386 5.99985125,111.268379 L123.999703,43.1546433 C125.237474,42.440157 126,41.119555 126,39.6903699 L126,5.46375813 C126,4.35918863 125.104569,3.46375813 124,3.46375813 C123.648985,3.46375813 123.304152,3.55614002 123.000149,3.73162146 L5.00029749,71.8453567 C3.76252554,72.559843 3,73.880445 3,75.3096301 Z" id="home-hero-path-path-1"></path>
    <filter x="-11.0%" y="-6.3%" width="117.1%" height="116.3%" filterUnits="objectBoundingBox" id="repo-filter-2">
      <feOffset dx="-3" dy="2" in="SourceAlpha" result="shadowOffsetOuter1"></feOffset>
      <feGaussianBlur stdDeviation="3" in="shadowOffsetOuter1" result="shadowBlurOuter1"></feGaussianBlur>
      <feColorMatrix values="0 0 0 0 0   0 0 0 0 0   0 0 0 0 0  0 0 0 0.2 0" type="matrix" in="shadowBlurOuter1"></feColorMatrix>
    </filter>
    <path d="M3,75.3096301 L3,109.536242 C3,110.640811 3.8954305,111.536242 5,111.536242 C5.35101508,111.536242 5.6958482,111.44386 5.99985125,111.268379 L123.999703,43.1546433 C125.237474,42.440157 126,41.119555 126,39.6903699 L126,5.46375813 C126,4.35918863 125.104569,3.46375813 124,3.46375813 C123.648985,3.46375813 123.304152,3.55614002 123.000149,3.73162146 L5.00029749,71.8453567 C3.76252554,72.559843 3,73.880445 3,75.3096301 Z" id="home-hero-path-path-3"></path>
    <filter x="-11.0%" y="-6.3%" width="117.1%" height="116.3%" filterUnits="objectBoundingBox" id="repo-filter-4">
      <feOffset dx="-3" dy="2" in="SourceAlpha" result="shadowOffsetOuter1"></feOffset>
      <feGaussianBlur stdDeviation="3" in="shadowOffsetOuter1" result="shadowBlurOuter1"></feGaussianBlur>
      <feColorMatrix values="0 0 0 0 0   0 0 0 0 0   0 0 0 0 0  0 0 0 0.2 0" type="matrix" in="shadowBlurOuter1"></feColorMatrix>
    </filter>
    <path d="M3,75.3096301 L3,109.536242 C3,110.640811 3.8954305,111.536242 5,111.536242 C5.35101508,111.536242 5.6958482,111.44386 5.99985125,111.268379 L123.999703,43.1546433 C125.237474,42.440157 126,41.119555 126,39.6903699 L126,5.46375813 C126,4.35918863 125.104569,3.46375813 124,3.46375813 C123.648985,3.46375813 123.304152,3.55614002 123.000149,3.73162146 L5.00029749,71.8453567 C3.76252554,72.559843 3,73.880445 3,75.3096301 Z" id="home-hero-path-path-5"></path>
    <filter x="-11.0%" y="-6.3%" width="117.1%" height="116.3%" filterUnits="objectBoundingBox" id="repo-filter-6">
      <feOffset dx="-3" dy="2" in="SourceAlpha" result="shadowOffsetOuter1"></feOffset>
      <feGaussianBlur stdDeviation="3" in="shadowOffsetOuter1" result="shadowBlurOuter1"></feGaussianBlur>
      <feColorMatrix values="0 0 0 0 0   0 0 0 0 0   0 0 0 0 0  0 0 0 0.2 0" type="matrix" in="shadowBlurOuter1"></feColorMatrix>
    </filter>
  </defs>
  <g transform="translate(-531 -504)" fill="none">
    <g transform="translate(104 349)">
      <path fill="#5DA7B5" opacity=".136" d="M754.978412,781.236139 L434.020977,596.639232 C429.233484,593.885732 427.584608,587.77255 430.338107,582.985058 C431.213921,581.462286 432.475416,580.197092 433.995617,579.316824 L934.03685,289.769138 C940.204505,286.197772 947.80666,286.178377 953.992457,289.718227 L1274.94725,473.385999 C1279.74072,476.129082 1281.40289,482.238664 1278.6598,487.032133 C1277.78604,488.559011 1276.52494,489.828366 1275.0038,490.712077 L774.996401,781.192567 C768.811604,784.78564 761.178793,784.802254 754.978412,781.236139 Z"></path>
       <!-- Kubernetes_logo  -->
      <g transform="translate(849.787510, 690.445552) rotate(-31.000000) translate(-849.787510, -690.445552) translate(749.787510, 673.445552)">
        <path d="M28.869582,7.73428406 C28.3126327,7.10965602 27.5514974,6.60214573 26.7870165,6.28983171 L11.6202242,0.590100843 C11.2185435,0.433943833 10.8459598,0.394904581 10.5349158,0.394904581 C10.2238718,0.394904581 9.87394733,0.394904581 9.60822168,0.472983086 L1.08056838,6.21175321 C0.65597505,6.48502798 0.52285886,6.99253826 0.752542877,7.65620555 L5.29137477,20.5001196 C5.55993929,21.1637869 6.1006673,21.8274542 6.80670077,22.3740038 L20.9245315,32.5632487 C21.6630077,33.0317197 22.5052496,33.3440337 23.1888773,33.383073 L36.2527251,33.383073 C36.9978925,33.4611515 37.4775875,33.1488375 37.5653854,32.5632487 L39.8551255,22.3740038 C39.926702,21.8274542 39.697018,21.1637869 39.234051,20.5001196 L28.869582,7.73428406 Z" fill="#C9E5EB"></path>
        <path d="M33.9610294,19.62191 C33.9386086,19.5832816 33.8603355,19.5832816 33.7820624,19.5832816 C33.6030955,19.5446532 33.4465492,19.5446532 33.290003,19.5446532 C33.2117299,19.5446532 33.1334568,19.5446532 33.032763,19.5060247 L32.9936264,19.5060247 C32.5407036,19.4673963 32.0262234,19.3901394 31.5284591,19.2742541 C31.3886287,19.2356257 31.2039569,19.1197403 31.0975581,19.003855 L30.7396242,18.9265982 C30.2459692,17.8063735 29.4950742,16.6475204 28.6100536,15.5272957 C27.6858965,14.407071 26.5884774,13.3254748 25.4017742,12.3597639 L25.5020691,12.1279933 L25.4796484,12.0893648 C25.4123862,11.9734795 25.3618398,11.8189658 25.3952715,11.7417089 C25.5681346,11.4326814 25.7858392,11.2009108 26.0426804,10.9691401 C26.0985328,10.9305117 26.1543851,10.8918833 26.2102375,10.8532548 C26.3219423,10.775998 26.3945105,10.6987411 26.5062152,10.6214842 C26.5229311,10.5828558 26.5620676,10.5828558 26.5787834,10.5442273 C26.5954993,10.5055989 26.5563627,10.5055989 26.533942,10.4669705 C26.7292259,10.1965714 26.5384502,9.73303016 26.0627077,9.38537423 C25.8556151,9.23086048 25.5535336,9.11497517 25.3578508,9.11497517 C25.162168,9.11497517 25.0113267,9.19223204 24.9220427,9.30811735 L24.9053269,9.34674579 C24.8886111,9.38537423 24.8718952,9.42400266 24.8327587,9.42400266 C24.7826112,9.53988797 24.7324637,9.65577328 24.7214528,9.7716586 C24.7271577,9.84891547 24.6713053,9.88754391 24.6545895,9.92617234 C24.5599995,10.2351998 24.3871363,10.5442273 24.1694317,10.775998 C24.1135794,10.8146264 24.057727,10.8532548 23.9794539,10.8532548 C23.9403173,10.8532548 23.8620442,10.8532548 23.8004869,10.8146264 L23.7613504,10.8146264 L23.5603616,11.0077686 C23.0679033,10.6987411 22.5363084,10.3897136 22.0438501,10.0806861 C19.9455964,8.96046142 17.7417416,8.26514955 15.7902199,8.07200737 L15.5717175,7.76297987 L15.5941382,7.80160831 C15.4318871,7.72435144 15.3254883,7.60846612 15.2190896,7.49258081 C14.9724615,7.06766801 14.7258335,6.6427552 14.5350578,6.17921396 L14.5126371,6.14058552 C14.4677956,6.06332865 14.4620907,5.98607177 14.4172492,5.9088149 C14.3667029,5.75430115 14.2770199,5.5997874 14.2264736,5.44527365 L14.0919492,5.21350303 C13.9068784,4.82721866 13.3695787,4.44093429 12.9557924,4.40230586 C12.6985523,4.36367742 12.5309952,4.47956273 12.4474161,4.67270491 C12.3805528,4.82721866 12.4143833,5.02036085 12.526487,5.21350303 L12.6385906,5.40664522 C12.7282735,5.56115896 12.857093,5.71567271 12.9859125,5.87018646 C13.0698905,5.94744333 13.114732,6.02470021 13.1595735,6.10195708 L13.1819942,6.14058552 C13.5068953,6.56549833 13.7535234,6.99041113 14.0225722,7.45395238 C14.0506978,7.56983769 14.0788235,7.685723 14.0062553,7.76297987 L14.0510967,7.84023675 L14.191326,8.14926424 C13.7832446,8.18789268 13.397584,8.26514955 12.9727868,8.34240643 C11.357576,8.7286908 10.2352224,9.69440172 9.72844168,11.046397 L9.40393942,10.8918833 L9.36480287,10.8918833 C9.32566631,10.8918833 9.30895049,10.9305117 9.23067738,10.9305117 C9.15240427,10.9305117 9.05171043,10.8918833 8.95101658,10.8532548 C8.44184246,10.5828558 7.91024761,10.2738283 7.45692587,9.96480078 C7.37294785,9.88754391 7.27225401,9.84891547 7.21069672,9.81028703 C7.02602486,9.69440172 6.88048955,9.57851641 6.69581769,9.4626311 C6.63426041,9.42400266 6.59512385,9.42400266 6.53356656,9.38537423 C6.47200928,9.34674579 6.47200928,9.34674579 6.47200928,9.34674579 C6.24820086,9.23086048 6.00767662,9.1536036 5.81199384,9.1536036 C5.57717451,9.1536036 5.4263332,9.23086048 5.42102719,9.42400266 C5.38799444,9.7716586 5.73531633,10.2351998 6.2053539,10.5055989 C6.24449045,10.5055989 6.26691118,10.5442273 6.26691118,10.5442273 C6.26691118,10.5442273 6.39002576,10.6214842 6.42916231,10.6214842 C6.59141344,10.6987411 6.79280113,10.775998 6.99418881,10.8532548 C7.09488265,10.8918833 7.1955765,10.9305117 7.29627034,10.9691401 C7.82216028,11.2009108 8.34805023,11.4326814 8.84050852,11.7417089 C8.9636231,11.8189658 9.13157914,11.9734795 9.15970478,12.0893648 L9.13728404,12.0507364 L9.50662777,12.282507 C9.51233267,12.3597639 9.49561685,12.3983923 9.50132176,12.4756492 C9.38670439,14.3684426 10.1783316,16.6088919 11.8085423,18.8107128 L11.5402913,18.8879697 C11.5627121,18.9265982 11.5235755,18.9265982 11.5235755,18.9265982 C11.5517011,19.0424835 11.4791329,19.1197403 11.4065647,19.1969972 C11.0433248,19.3128825 10.6576642,19.3901394 10.2104462,19.4287678 C10.1321731,19.4287678 10.0539,19.4287678 9.99804764,19.4673963 C9.84150142,19.4673963 9.70737593,19.5060247 9.55082971,19.5060247 C9.51169315,19.5060247 9.49497733,19.5446532 9.41670422,19.5446532 C9.37756766,19.5446532 9.37756766,19.5446532 9.36085184,19.5832816 C8.97519119,19.6605385 8.92544262,20.0468228 9.25034378,20.4717356 C9.53040348,20.8193916 10.0171569,21.0511622 10.3469651,21.0125338 C10.4252382,21.0125338 10.4643748,21.0125338 10.5202272,20.9739053 C10.5593637,20.9739053 10.5593637,20.9739053 10.536943,20.9352769 C10.5145223,20.8966484 10.6543527,20.9352769 10.6934892,20.9352769 C10.8276147,20.8966484 10.9393195,20.8193916 11.0343084,20.7807631 C11.0901608,20.7421347 11.1460132,20.7035063 11.2242863,20.7035063 L11.2634228,20.7035063 C11.604242,20.5489925 11.9283454,20.4331072 12.3531426,20.3558503 L12.3922791,20.3558503 C12.5096888,20.3558503 12.6495192,20.3944788 12.7726338,20.4717356 C12.8117703,20.4717356 12.8341911,20.5103641 12.8341911,20.5103641 L13.1639993,20.4717356 C14.7824013,22.2486437 16.7974749,23.8324097 18.9964225,24.9912628 C19.5055966,25.2616618 19.9532134,25.4934324 20.4566826,25.6865746 L20.417945,25.9569737 C20.4403657,25.9956021 20.4795023,25.9956021 20.4795023,25.9956021 C20.6250376,26.1114874 20.7147205,26.2660012 20.7428461,26.3818865 C20.8105072,26.7681709 20.7998952,27.1544552 20.7668625,27.5021112 L20.7892832,27.5407396 C20.7949881,27.6179965 20.7782723,27.6566249 20.7448406,27.7338818 C20.711409,27.8111387 20.7228188,27.9656524 20.6950921,28.1201662 C20.6783762,28.1587946 20.700797,28.197423 20.6840812,28.2360515 C20.6840812,28.2360515 20.7065019,28.2746799 20.6673653,28.2746799 C20.6958899,28.6609643 21.1214849,29.1245055 21.5858175,29.3176477 C21.6865114,29.3562761 21.8263418,29.3949046 21.9046149,29.3949046 C22.2177073,29.3949046 22.3795595,29.2017624 22.3791606,28.9313633 C22.3791606,28.9313633 22.3567399,28.8927349 22.3958765,28.8927349 C22.3734557,28.8541065 22.3901716,28.815478 22.4068874,28.7768496 C22.356341,28.6223358 22.3673519,28.5064505 22.3168056,28.3519368 L22.2605543,28.1201662 C22.1313359,27.6952534 22.1028114,27.308969 22.0742868,26.9226846 C22.0852977,26.8067993 22.1578659,26.7295424 22.2528549,26.690914 C22.2919914,26.690914 22.2919914,26.690914 22.2695707,26.6522856 L22.2467511,26.3432581 C23.5892027,26.7681709 24.8362664,26.9613131 26.0103631,26.9613131 C26.7148211,26.9613131 27.3744376,26.8840562 27.966792,26.690914 C28.3524526,26.6136571 28.6932718,26.4591434 29.0173752,26.3432581 L29.3308665,26.6136571 C29.3700031,26.6136571 29.3700031,26.6136571 29.3924238,26.6522856 C29.5322542,26.690914 29.6945053,26.7681709 29.8400406,26.8840562 C30.2599307,27.2703405 30.6798208,27.6566249 31.0438585,28.0815377 L31.0662793,28.1201662 L31.2790768,28.3519368 C31.4078962,28.5064505 31.5367157,28.6609643 31.682251,28.7768496 C31.7438083,28.815478 31.766229,28.8541065 31.8277863,28.8927349 C31.8277863,28.8927349 31.8502071,28.9313633 31.8893436,28.9313633 C32.202835,29.2017624 32.5888945,29.3949046 32.9019869,29.3949046 C33.0193966,29.3949046 33.075249,29.3562761 33.1702379,29.3176477 C33.2819427,29.2403908 33.348806,29.0858771 33.2758389,28.8927349 C33.2028718,28.6995927 33.0907681,28.5064505 32.9003914,28.3133083 C32.8779706,28.2746799 32.8388341,28.2746799 32.8388341,28.2746799 C32.8164133,28.2360515 32.754856,28.197423 32.6932988,28.1587946 C32.5253427,28.0042808 32.3798074,27.8883955 32.1951356,27.7725102 C32.1111575,27.6952534 32.0496002,27.6566249 31.9264857,27.579368 L31.8816442,27.5021112 C31.4059017,27.1544552 30.9860116,26.7681709 30.6052581,26.3818865 C30.4988594,26.2660012 30.4091764,26.1114874 30.4201873,25.9956021 C30.3977666,25.9569737 30.4369032,25.9569737 30.4369032,25.9569737 L30.1401276,25.6479462 C31.4410493,24.4504646 31.8911798,22.5962997 31.3176561,20.3944788 L31.6531693,20.4331072 C31.6923059,20.4331072 31.6698851,20.3944788 31.6698851,20.3944788 C31.7033168,20.3172219 31.7983057,20.2785935 31.9157154,20.2785935 L31.9548519,20.2785935 C32.4301955,20.3558503 32.9279598,20.4717356 33.4090083,20.6262494 L33.4481448,20.6262494 C33.5488387,20.6648778 33.6495325,20.7035063 33.7278056,20.7035063 C33.9291933,20.7807631 34.0914445,20.85802 34.2704114,20.8966484 C34.309548,20.8966484 34.3711053,20.9352769 34.4493784,20.9352769 C34.4885149,20.9352769 34.4885149,20.9352769 34.5500722,20.9739053 C34.650766,21.0125338 34.6899026,21.0125338 34.7681757,21.0125338 C35.1204047,21.0125338 35.2989728,20.7807631 35.2370166,20.4717356 C34.951252,20.0468228 34.4587937,19.7377953 34.0617232,19.6605385 C34.0225867,19.6605385 33.9834501,19.6605385 33.9610294,19.62191 Z M21.2909985,18.9652266 L19.942842,18.4630569 L19.0186849,17.3428322 L19.2241819,16.4157498 L20.3982786,16.4157498 L21.6799707,17.3428322 L22.056216,18.4630569 L21.2909985,18.9652266 Z M28.5471793,18.3858 L24.2238468,17.3428322 C23.8267763,17.2655754 23.429307,16.9179194 23.3057935,16.5702635 C23.2776679,16.4543782 23.2719629,16.3771213 23.3053946,16.2998644 L24.7160265,13.6731307 C25.5501018,14.3684426 26.3116089,15.1410113 26.978127,15.9522085 C27.6446451,16.7634057 28.1546171,17.5746029 28.5471793,18.3858 Z M20.8035677,14.4843279 C20.6192947,14.6388417 20.2055084,14.6002132 19.8528805,14.3298142 C19.7297659,14.2525573 19.6457879,14.1753004 19.5785257,14.0594151 L17.0792125,10.157943 C18.9133246,10.3510851 20.8656442,11.0850255 22.7123628,12.2438786 L20.8035677,14.4843279 Z M14.4851889,10.2738283 L15.1782371,10.1193145 L17.2246275,13.9821582 C17.4264141,14.3298142 17.2702668,14.6002132 16.9180378,14.6002132 C16.8006281,14.6002132 16.6999342,14.5615848 16.5601038,14.5229563 L11.9889466,12.2438786 C12.4459787,11.2781676 13.2947753,10.5828558 14.4851889,10.2738283 Z M16.0594269,16.2226076 C16.4679072,16.4543782 16.7312511,16.8406626 16.6533769,17.1110616 C16.642366,17.2269469 16.5865136,17.2655754 16.4523881,17.3042038 L13.2839227,18.3858 C12.2248423,16.7634057 11.6521164,15.1023829 11.6835535,13.6731307 L16.0594269,16.2226076 Z M18.3007023,19.5446532 C18.6137947,19.5446532 19.0389908,19.7377953 19.2574933,20.0468228 C19.363892,20.1627081 19.4535749,20.3172219 19.442564,20.4331072 L20.0180822,23.9869234 C18.132626,23.0984694 16.2520768,21.7464741 14.8073358,20.2013366 L18.3007023,19.5446532 Z M24.9007363,25.1844049 C24.0788687,25.1844049 23.1281815,25.0298912 22.210926,24.7981206 L22.1331721,21.3601897 C22.1943305,21.1284191 22.4625815,21.0511622 22.8262203,21.2056759 C22.9884714,21.2829328 23.111586,21.3601897 23.2962579,21.476075 L27.1254162,24.836749 C26.9130176,24.8753775 26.700619,24.9140059 26.4715046,24.9912628 C25.990855,25.1071481 25.4877847,25.1844049 24.9007363,25.1844049 Z M29.2955607,21.6305887 C29.2466099,22.5576712 28.8955776,23.3688684 28.2926112,23.948295 L24.6587368,20.3172219 C24.4010978,20.0081944 24.3782782,19.6991669 24.5849719,19.5832816 C24.6799608,19.5446532 24.7749498,19.5060247 24.8923594,19.5060247 L29.1871674,20.1627081 C29.3053749,20.7035063 29.3620251,21.2056759 29.2955607,21.6305887 Z" id="path10351" fill="#FFFFFF"></path>
        <path d="M194.247397,23.9762752 C194.47119,23.8271569 194.469304,23.4857748 194.234146,23.1416855 C193.97718,22.7594141 193.54763,22.4130687 193.132296,22.2944617 C192.352839,21.9440553 191.517433,21.6309286 190.747454,21.4323479 C189.955665,21.1955851 189.219825,20.9215428 188.522864,20.6479517 C187.88659,20.4129938 187.284456,20.1025743 186.638704,19.7157908 C186.03183,19.3294585 185.519784,18.9062979 185.041877,18.4076756 C184.481474,17.8322381 184.054776,17.2204234 183.705836,16.6095112 C182.947267,15.3490534 182.832565,14.1339972 183.407232,13.3820884 C183.998968,12.5924489 185.180509,12.2268724 186.968923,12.2476283 C187.824251,12.257555 188.762075,12.344297 189.726448,12.5451337 C190.452809,12.6673504 191.20098,12.8277491 191.992768,13.0645119 L193.107822,16.3014101 C192.454478,16.104183 191.883631,15.9837712 191.252096,15.8247261 C190.542804,15.6647787 189.860059,15.618926 189.238002,15.6117066 C187.916131,15.5963653 187.451475,15.9323328 187.865842,16.6577911 C187.953077,16.8105191 188.07919,16.9636984 188.205304,17.1168777 C188.370296,17.2705082 188.552358,17.3864079 188.773299,17.5027588 C188.99424,17.6191097 189.292937,17.736363 189.652322,17.8922496 C190.011707,18.0481361 190.487728,18.2053763 191.041506,18.363519 C191.971739,18.6398174 192.945589,18.9924798 193.863491,19.3824218 C194.560452,19.6560129 195.223274,20.0050656 195.873765,20.4677619 C196.419951,20.815461 196.893119,21.2381705 197.332147,21.7363415 C197.792984,22.2726946 198.176065,22.8081452 198.481387,23.3426934 C199.300643,24.6417844 199.398276,25.8945715 198.685165,26.6069446 C198.010932,27.3197688 196.673877,27.6835404 194.652192,27.6600773 C193.546523,27.6851741 192.392496,27.5579941 191.151235,27.278086 C190.441943,27.1181385 189.749721,26.9204602 189.057499,26.7227819 L187.83814,23.3708864 C188.690615,23.6462823 189.560161,23.8839475 190.386089,24.0452486 C191.185469,24.0924549 191.967779,24.177392 192.74535,24.1864163 M167.588303,16.3845265 C167.414799,15.472219 167.501115,14.6767137 167.786562,13.9593773 C168.076748,13.3179536 168.531927,12.8301605 169.212785,12.5346311 C169.871834,12.2009197 170.678806,12.0585695 171.573013,12.0689475 C173.672455,12.093313 175.714982,12.7618095 177.639907,14.0358037 C179.564833,15.3097978 181.25552,17.187936 182.651282,19.631585 C182.782135,19.8606771 182.934796,20.1279512 183.070388,20.4329561 C183.244858,20.7384122 183.336832,20.9670531 183.467685,21.1961452 L173.981316,21.0860489 C174.517058,21.8887737 175.380897,22.6573773 176.342417,23.1236834 C177.503068,23.6681583 178.666572,23.947164 179.655606,23.9207135 C180.394299,23.9292866 181.128252,23.8619468 181.801518,23.7559739 C182.358149,23.6486473 182.871162,23.4649566 183.301679,23.2044507 L185.80403,26.5712363 C185.619115,26.7208058 185.351705,26.7935602 185.106102,26.9044965 C184.743865,27.0140792 184.381627,27.1236619 183.975771,27.1568805 C183.552846,27.22783 183.129921,27.2987794 182.629239,27.3688265 C182.145626,27.4011427 181.623135,27.4330077 181.078835,27.4266907 C179.895409,27.4508851 178.620008,27.2464386 177.252633,26.8133512 C176.123269,26.4588839 175.001496,25.9148602 173.909124,25.2194621 C172.85563,24.5245152 171.909294,23.6790963 171.096664,22.7973002 C170.235677,21.7632273 169.491326,20.730508 168.924297,19.7377756 M177.083183,17.2532997 C176.809147,16.9087591 176.462093,16.6392289 176.115038,16.3696988 C175.729106,16.0997174 175.326103,15.8674668 174.927839,15.711129 C174.43001,15.5157068 173.997607,15.4348306 173.569942,15.4298673 C173.142278,15.4249039 172.79711,15.4967558 172.517369,15.6831537 C172.293575,15.8322721 172.091591,16.0195724 172.010981,16.2841393 C171.930371,16.5487061 171.910448,16.8519061 171.990092,17.1941906 C172.069735,17.5364751 172.188257,17.8792108 172.345657,18.2223978 L177.866413,18.2864702 M155.058276,7.97060427 L157.50086,12.24699 L162.555073,12.3056478 L164.517863,15.7420292 L159.46365,15.6833714 L162.386027,20.7997614 C162.761515,21.5247685 163.331396,22.2520317 164.030244,22.8670049 C164.624787,23.3669808 165.399505,23.6414743 166.371469,23.6527547 C166.838012,23.6581692 167.282746,23.6254018 167.666792,23.5540011 C168.089717,23.4830516 168.451955,23.373469 168.792384,23.2257042 L171.2075,26.4397618 C170.794053,26.6625368 170.29811,26.8084967 169.802167,26.9544565 C169.150709,27.0986115 168.416755,27.1659513 167.639184,27.156927 C166.689029,27.1838287 165.62983,27.0198202 164.539344,26.6658042 C163.686868,26.3904082 162.803106,25.9250046 162.03124,25.3850418 C161.237566,24.806897 160.533979,24.116011 159.92522,23.3882967 C159.251034,22.5460363 158.671675,21.6669475 158.23076,20.8273943 L151.230141,8.5709674 M139.206954,16.0551401 C139.03345,15.1428327 139.119765,14.3473273 139.405213,13.6299909 C139.695399,12.9885673 140.150577,12.5007742 140.831435,12.2052447 C141.490485,11.8715333 142.297456,11.7291832 143.191663,11.7395611 C145.291106,11.7639267 147.333633,12.4324231 149.258558,13.7064173 C151.183483,14.9804114 152.874171,16.8585496 154.269933,19.3021986 C154.400785,19.5312907 154.553447,19.7985648 154.689038,20.1035697 C154.82463,20.4085746 154.955483,20.6376667 155.086336,20.8667588 L145.561088,20.7562113 C146.09683,21.5589361 146.96067,22.3275398 147.922189,22.7938458 C149.08284,23.3383207 150.246344,23.6173264 151.235378,23.590876 C151.974071,23.599449 152.708024,23.5321093 153.381291,23.4261363 C153.937921,23.3188097 154.450934,23.135119 154.92033,22.8750643 L157.422681,26.2418499 C157.237766,26.3914195 156.970355,26.4641738 156.724753,26.5751101 C156.362515,26.6846928 156.000278,26.7942755 155.594422,26.8274942 C155.171497,26.8984436 154.748572,26.9693931 154.24789,27.0394401 C153.764277,27.0717564 153.241786,27.1036214 152.697486,27.0973044 C151.51406,27.1214987 150.238659,26.9170522 148.871284,26.4839649 C147.74192,26.1294976 146.620147,25.5854739 145.527775,24.8900757 C144.474281,24.1951288 143.527945,23.3497099 142.715315,22.4679138 C141.815449,21.4333897 141.071098,20.4006704 140.542948,19.4083893 M148.701834,16.9239133 C148.427798,16.5793728 148.080743,16.3098426 147.733689,16.0403124 C147.347756,15.770331 146.944754,15.5380804 146.54649,15.3817426 C146.048661,15.1863204 145.616257,15.1054443 145.188593,15.1004809 C144.760929,15.0955175 144.415761,15.1673694 144.136019,15.3537674 C143.912226,15.5028857 143.74912,15.6906373 143.66851,15.9552041 C143.5879,16.2197709 143.567978,16.522971 143.647621,16.8652555 C143.727264,17.20754 143.845786,17.5502757 144.003187,17.8934626 L149.485064,17.9570838 M123.088595,11.7717526 C124.145908,11.594379 125.307526,11.5320026 126.473882,11.545539 C127.501795,11.5195398 128.66056,11.7226326 129.867681,12.0780023 C130.797914,12.3543007 131.759434,12.8206068 132.613795,13.4373848 C133.468157,14.0541628 134.232431,14.7836821 134.862999,15.5495784 C135.597873,16.4304721 136.199041,17.3477429 136.722451,18.2641112 L141.411339,26.4732446 L137.251333,26.4249646 L132.867768,18.7503795 C132.104461,17.414009 131.386657,16.4953846 130.709619,15.9185934 C130.054389,15.3799843 129.218983,15.0668575 128.247019,15.0555771 C127.93599,15.0519674 127.624962,15.0483577 127.296864,15.0824788 C126.946957,15.0784179 126.696615,15.1134414 126.446274,15.1484649 L132.858056,26.3739774 L128.659172,26.3252463 L120.655349,12.3124466 M118.036174,15.1646463 C117.426448,15.0437832 116.86034,14.9992842 116.31604,14.9929672 C116.005011,14.9893575 115.715792,15.0239298 115.387693,15.0580509 C115.137352,15.0930744 114.887011,15.1280979 114.658479,15.2013034 L121.004834,26.3122699 L116.80595,26.2635388 L108.911171,12.4416492 C109.592029,12.1461198 110.355383,11.9274056 111.140546,11.7468735 C112.115363,11.4926846 113.216293,11.391675 114.36558,11.4429422 C114.63773,11.4461007 114.931689,11.4874412 115.203839,11.4905997 C115.514867,11.4942094 115.847705,11.5360012 116.241229,11.6164261 C116.574066,11.6582178 116.906904,11.7000096 117.300428,11.7804345 C117.594387,11.821775 117.910154,11.9012976 118.247731,12.0190021 L119.510707,15.4472617 M94.2244591,15.5330853 C94.0509554,14.6207779 94.1372708,13.8252725 94.4227181,13.1079361 C94.7129043,12.4665125 95.1680828,11.9787193 95.8489409,11.6831899 C96.5079902,11.3494785 97.314962,11.2071284 98.2091689,11.2175063 C100.308611,11.2418719 102.351139,11.9103683 104.276064,13.1843625 C106.200989,14.4583566 107.891676,16.3364948 109.265629,18.7419618 C109.396482,18.9710539 109.549143,19.238328 109.684735,19.5433329 C109.820327,19.8483378 109.95118,20.0774299 110.082032,20.306522 L100.556785,20.1959745 C101.092526,20.9986993 101.956366,21.7673029 102.917886,22.233609 C104.078537,22.7780839 105.242041,23.0570896 106.231075,23.0306391 C106.969767,23.0392122 107.703721,22.9718724 108.376987,22.8658995 C108.933618,22.7585728 109.446631,22.5748822 109.898957,22.3525583 L112.401308,25.7193439 C112.216393,25.8689135 111.948982,25.9416678 111.70338,26.0526041 C111.341142,26.1621868 110.978905,26.2717695 110.573049,26.3049881 C110.150124,26.3759376 109.727199,26.4468871 109.226517,26.5169341 C108.742904,26.5492503 108.220413,26.5811153 107.676113,26.5747983 C106.492687,26.5989927 105.217286,26.3945462 103.849911,25.9614588 C102.720546,25.6069916 101.598774,25.0629678 100.506402,24.3675697 C99.452908,23.6726228 98.5065721,22.8272039 97.6939416,21.9454078 C96.8718331,20.9117861 96.1492906,19.9172489 95.5604535,18.8863344 M103.758218,16.4023097 C103.484182,16.0577692 103.137127,15.788239 102.790073,15.5187088 C102.40414,15.2487274 102.001138,15.0164768 101.602874,14.860139 C101.105045,14.6647168 100.672641,14.5838406 100.244977,14.5788773 C99.8173131,14.5739139 99.4721451,14.6457658 99.1924034,14.8321638 C98.96861,14.9812821 98.7666255,15.1685825 98.6860156,15.4331493 C98.6054057,15.6977161 98.5854831,16.0009162 98.6651265,16.3432007 C98.7447698,16.6854852 98.8632917,17.0282209 99.0206922,17.3714078 L104.541448,17.4354802 M83.3640903,14.5726068 C82.9364261,14.5676434 82.5305707,14.6008621 82.1683329,14.7104448 C81.8620434,14.7827479 81.5993715,14.931415 81.3973869,15.1187154 L85.6719081,22.6023904 C85.8881097,22.6428285 86.1820684,22.684169 86.5149056,22.7259607 C86.8477429,22.7677524 87.19765,22.7718134 87.5864356,22.7763255 C88.6408957,22.8644211 89.3729631,22.4556993 89.5370357,21.6610964 C89.5968033,20.7514962 89.2971859,19.6860095 88.6258527,18.5782799 M94.2555585,21.9434318 C94.4679408,22.8561904 94.4205039,23.652147 94.1521264,24.3317526 C93.8448704,25.010907 93.3337436,25.5359797 92.6358157,25.8692399 C91.8041824,26.2388773 90.8028178,26.3789714 89.6753396,26.3658862 C89.1699183,26.3600204 88.6038097,26.3155214 88.037701,26.2710224 C87.4715924,26.2265233 86.883675,26.1438423 86.3175664,26.0993433 C85.7685275,26.0171135 85.2194887,25.9348837 84.648641,25.8144718 C84.0996022,25.732242 83.6065117,25.6127326 83.1693695,25.4559436 L71.5016714,5.02856539 L75.3298067,4.42820226 L79.4734751,11.6827852 C79.830974,11.4972897 80.2491601,11.3504274 80.6891551,11.2417471 C81.1680286,11.1335181 81.6905196,11.1016531 82.2348195,11.1079701 C83.2067835,11.1192504 84.2271041,11.2828076 85.3612076,11.7131877 C86.3350578,12.0658502 87.3401948,12.6085202 88.255244,13.2639315 C89.2527892,13.996158 90.1384378,14.8029437 90.8733111,15.6838373 C91.651802,16.641095 92.3790836,17.7115451 92.9897295,18.7806415 M76.6443966,25.7974345 C75.5870837,25.9748082 74.4254658,26.0371846 73.259109,26.0236482 C72.1923181,26.0491962 71.0335531,25.8461033 69.8264315,25.4907336 C68.87439,25.1762532 67.9517491,24.7103984 67.0585087,24.0931691 C66.1823382,23.4382091 65.4180643,22.7086899 64.7656871,21.9046115 C64.0308137,21.0237178 63.4078371,20.068265 62.8844263,19.1518966 L58.2827734,11.0954914 L62.481658,11.1442225 L66.8216055,18.7424436 C67.5849128,20.0788141 68.3245252,21.0356206 69.0015639,21.6124117 C69.6786027,22.1892029 70.5140085,22.5023297 71.4859725,22.51361 C71.797001,22.5172197 72.1080295,22.5208294 72.4361277,22.4867084 C72.764226,22.4525873 73.0363759,22.4557458 73.2649083,22.3825402 L66.8749353,11.1952097 L71.0738198,11.2439409 L79.0994514,25.2949225 M50.0878149,14.8691316 C50.2319649,14.3777287 50.3979237,13.9245079 50.5638825,13.4712871 C50.7080325,12.9798842 50.8569215,12.5643942 50.966932,12.1484529 C51.0769424,11.7325117 51.2087616,11.3547525 51.3064413,11.0524549 L56.2828971,11.1102103 C55.9045091,12.2057571 55.5649998,13.3017552 55.2207514,14.3218405 C54.8376245,15.3414746 54.4374278,16.3988394 53.9205955,17.4548507 C54.8697842,18.0348003 55.7800943,18.6142988 56.6951434,19.26971 C57.6708799,19.9637545 58.6466164,20.657799 59.6659704,21.4282075 C60.6246371,22.1599828 61.6051126,22.9299401 62.4860222,23.660813 C63.3669317,24.3916858 64.1482754,25.0834743 64.8082444,25.6979962 L59.9873029,25.6420457 C59.3927602,25.1420698 58.759339,24.6416426 58.0434217,24.0644002 C57.3275044,23.4871579 56.5727085,22.9094643 55.8349824,22.2940399 C55.0801865,21.7163463 54.286512,21.1382015 53.4757678,20.5977875 C52.7645895,20.096458 52.0363414,19.6328592 51.3128323,19.2451733 L54.9548988,25.6215698 L50.7560143,25.5728387 L38.804802,4.64909426 L42.6329373,4.04873113 L49.5899385,16.228794" id="path3003" fill="#C9E5EB"></path>
      </g>
    <!-- The line  -->
      <path id="the-node-line" stroke="#EFD9DA" stroke-width="2" d="M820.833984,537.939535 L1006.89989,430.696116 C1009.29236,429.317158 1010.11398,426.259807 1008.73502,423.867333 C1008.293,423.100433 1007.65531,422.464622 1006.88711,422.024863 L881.923248,350.488642 C877.607523,348.018083 872.305147,348.022278 867.993337,350.499664 L619.679008,493.170674 C617.284656,494.546369 616.45887,497.602596 617.834565,499.996949 C618.27328,500.760518 618.90588,501.394673 619.66837,501.835262 L951.244911,693.429819 C955.574478,695.931568 960.909664,695.934192 965.24169,693.436702 L1368.72417,460.82186 C1371.59496,459.166798 1372.5805,455.497871 1370.92544,452.627081 C1370.40101,451.717426 1369.64704,450.961322 1368.73888,450.434317 L936.445599,199.575848 C932.090774,197.048756 926.714362,197.05474 922.365173,199.59152 L483.756289,455.421793 C481.370971,456.813094 480.56516,459.874648 481.95646,462.259967 C482.395387,463.012486 483.023314,463.637265 483.778031,464.072404 L604.412328,533.625255 C606.80461,535.004548 607.625799,538.062014 606.246506,540.454295 C605.799864,541.228964 605.153645,541.869679 604.375183,542.309679 L543,577 L543,577"></path>

      <g fill="#000" fill-opacity="1" opacity=".3" transform="translate(696 382)">
        <g filter="url(#hero-repo-shadow-blur)">
          <use filter="url(#home-repo-filter)" xlink:href="#home-hero-repo" />
        </g>
      </g>
    </g>

    <path fill="#B8DEE3" opacity=".5" d="M969.537 925.984c52.467 0 86.354-9.87 70.761-39.536-15.593-29.666-62.929-37.235-115.396-37.235s-83.16 21.32-74.604 37.235c8.556 15.914 66.772 39.536 119.239 39.536z" filter="url(#home-hero-filter-20)" style="mix-blend-mode:multiply" transform="rotate(-29 946.495 887.598)" />

    <!-- ENTERPRISE -->
    <g transform="translate(1063.687 500.984)">
      <g id="server-stack">
        <path id="server-shadow" fill="#5DA7B5"
          d="M4.813 167.995l49.092-27.468a20 20 0 0119.703.098l80.474 46.078c8.627 4.94 11.616 15.937 6.676 24.564a18 18 0 01-6.402 6.516l-52.378 31.233-97.165-55.657v-25.364z"
          filter="url(#home-hero-server-shadow)" opacity=".3" />
      </g>
    </g>
    <!-- END ENTERPRISE -->

    <!-- HUB DESK -->
    <g id="hub-desk-g" transform="translate(1047 825)">
      <g id="hub-desk-shadow" fill="#000" fill-opacity="1" filter="url(#home-hero-filter-5)" opacity=".3">
        <use filter="url(#home-hero-hub-shadow)" xlink:href="#home-hero-hub" />
      </g>
    </g>
    <!-- END HUB DESK -->

    <!-- LOCAL DESK -->
    <g transform="translate(540 876)">
      <g id="local-desk-shadow" fill="#000" fill-opacity="1" filter="url(#home-hero-filter-39)" opacity=".3">
        <use filter="url(#home-hero-local-shadow)" xlink:href="#home-hero-local" />
      </g>
    </g>
    <!-- END LOCAL DESK -->
  </g>
</svg>
