<svg id="hero-enterprise" viewBox="0 0 163 218" version="1.1" xmlns="http://www.w3.org/2000/svg" xmlns:xlink="http://www.w3.org/1999/xlink">
    <defs>
        <path d="M0.500399533,30.032645 L33.3684857,7.21257956 C39.7130648,2.80758591 48.027026,2.44963723 54.7267303,6.29302325 L154.989497,63.8102657 C161.217215,67.3828898 163.369594,75.327637 159.79697,81.5553552 C158.659946,83.5373901 157.020586,85.1847167 155.044086,86.331336 L109.073642,113 L109.073642,113 L0,49.5160434 L0.500399533,30.032645 Z" id="hero-enterprise-path-1"></path>
        <filter x="-18.2%" y="-31.1%" width="126.3%" height="165.6%" filterUnits="objectBoundingBox" id="hero-enterprise-filter-3">
            <feGaussianBlur stdDeviation="10" in="SourceGraphic"></feGaussianBlur>
        </filter>
        <filter x="-19.6%" y="-30.4%" width="139.2%" height="160.7%" filterUnits="objectBoundingBox" id="hero-enterprise-filter-4">
            <feGaussianBlur stdDeviation="5" in="SourceGraphic"></feGaussianBlur>
        </filter>
        <linearGradient x1="50%" y1="0%" x2="50%" y2="100%" id="hero-enterprise-gradient-5">
            <stop stop-color="#E9F3F5" offset="0%"></stop>
            <stop stop-color="#FFFFFF" offset="100%"></stop>
        </linearGradient>
        <path d="M0.500399533,30.032645 L33.3684857,7.21257956 C39.7130648,2.80758591 48.027026,2.44963723 54.7267303,6.29302325 L154.989497,63.8102657 C161.217215,67.3828898 163.369594,75.327637 159.79697,81.5553552 C158.659946,83.5373901 157.020586,85.1847167 155.044086,86.331336 L109.073642,113 L109.073642,113 L0,49.5160434 L0.500399533,30.032645 Z" id="hero-enterprise-path-6"></path>
        <filter x="-18.2%" y="-31.1%" width="126.3%" height="165.6%" filterUnits="objectBoundingBox" id="hero-enterprise-filter-8">
            <feGaussianBlur stdDeviation="10" in="SourceGraphic"></feGaussianBlur>
        </filter>
        <filter x="-19.6%" y="-30.4%" width="139.2%" height="160.7%" filterUnits="objectBoundingBox" id="hero-enterprise-filter-9">
            <feGaussianBlur stdDeviation="5" in="SourceGraphic"></feGaussianBlur>
        </filter>
        <path d="M0.500399533,30.032645 L33.3684857,7.21257956 C39.7130648,2.80758591 48.027026,2.44963723 54.7267303,6.29302325 L154.989497,63.8102657 C161.217215,67.3828898 163.369594,75.327637 159.79697,81.5553552 C158.659946,83.5373901 157.020586,85.1847167 155.044086,86.331336 L109.073642,113 L109.073642,113 L0,49.5160434 L0.500399533,30.032645 Z" id="hero-enterprise-path-10"></path>
        <filter x="-18.2%" y="-31.1%" width="126.3%" height="165.6%" filterUnits="objectBoundingBox" id="hero-enterprise-filter-12">
            <feGaussianBlur stdDeviation="10" in="SourceGraphic"></feGaussianBlur>
        </filter>
        <filter x="-19.6%" y="-30.4%" width="139.2%" height="160.7%" filterUnits="objectBoundingBox" id="hero-enterprise-filter-13">
            <feGaussianBlur stdDeviation="5" in="SourceGraphic"></feGaussianBlur>
        </filter>
        <path d="M0.500399533,30.032645 L33.3684857,7.21257956 C39.7130648,2.80758591 48.027026,2.44963723 54.7267303,6.29302325 L154.989497,63.8102657 C161.217215,67.3828898 163.369594,75.327637 159.79697,81.5553552 C158.659946,83.5373901 157.020586,85.1847167 155.044086,86.331336 L109.073642,113 L109.073642,113 L0,49.5160434 L0.500399533,30.032645 Z" id="hero-enterprise-path-14"></path>
        <filter x="-19.6%" y="-30.4%" width="139.2%" height="160.7%" filterUnits="objectBoundingBox" id="hero-enterprise-filter-16">
            <feGaussianBlur stdDeviation="5" in="SourceGraphic"></feGaussianBlur>
        </filter>
    </defs>
    <g id="Page-1" stroke="none" stroke-width="1" fill="none" fill-rule="evenodd">
        <g id="ISO-TEXT" transform="translate(-1064.000000, -504.000000)">
            <g id="Group-7" transform="translate(1063.687012, 500.983957)">
                <g id="server-stack" transform="translate(0.000000, -0.000000)">
                    <g id="server-4" transform="translate(0.000000, 108.000000)">
                        <g transform="translate(1.812589, 0.000000)">
                            <mask id="hero-enterprise-mask-2" fill="white">
                                <use xlink:href="#hero-enterprise-path-1"></use>
                            </mask>
                            <use id="Mask" fill="#5DA7B5" xlink:href="#hero-enterprise-path-1"></use>
                            <path d="M0.500399533,30.032645 L34.4347571,6.47227528 C40.216522,2.45803939 47.6827814,1.77856448 54.0942006,4.68314664 L140.593567,43.8701827 C147.133449,46.8329625 150.033263,54.5363918 147.070483,61.0762735 C145.865902,63.7351999 143.801491,65.91134 141.209686,67.2542657 L103.0004,87.0521396 L103.0004,87.0521396 L0.500399533,30.032645 Z" id="shadow" fill="#408895" filter="url(#hero-enterprise-filter-3)" mask="url(#hero-enterprise-mask-2)"></path>
                            <polygon fill-opacity="0.24" fill="#FFFFFF" filter="url(#hero-enterprise-filter-4)" mask="url(#hero-enterprise-mask-2)" points="106.746005 88.5394809 172.103915 51.4276645 183.321689 57.0160434 110.981357 100.819266"></polygon>
                        </g>
                        <path d="M11.0119642,28.5547323 L111.579104,86.8822867 C115.280354,89.0289609 117.558594,92.9840008 117.558594,97.2627231 L117.558594,104.678268 C117.558594,109.250063 113.852422,112.956235 109.280627,112.956235 C107.82922,112.956235 106.403323,112.574624 105.145933,111.849672 L5.00466333,54.1129284 C2.21742601,52.5059385 0.5,49.5333231 0.5,46.3160093 L0.5,34.6099868 C0.5,30.7439936 3.63400675,27.6099868 7.5,27.6099868 C8.73344445,27.6099868 9.94498986,27.9359019 11.0119642,28.5547323 Z" id="Rectangle" fill="url(#hero-enterprise-gradient-5)"></path>
                        <g id="server-face-01" transform="translate(8.312988, 36.016043)">
                            <g transform="translate(8.500000, 5.500000) rotate(4.000000) translate(-8.500000, -5.500000) translate(1.000000, 1.000000)" fill="#CC6769">
                                <circle cx="1.5" cy="1.5" r="1.5"></circle>
                                <circle cx="5.5" cy="3.5" r="1.5"></circle>
                                <circle cx="9.5" cy="5.5" r="1.5"></circle>
                                <circle cx="13.5" cy="7.5" r="1.5"></circle>
                            </g>
                            <g transform="translate(8.500000, 10.500000) rotate(4.000000) translate(-8.500000, -10.500000) translate(1.000000, 6.000000)" fill="#CC6769">
                                <circle cx="1.5" cy="1.5" r="1.5"></circle>
                                <circle cx="5.5" cy="3.5" r="1.5"></circle>
                                <circle cx="9.5" cy="5.5" r="1.5"></circle>
                                <circle cx="13.5" cy="7.5" r="1.5"></circle>
                            </g>
                            <g transform="translate(8.500000, 15.500000) rotate(4.000000) translate(-8.500000, -15.500000) translate(1.000000, 11.000000)" fill="#CC6769">
                                <circle cx="1.5" cy="1.5" r="1.5"></circle>
                                <circle cx="5.5" cy="3.5" r="1.5"></circle>
                                <circle cx="9.5" cy="5.5" r="1.5"></circle>
                                <circle cx="13.5" cy="7.5" r="1.5"></circle>
                            </g>
                            <circle class="server-dot" fill="#5DA7B5" cx="96.5" cy="62.5" r="3.5"></circle>
                        </g>
                        <path d="M42.8214495,65.9020576 C41.044528,64.8899502 39.7419883,62.4540434 39.7419883,60.1660434 C39.7419883,57.8780434 41.044528,56.9259502 42.8214495,57.9380576 C44.5903306,58.9455853 45.9009106,61.3750717 45.9009106,63.6740717 C45.9009106,65.9730717 44.5903306,66.9095853 42.8214495,65.9020576 Z M42.8214495,64.3840576 C43.8264955,64.9565165 44.5822902,64.3860056 44.5822902,62.9230056 C44.5822902,61.4600056 43.8264955,60.0285165 42.8214495,59.4560576 C41.8164034,58.8835987 41.0606087,59.4541095 41.0606087,60.9171095 C41.0606087,62.3801095 41.8164034,63.8115987 42.8214495,64.3840576 Z M50.7673437,62.5959179 L52.0538027,63.3286653 L52.0538027,71.0286653 L50.9844337,70.419569 L48.1783451,64.1462637 L48.1783451,68.8212637 L46.8918861,68.0885162 L46.8918861,60.3885162 L47.9692955,61.0021922 L50.7673437,67.2709179 L50.7673437,62.5959179 Z M53.1493029,69.2436455 L53.1493029,67.8686455 L55.4247273,69.1646925 L55.4247273,70.5396925 L53.1493029,69.2436455 Z M58.9484188,67.2557336 C60.4519677,68.1121321 61.3926909,69.7149537 61.3926909,71.4419537 C61.3926909,73.1579537 60.4519677,73.6891321 58.9484188,72.8327336 L57.8147268,72.1869999 L57.8147268,74.3099999 L56.5121871,73.5680931 L56.5121871,65.8680931 L58.9484188,67.2557336 Z M58.8760555,71.3395165 C59.672052,71.792904 60.0740704,71.5268876 60.0740704,70.6908876 C60.0740704,69.8438876 59.672052,69.119904 58.8760555,68.6665165 L57.8147268,68.0619999 L57.8147268,70.7349999 L58.8760555,71.3395165 Z M67.3124123,79.7197368 L65.9133881,78.9228739 L64.8279384,76.1596183 L63.6299234,75.4772472 L63.6299234,77.6222472 L62.3273837,76.8803405 L62.3273837,69.1803405 L64.7636154,70.5679809 C66.2671643,71.4243795 67.2078875,73.027201 67.2078875,74.754201 C67.2078875,75.909201 66.7817479,76.5134784 66.0500744,76.5257283 L67.3124123,79.7197368 Z M65.889267,74.0031349 C65.889267,73.1561349 65.4872486,72.4321513 64.6912521,71.9787639 L63.6299234,71.3742472 L63.6299234,74.0582472 L64.6912521,74.6627639 C65.4872486,75.1161513 65.889267,74.8391349 65.889267,74.0031349 Z M69.5416045,79.5594507 L72.6049849,81.3043055 L72.6049849,82.7343055 L68.2471051,80.2521236 L68.2471051,72.5521236 L72.5004601,74.9747697 L72.5004601,76.4047697 L69.5416045,74.7194507 L69.5416045,76.3914507 L72.1547243,77.8798439 L72.1547243,79.2658439 L69.5416045,77.7774507 L69.5416045,79.5594507 Z M79.9960937,86.9441684 L78.7739577,86.2480584 L78.7659174,81.6234787 L77.1096014,84.4860664 L76.5226545,84.1517504 L74.8743789,79.5059177 L74.8743789,84.0269177 L73.6522429,83.3308077 L73.6522429,75.6308077 L74.7296523,76.2444836 L76.8362289,82.2293576 L78.910644,78.6259128 L79.980013,79.2350091 L79.9960937,86.9441684 Z" id="ON-PREM" fill="#CC6769" fill-rule="nonzero" opacity="0.8"></path>
                    </g>
                    <g id="server-3" transform="translate(0.000000, 72.000000)">
                        <g transform="translate(1.812589, 0.000000)">
                            <mask id="hero-enterprise-mask-7" fill="white">
                                <use xlink:href="#hero-enterprise-path-6"></use>
                            </mask>
                            <use id="Mask" fill="#5DA7B5" xlink:href="#hero-enterprise-path-6"></use>
                            <path d="M0.500399533,30.032645 L34.4347571,6.47227528 C40.216522,2.45803939 47.6827814,1.77856448 54.0942006,4.68314664 L140.593567,43.8701827 C147.133449,46.8329625 150.033263,54.5363918 147.070483,61.0762735 C145.865902,63.7351999 143.801491,65.91134 141.209686,67.2542657 L103.0004,87.0521396 L103.0004,87.0521396 L0.500399533,30.032645 Z" id="shadow" fill="#408895" filter="url(#hero-enterprise-filter-8)" mask="url(#hero-enterprise-mask-7)"></path>
                            <polygon fill-opacity="0.24" fill="#FFFFFF" filter="url(#hero-enterprise-filter-9)" mask="url(#hero-enterprise-mask-7)" points="106.746005 88.5394809 172.103915 51.4276645 183.321689 57.0160434 110.981357 100.819266"></polygon>
                        </g>
                        <path d="M11.0119642,28.5547323 L111.579104,86.8822867 C115.280354,89.0289609 117.558594,92.9840008 117.558594,97.2627231 L117.558594,104.678268 C117.558594,109.250063 113.852422,112.956235 109.280627,112.956235 C107.82922,112.956235 106.403323,112.574624 105.145933,111.849672 L5.00466333,54.1129284 C2.21742601,52.5059385 0.5,49.5333231 0.5,46.3160093 L0.5,34.6099868 C0.5,30.7439936 3.63400675,27.6099868 7.5,27.6099868 C8.73344445,27.6099868 9.94498986,27.9359019 11.0119642,28.5547323 Z" id="Rectangle" fill="url(#hero-enterprise-gradient-5)"></path>
                        <g id="server-face-01" transform="translate(8.312988, 36.016043)">
                            <g transform="translate(8.500000, 5.500000) rotate(4.000000) translate(-8.500000, -5.500000) translate(1.000000, 1.000000)" fill="#CC6769">
                                <circle cx="1.5" cy="1.5" r="1.5"></circle>
                                <circle cx="5.5" cy="3.5" r="1.5"></circle>
                                <circle cx="9.5" cy="5.5" r="1.5"></circle>
                                <circle cx="13.5" cy="7.5" r="1.5"></circle>
                            </g>
                            <g transform="translate(8.500000, 10.500000) rotate(4.000000) translate(-8.500000, -10.500000) translate(1.000000, 6.000000)" fill="#CC6769">
                                <circle cx="1.5" cy="1.5" r="1.5"></circle>
                                <circle cx="5.5" cy="3.5" r="1.5"></circle>
                                <circle cx="9.5" cy="5.5" r="1.5"></circle>
                                <circle cx="13.5" cy="7.5" r="1.5"></circle>
                            </g>
                            <g transform="translate(8.500000, 15.500000) rotate(4.000000) translate(-8.500000, -15.500000) translate(1.000000, 11.000000)" fill="#CC6769">
                                <circle cx="1.5" cy="1.5" r="1.5"></circle>
                                <circle cx="5.5" cy="3.5" r="1.5"></circle>
                                <circle cx="9.5" cy="5.5" r="1.5"></circle>
                                <circle cx="13.5" cy="7.5" r="1.5"></circle>
                            </g>
                            <circle class="server-dot" fill="#5DA7B5" cx="96.5" cy="62.5" r="3.5"></circle>
                        </g>
                        <path d="M50.0073075,70.738007 L49.5240786,68.8135977 L46.9910237,67.3751616 L46.5077948,68.7507523 L45.2139883,68.0160434 L47.645721,61.696942 L48.8927634,62.4050952 L51.3322901,71.4904197 L50.0073075,70.738007 Z M47.3963125,66.2523114 L49.1265838,67.2348739 L48.2614482,63.7955926 L47.3963125,66.2523114 Z M53.2281843,71.1150338 L56.3302022,72.8765647 L56.3302022,74.3285647 L51.560265,71.619879 L51.560265,70.464879 L54.5531668,67.0714465 L51.6226172,65.4072866 L51.6226172,63.9552866 L56.213292,66.5621754 L56.213292,67.7171754 L53.2281843,71.1150338 Z M59.574461,76.3028694 C58.023452,75.4221039 57.1037582,73.645841 57.1037582,71.379841 L57.1037582,67.067841 L58.3663887,67.784846 L58.3663887,72.030846 C58.3663887,73.493846 58.8184415,74.3555515 59.582255,74.7892953 C60.3538625,75.2274651 60.7981214,74.8747446 60.7981214,73.4117446 L60.7981214,69.1657446 L62.0451638,69.8738977 L62.0451638,74.1858977 C62.0451638,76.4518977 61.12547,77.1836348 59.574461,76.3028694 Z M68.134238,81.0316767 L66.7780794,80.2615602 L65.7258874,77.519056 L64.5645791,76.8595884 L64.5645791,79.0045884 L63.3019487,78.2875833 L63.3019487,70.5875833 L65.6635353,71.9286483 C67.1210161,72.7563023 68.0329158,74.3411393 68.0329158,76.0681393 C68.0329158,77.2231393 67.619833,77.8355635 66.9105777,77.8618015 L68.134238,81.0316767 Z M66.7546974,75.3422823 C66.7546974,74.4952823 66.3649966,73.7789845 65.5933891,73.3408147 L64.5645791,72.7565884 L64.5645791,75.4405884 L65.5933891,76.0248147 C66.3649966,76.4629845 66.7546974,76.1782823 66.7546974,75.3422823 Z M70.2951287,80.8287733 L73.2646484,82.515063 L73.2646484,83.945063 L69.0402923,81.5461942 L69.0402923,73.8461942 L73.1633262,76.1875255 L73.1633262,77.6175255 L70.2951287,75.9887733 L70.2951287,77.6607733 L72.8281836,79.0992094 L72.8281836,80.4852094 L70.2951287,79.0467733 L70.2951287,80.8287733 Z" id="AZURE" fill="#CC6769" fill-rule="nonzero" opacity="0.8"></path>
                    </g>
                    <g id="server-2" transform="translate(0.000000, 36.000000)">
                        <g transform="translate(1.812589, 0.000000)">
                            <mask id="hero-enterprise-mask-11" fill="white">
                                <use xlink:href="#hero-enterprise-path-10"></use>
                            </mask>
                            <use id="Mask" fill="#5DA7B5" xlink:href="#hero-enterprise-path-10"></use>
                            <path d="M0.500399533,30.032645 L34.4347571,6.47227528 C40.216522,2.45803939 47.6827814,1.77856448 54.0942006,4.68314664 L140.593567,43.8701827 C147.133449,46.8329625 150.033263,54.5363918 147.070483,61.0762735 C145.865902,63.7351999 143.801491,65.91134 141.209686,67.2542657 L103.0004,87.0521396 L103.0004,87.0521396 L0.500399533,30.032645 Z" id="shadow" fill="#408895" filter="url(#hero-enterprise-filter-12)" mask="url(#hero-enterprise-mask-11)"></path>
                            <polygon fill-opacity="0.24" fill="#FFFFFF" filter="url(#hero-enterprise-filter-13)" mask="url(#hero-enterprise-mask-11)" points="106.746005 88.5394809 172.103915 51.4276645 183.321689 57.0160434 110.981357 100.819266"></polygon>
                        </g>
                        <path d="M11.0119642,28.5547323 L111.579104,86.8822867 C115.280354,89.0289609 117.558594,92.9840008 117.558594,97.2627231 L117.558594,104.678268 C117.558594,109.250063 113.852422,112.956235 109.280627,112.956235 C107.82922,112.956235 106.403323,112.574624 105.145933,111.849672 L5.00466333,54.1129284 C2.21742601,52.5059385 0.5,49.5333231 0.5,46.3160093 L0.5,34.6099868 C0.5,30.7439936 3.63400675,27.6099868 7.5,27.6099868 C8.73344445,27.6099868 9.94498986,27.9359019 11.0119642,28.5547323 Z" id="Rectangle" fill="url(#hero-enterprise-gradient-5)"></path>
                        <g id="server-face-01" transform="translate(8.312988, 36.016043)">
                            <g transform="translate(8.500000, 5.500000) rotate(4.000000) translate(-8.500000, -5.500000) translate(1.000000, 1.000000)" fill="#CC6769">
                                <circle cx="1.5" cy="1.5" r="1.5"></circle>
                                <circle cx="5.5" cy="3.5" r="1.5"></circle>
                                <circle cx="9.5" cy="5.5" r="1.5"></circle>
                                <circle cx="13.5" cy="7.5" r="1.5"></circle>
                            </g>
                            <g transform="translate(8.500000, 10.500000) rotate(4.000000) translate(-8.500000, -10.500000) translate(1.000000, 6.000000)" fill="#CC6769">
                                <circle cx="1.5" cy="1.5" r="1.5"></circle>
                                <circle cx="5.5" cy="3.5" r="1.5"></circle>
                                <circle cx="9.5" cy="5.5" r="1.5"></circle>
                                <circle cx="13.5" cy="7.5" r="1.5"></circle>
                            </g>
                            <g transform="translate(8.500000, 15.500000) rotate(4.000000) translate(-8.500000, -15.500000) translate(1.000000, 11.000000)" fill="#CC6769">
                                <circle cx="1.5" cy="1.5" r="1.5"></circle>
                                <circle cx="5.5" cy="3.5" r="1.5"></circle>
                                <circle cx="9.5" cy="5.5" r="1.5"></circle>
                                <circle cx="13.5" cy="7.5" r="1.5"></circle>
                            </g>
                            <circle class="server-dot" fill="#5DA7B5" cx="96.5" cy="62.5" r="3.5"></circle>
                        </g>
                        <path d="M55.6811395,73.5812848 L55.2307926,71.6726751 L52.8701029,70.3170598 L52.4197559,71.7084501 L51.2139883,71.0160434 L53.4802504,64.6174342 L54.6424361,65.2848141 L56.9159618,74.290376 L55.6811395,73.5812848 Z M53.2478132,69.1809582 L54.8603459,70.1069478 L54.0540796,66.695953 L53.2478132,69.1809582 Z M63.738355,70.5081044 L64.8642223,71.1546287 L63.2008441,77.8994412 L61.9369671,77.1736656 L60.8183634,71.3173125 L59.6634414,75.8681037 L58.4068281,75.1464992 L56.7361862,66.4871406 L57.9564812,67.1878895 L59.1041395,73.2589271 L60.3026435,68.5351626 L61.3921926,69.1608313 L62.5543783,75.2842112 L63.738355,70.5081044 Z M67.1976733,80.3266023 C66.391407,79.8636075 65.577877,79.0334416 65.12753,78.2468319 L65.5270314,77.1342438 C65.9555873,77.8533401 66.5947895,78.550399 67.204937,78.9007735 C67.9022484,79.3012014 68.1855311,79.1118752 68.1855311,78.6388752 C68.1855311,77.1978752 65.2292213,76.4902277 65.2292213,73.6302277 C65.2292213,72.3212277 65.9265327,71.6326556 67.3720011,72.4627093 C68.0112033,72.8297683 68.6649327,73.4361694 69.1370707,74.1582925 L68.7738876,75.3027363 C68.3017497,74.6246132 67.8150844,74.1471479 67.3647375,73.8885382 C66.6674261,73.4881103 66.3986706,73.7297787 66.3986706,74.2137787 C66.3986706,75.6327787 69.3549805,76.3514262 69.3549805,79.1784262 C69.3549805,80.4654262 68.6504054,81.1608272 67.1976733,80.3266023 Z" id="AWS" fill="#CC6769" fill-rule="nonzero" opacity="0.82"></path>
                    </g>
                    <g id="server-1" transform="translate(0.000000, 0.000000)">
                        <g transform="translate(1.812589, 0.000000)">
                            <mask id="hero-enterprise-mask-15" fill="white">
                                <use xlink:href="#hero-enterprise-path-14"></use>
                            </mask>
                            <use id="Mask" fill="#5DA7B5" xlink:href="#hero-enterprise-path-14"></use>
                            <polygon fill-opacity="0.24" fill="#FFFFFF" filter="url(#hero-enterprise-filter-16)" mask="url(#hero-enterprise-mask-15)" points="106.746005 88.5394809 172.103915 51.4276645 183.321689 57.0160434 110.981357 100.819266"></polygon>
                        </g>
                        <path d="M11.0119642,28.5547323 L111.579104,86.8822867 C115.280354,89.0289609 117.558594,92.9840008 117.558594,97.2627231 L117.558594,104.678268 C117.558594,109.250063 113.852422,112.956235 109.280627,112.956235 C107.82922,112.956235 106.403323,112.574624 105.145933,111.849672 L5.00466333,54.1129284 C2.21742601,52.5059385 0.5,49.5333231 0.5,46.3160093 L0.5,34.6099868 C0.5,30.7439936 3.63400675,27.6099868 7.5,27.6099868 C8.73344445,27.6099868 9.94498986,27.9359019 11.0119642,28.5547323 Z" id="Rectangle" fill="url(#hero-enterprise-gradient-5)"></path>
                        <g id="server-face-01" transform="translate(8.312988, 36.016043)">
                            <g transform="translate(8.500000, 5.500000) rotate(4.000000) translate(-8.500000, -5.500000) translate(1.000000, 1.000000)" fill="#CC6769">
                                <circle cx="1.5" cy="1.5" r="1.5"></circle>
                                <circle cx="5.5" cy="3.5" r="1.5"></circle>
                                <circle cx="9.5" cy="5.5" r="1.5"></circle>
                                <circle cx="13.5" cy="7.5" r="1.5"></circle>
                            </g>
                            <g transform="translate(8.500000, 10.500000) rotate(4.000000) translate(-8.500000, -10.500000) translate(1.000000, 6.000000)" fill="#CC6769">
                                <circle cx="1.5" cy="1.5" r="1.5"></circle>
                                <circle cx="5.5" cy="3.5" r="1.5"></circle>
                                <circle cx="9.5" cy="5.5" r="1.5"></circle>
                                <circle cx="13.5" cy="7.5" r="1.5"></circle>
                            </g>
                            <g transform="translate(8.500000, 15.500000) rotate(4.000000) translate(-8.500000, -15.500000) translate(1.000000, 11.000000)" fill="#CC6769">
                                <circle cx="1.5" cy="1.5" r="1.5"></circle>
                                <circle cx="5.5" cy="3.5" r="1.5"></circle>
                                <circle cx="9.5" cy="5.5" r="1.5"></circle>
                                <circle cx="13.5" cy="7.5" r="1.5"></circle>
                            </g>
                            <circle class="server-dot" fill="#5DA7B5" cx="96.5" cy="62.5" r="3.5"></circle>
                        </g>
                        <path d="M37.3621943,61.3550902 L37.3621943,59.1000902 L38.3985395,59.6883822 L38.3985395,62.8123822 C37.8593599,63.1443114 37.1171126,63.0639671 36.4168794,62.6664726 C34.8763662,61.7919846 33.7419883,59.4870434 33.7419883,57.1660434 C33.7419883,54.8450434 34.8763662,53.8279846 36.4378864,54.7143974 C37.2991733,55.2033157 38.0134112,56.0707602 38.4895699,57.2100564 L37.7613273,57.8526621 C37.4042083,57.0559399 36.9910707,56.5464181 36.493905,56.264197 C35.5415878,55.7236044 34.8903708,56.3549345 34.8903708,57.8179345 C34.8903708,59.2589345 35.5415878,60.6516044 36.4799004,61.1842471 C36.788003,61.3591447 37.0750986,61.4341175 37.3621943,61.3550902 Z M41.8314331,65.7400992 C40.2839176,64.8616362 39.1495397,62.5236951 39.1495397,60.2356951 C39.1495397,57.9476951 40.2839176,56.8976362 41.8314331,57.7760992 C43.3719463,58.6505872 44.5133266,60.9815033 44.5133266,63.2805033 C44.5133266,65.5795033 43.3719463,66.6145872 41.8314331,65.7400992 Z M41.8314331,64.2220992 C42.7067247,64.7189673 43.364944,64.0916122 43.364944,62.6286122 C43.364944,61.1656122 42.7067247,59.7909673 41.8314331,59.2940992 C40.9561416,58.797231 40.2979223,59.4245861 40.2979223,60.8875861 C40.2979223,62.3505861 40.9561416,63.725231 41.8314331,64.2220992 Z M47.7501549,69.0999218 C46.2026393,68.2214589 45.0682614,65.8835177 45.0682614,63.5955177 C45.0682614,61.3075177 46.2026393,60.2574589 47.7501549,61.1359218 C49.2906681,62.0104098 50.4320483,64.3413259 50.4320483,66.6403259 C50.4320483,68.9393259 49.2906681,69.9744098 47.7501549,69.0999218 Z M47.7501549,67.5819218 C48.6254464,68.07879 49.2836657,67.4514349 49.2836657,65.9884349 C49.2836657,64.5254349 48.6254464,63.15079 47.7501549,62.6539218 C46.8748633,62.1570536 46.216644,62.7844087 46.216644,64.2474087 C46.216644,65.7104087 46.8748633,67.0850536 47.7501549,67.5819218 Z M54.6071892,71.1443871 L54.6071892,68.8893871 L55.6435344,69.4776791 L55.6435344,72.6016791 C55.1043548,72.9336083 54.3621075,72.853264 53.6618742,72.4557695 C52.1213611,71.5812815 50.9869832,69.2763403 50.9869832,66.9553403 C50.9869832,64.6343403 52.1213611,63.6172815 53.6828812,64.5036943 C54.5441682,64.9926126 55.2584061,65.8600571 55.7345647,66.9993533 L55.0063221,67.641959 C54.6492032,66.8452368 54.2360655,66.335715 53.7388999,66.0534939 C52.7865827,65.5129013 52.1353657,66.1442314 52.1353657,67.6072314 C52.1353657,69.0482314 52.7865827,70.4409013 53.7248952,70.973544 C54.0329979,71.1484416 54.3200935,71.2234144 54.6071892,71.1443871 Z M56.7026372,74.0498896 L56.7026372,66.3498896 L57.8370151,66.9938307 L57.8370151,73.2418307 L60.2948339,74.6370366 L60.2948339,76.0890366 L56.7026372,74.0498896 Z M62.0681747,75.6656915 L64.7360634,77.1801457 L64.7360634,78.6101457 L60.9407991,76.4557253 L60.9407991,68.7557253 L64.6450331,70.8584714 L64.6450331,72.2884714 L62.0681747,70.8256915 L62.0681747,72.4976915 L64.3439328,73.7895488 L64.3439328,75.1755488 L62.0681747,73.8836915 L62.0681747,75.6656915 Z M69.9843118,81.7213673 C68.4648056,80.8588042 67.3304277,78.553863 67.3304277,76.232863 C67.3304277,73.911863 68.4648056,72.8948042 69.9913141,73.7613423 C70.8385964,74.2423107 71.545832,75.1277802 72.0079859,76.2701266 L71.2797433,76.9127322 C70.9506337,76.1319098 70.5374961,75.589388 70.0473328,75.3111418 C69.1300272,74.790424 68.4788103,75.4327541 68.4788103,76.8847541 C68.4788103,78.3367541 69.1300272,79.718424 70.0473328,80.2391418 C70.5374961,80.517388 70.9506337,80.4439098 71.2797433,80.0257322 L72.0079859,81.4951266 C71.545832,82.1237802 70.8385964,82.2063107 69.9843118,81.7213673 Z M72.7799931,83.1763643 L72.7799931,75.4763643 L73.914371,76.1203055 L73.914371,82.3683055 L76.3721898,83.7635113 L76.3721898,85.2155113 L72.7799931,83.1763643 Z M79.3079178,87.0140072 C77.7604023,86.1355443 76.6260244,83.7976031 76.6260244,81.5096031 C76.6260244,79.2216031 77.7604023,78.1715443 79.3079178,79.0500072 C80.848431,79.9244952 81.9898112,82.2554113 81.9898112,84.5544113 C81.9898112,86.8534113 80.848431,87.8884952 79.3079178,87.0140072 Z M79.3079178,85.4960072 C80.1832094,85.9928754 80.8414286,85.3655202 80.8414286,83.9025202 C80.8414286,82.4395202 80.1832094,81.0648754 79.3079178,80.5680072 C78.4326262,80.071139 77.7744069,80.6984941 77.7744069,82.1614941 C77.7744069,83.6244941 78.4326262,84.999139 79.3079178,85.4960072 Z M85.0305742,90.2625314 C83.63711,89.4715172 82.8108347,87.7484737 82.8108347,85.4824737 L82.8108347,81.1704737 L83.9452126,81.8144148 L83.9452126,86.0604148 C83.9452126,87.5234148 84.3513479,88.3589617 85.0375765,88.7485063 C85.7308075,89.1420259 86.1299404,88.7635978 86.1299404,87.3005978 L86.1299404,83.0545978 L87.2503137,83.6905891 L87.2503137,88.0025891 C87.2503137,90.2685891 86.4240384,91.0535455 85.0305742,90.2625314 Z M88.3794398,92.031549 L88.3794398,84.331549 L90.6061816,85.5955817 C92.2097158,86.5058442 93.309082,88.6479106 93.309082,90.9799106 C93.309082,93.3119106 92.2097158,94.2058442 90.6061816,93.2955817 L88.3794398,92.031549 Z M89.5138177,91.2124902 L90.5501629,91.8007821 C91.5234872,92.3532995 92.1606995,91.8020196 92.1606995,90.3280196 C92.1606995,88.8540196 91.5234872,87.5792995 90.5501629,87.0267821 L89.5138177,86.4384902 L89.5138177,91.2124902 Z" id="GOOGLECLOUD" fill="#CC6769" fill-rule="nonzero" opacity="0.8"></path>
                    </g>
                </g>
            </g>
        </g>
    </g>
</svg>