<svg id="hub-desk" viewBox="0 0 311 312" version="1.1" xmlns="http://www.w3.org/2000/svg" xmlns:xlink="http://www.w3.org/1999/xlink">
    <defs>
        <path d="M39.2721526,14.4501455 C39.1644865,14.1922601 38.9351108,14.0046158 38.6615986,13.9497608 C38.386749,13.8962438 38.1038746,13.9818711 37.9072668,14.1798843 L34.5826565,17.5059705 C34.1262456,17.962538 33.5548125,18.0585343 33.1569159,18.0585343 C32.3848627,18.0585343 31.5907412,17.706325 30.9664782,17.0825166 L30.8999391,17.0179617 C29.7918471,15.9084858 29.607611,14.2889253 30.4879991,13.4095729 L33.8119407,10.085159 C34.0092172,9.88781483 34.0954839,9.60417433 34.0406477,9.33056828 C33.987149,9.05562431 33.7995691,8.82683881 33.5417722,8.71980466 C32.3968999,8.24216477 31.2216001,8 30.0493097,8 C28.0645076,8 26.2512357,8.71980466 24.9418549,10.0289661 L22.7300176,12.2402248 C20.5482734,14.4267318 20.0968781,17.8906245 21.5166001,21.065525 C21.4259866,21.1361006 21.3410574,21.2123624 21.2618125,21.2929725 L10.8900848,31.6662541 C10.3159767,32.2405593 10,33.0296016 10,33.8875472 C10.0013375,34.9087199 10.4473829,35.9395926 11.2030522,36.6935144 L11.2826315,36.7791417 C12.060369,37.5551393 13.0915566,38 14.1117101,38 C14.9690269,38 15.7574641,37.6845837 16.3309034,37.1109476 L26.7039686,26.7353246 C26.7835479,26.655049 26.8581117,26.5700906 26.9286631,26.4804495 C28.1277029,27.0162893 29.3959567,27.2962505 30.640136,27.2962505 C32.6242694,27.2962505 34.4402162,26.5751079 35.752272,25.2646085 L37.9590937,23.0533498 C40.091686,20.9223668 40.5939051,17.625715 39.2721526,14.4501455 Z" id="hero-hub-path-1"></path>
        <filter x="-11.7%" y="-15.0%" width="116.7%" height="120.0%" filterUnits="objectBoundingBox" id="hero-hub-filter-2">
            <feOffset dx="-2" dy="-3" in="SourceAlpha" result="shadowOffsetOuter1"></feOffset>
            <feColorMatrix values="0 0 0 0 0.647058824   0 0 0 0 0.349019608   0 0 0 0 0.494117647  0 0 0 1 0" type="matrix" in="shadowOffsetOuter1"></feColorMatrix>
        </filter>
        <linearGradient x1="50%" y1="0%" x2="50%" y2="100%" id="hero-hub-gradient-3">
            <stop stop-color="#E9F3F5" offset="0%"></stop>
            <stop stop-color="#FFFFFF" offset="100%"></stop>
        </linearGradient>
        <path d="M0,60.6853146 L0,5.46615516 C7.52907669e-16,4.36158566 0.8954305,3.46615516 2,3.46615516 C2.35142137,3.46615516 2.69663906,3.5587509 3.00088868,3.73461774 L84.5206507,50.8558675 C85.7471185,51.5648084 86.5071277,52.8695812 86.518739,54.2861565 L86.9714018,109.511017 C86.9804553,110.615549 86.0923942,111.518289 84.9878619,111.527342 C84.6325837,111.530255 84.2829426,111.438473 83.9749012,111.261437 L2.0068645,64.1533704 C0.765393332,63.4398812 -2.36819654e-15,62.1172076 0,60.6853146 Z" id="hero-hub-path-4"></path>
        <filter x="-4.6%" y="-2.3%" width="118.4%" height="111.8%" filterUnits="objectBoundingBox" id="hero-hub-filter-5">
            <feOffset dx="4" dy="4" in="SourceAlpha" result="shadowOffsetOuter1"></feOffset>
            <feGaussianBlur stdDeviation="2" in="shadowOffsetOuter1" result="shadowBlurOuter1"></feGaussianBlur>
            <feColorMatrix values="0 0 0 0 0   0 0 0 0 0   0 0 0 0 0  0 0 0 0.1 0" type="matrix" in="shadowBlurOuter1"></feColorMatrix>
        </filter>
    </defs>
    <g id="Page-1" stroke="none" stroke-width="1" fill="none" fill-rule="evenodd">
        <g id="ISO-TEXT" transform="translate(-1057.000000, -706.000000)">
            <g id="table" transform="translate(1047.000000, 706.000000)">
                <path d="M14.9423544,185.30404 L116.979861,125.921557 C120.083816,124.115156 123.918064,124.111921 127.025063,125.91308 L313.999389,234.303994 C318.777425,237.07387 320.405361,243.192662 317.635484,247.970698 C316.753548,249.492038 315.486034,250.753915 313.960779,251.629061 L211.981502,310.141761 C208.896776,311.911686 205.104132,311.910105 202.020883,310.137609 L14.9883282,202.616479 C10.200287,199.863933 8.55019165,193.75108 11.3027371,188.963039 C12.1748936,187.445926 13.4298952,186.184241 14.9423544,185.30404 Z" id="table-top-iso" fill="#5DA7B5"></path>
                <path d="M14.9423544,181.30404 L116.979861,121.921557 C120.083816,120.115156 123.918064,120.111921 127.025063,121.91308 L313.999389,230.303994 C318.777425,233.07387 320.405361,239.192662 317.635484,243.970698 C316.753548,245.492038 315.486034,246.753915 313.960779,247.629061 L211.981502,306.141761 C208.896776,307.911686 205.104132,307.910105 202.020883,306.137609 L14.9883282,198.616479 C10.200287,195.863933 8.55019165,189.75108 11.3027371,184.963039 C12.1748936,183.445926 13.4298952,182.184241 14.9423544,181.30404 Z" id="table-top" fill="#FCFCFC"></path>
                <g id="Keyboard" transform="translate(174.000000, 197.000000)">
                    <path d="M19.0280805,1.19298853 L65.0694237,28.2761316 C66.0214899,28.8361705 66.3392908,30.061974 65.7792518,31.0140403 C65.6068358,31.3071476 65.362531,31.5514524 65.0694237,31.7238684 L53.0280805,38.8070115 C51.7762841,39.5433623 50.2237159,39.5433623 48.9719195,38.8070115 L2.93057633,11.7238684 C1.97851009,11.1638295 1.66070919,9.93802599 2.22074815,8.98595975 C2.39316423,8.69285241 2.637469,8.44854765 2.93057633,8.27613157 L14.9719195,1.19298853 C16.2237159,0.456637681 17.7762841,0.456637681 19.0280805,1.19298853 Z" id="keyboard" fill="#D9E7EA"></path>
                    <line x1="30" y1="15" x2="47" y2="25" id="Path-8" stroke="#FFFFFF" stroke-width="2" stroke-linecap="round"></line>
                </g>
                <g id="journal" transform="translate(91.199219, 169.238580)">
                    <path d="M25.1305362,0.562717907 L39.8029134,8.90738973 C40.2829872,9.18042377 40.4508261,9.7909383 40.177792,10.2710121 C40.0935775,10.419086 39.9729328,10.5431924 39.8272999,10.6315612 L19.2174159,23.1374549 C18.6069335,23.5078902 17.8452612,23.524737 17.2189971,23.1816562 L1.56998451,14.6087954 C1.08561887,14.3434497 0.908068183,13.7356885 1.17341395,13.2513229 C1.26237019,13.088941 1.39466162,12.954444 1.55555064,12.8628153 L23.1520227,0.56330185 C23.7652384,0.214066378 24.5171145,0.213844467 25.1305362,0.562717907 Z" id="Rectangle" fill="#D9E7EA"></path>
                    <path d="M15.0772987,9.50393749 L24.1154615,14.3690733 C24.6017674,14.630846 24.7837876,15.2372836 24.5220148,15.7235896 C24.4345671,15.8860448 24.3038814,16.0211412 24.1444171,16.1139311 L19.6540478,18.7268125 C19.0416355,19.0831664 18.2863876,19.0888955 17.6686396,18.7418733 L8.60500347,13.6503414 C8.12349213,13.3798506 7.9524262,12.7702324 8.22291701,12.2887211 C8.3175354,12.1202872 8.45891735,11.9828665 8.62997148,11.8930717 L13.1997379,9.49417462 C13.7883222,9.18519752 14.4919593,9.18885627 15.0772987,9.50393749 Z" id="Rectangle" fill="#FFFFFF"></path>
                </g>
                <line x1="184" y1="91" x2="184" y2="200" id="Path-7" stroke="#EFD9DA" stroke-width="2" stroke-linecap="round" stroke-linejoin="round"></line>
                <g  id="cloud-group">
                  <g id="Clouds" transform="translate(152.000000, 0.000000)">
                      <path d="M9,116 L160,28.8398438 C171.752568,18.9573487 162.449219,3 146.275391,1 C135.492839,-0.333333333 127.266602,2.44647338 121.59668,9.33942013 C109.631721,1.01246087 96.7371611,-0.00333176139 82.913,6.29204223 C69.0888389,12.5874162 58.8509118,25.676822 52.1992188,45.5602596 C31.5393059,48.874432 14.1129604,62.7431858 6.24607084,82.1320431 C-2.7998812,104.426893 -1.88190481,115.716212 9,116 Z" id="cloud-iso" fill="#5DA7B5"></path>
                      <path d="M12,119 L163,31.8398438 C174.752568,21.9573487 165.449219,6 149.275391,4 C138.492839,2.66666667 130.266602,5.44647338 124.59668,12.3394201 C112.631721,4.01246087 99.7371611,2.99666824 85.913,9.29204223 C72.0888389,15.5874162 61.8509118,28.676822 55.1992188,48.5602596 C34.5393059,51.874432 17.1129604,65.7431858 9.24607084,85.1320431 C0.2001188,107.426893 1.11809519,118.716212 12,119 Z" id="cloud" fill="#4C2A5C"></path>
                  </g>
                  <g id="wrench" transform="translate(160.000000, 28.000000)" fill-rule="nonzero">
                      <path d="M36.2721526,13.4501455 C36.1644865,13.1922601 35.9351108,13.0046158 35.6615986,12.9497608 C35.386749,12.8962438 35.1038746,12.9818711 34.9072668,13.1798843 L31.5826565,16.5059705 C31.1262456,16.962538 30.5548125,17.0585343 30.1569159,17.0585343 C29.3848627,17.0585343 28.5907412,16.706325 27.9664782,16.0825166 L27.8999391,16.0179617 C26.7918471,14.9084858 26.607611,13.2889253 27.4879991,12.4095729 L30.8119407,9.08515905 C31.0092172,8.88781483 31.0954839,8.60417433 31.0406477,8.33056828 C30.987149,8.05562431 30.7995691,7.82683881 30.5417722,7.71980466 C29.3968999,7.24216477 28.2216001,7 27.0493097,7 C25.0645076,7 23.2512357,7.71980466 21.9418549,9.02896612 L19.7300176,11.2402248 C17.5482734,13.4267318 17.0968781,16.8906245 18.5166001,20.065525 C18.4259866,20.1361006 18.3410574,20.2123624 18.2618125,20.2929725 L7.89008476,30.6662541 C7.31597675,31.2405593 7,32.0296016 7,32.8875472 C7.00133747,33.9087199 7.44738295,34.9395926 8.2030522,35.6935144 L8.28263153,35.7791417 C9.060369,36.5551393 10.0915566,37 11.1117101,37 C11.9690269,37 12.7574641,36.6845837 13.3309034,36.1109476 L23.7039686,25.7353246 C23.7835479,25.655049 23.8581117,25.5700906 23.9286631,25.4804495 C25.1277029,26.0162893 26.3959567,26.2962505 27.640136,26.2962505 C29.6242694,26.2962505 31.4402162,25.5751079 32.752272,24.2646085 L34.9590937,22.0533498 C37.091686,19.9223668 37.5939051,16.625715 36.2721526,13.4501455 Z" id="wrench-iso" fill="#B15280" transform="translate(22.000000, 22.000000) rotate(-45.000000) translate(-22.000000, -22.000000) "></path>
                      <g transform="translate(25.000000, 23.000000) rotate(-45.000000) translate(-25.000000, -23.000000) ">
                          <use fill="#F69279" xlink:href="#hero-hub-path-1"></use>
                      </g>
                  </g>
                </g>
                <g id="Computer" transform="translate(120.000000, 136.000000)">
                    <path d="M4,58.6853146 L4,3.46615516 C4,2.36158566 4.8954305,1.46615516 6,1.46615516 C6.35142137,1.46615516 6.69663906,1.5587509 7.00088868,1.73461774 L88.5206507,48.8558675 C89.7471185,49.5648084 90.5071277,50.8695812 90.518739,52.2861565 L90.9714018,107.511017 C90.9804553,108.615549 90.0923942,109.518289 88.9878619,109.527342 C88.6325837,109.530255 88.2829426,109.438473 87.9749012,109.261437 L6.0068645,62.1533704 C4.76539333,61.4398812 4,60.1172076 4,58.6853146 Z" id="screen-iso" fill="#5DA7B5"></path>
                    <g id="screen">
                        <use fill="black" fill-opacity="1" filter="url(#hero-hub-filter-5)" xlink:href="#hero-hub-path-4"></use>
                        <use fill="url(#hero-hub-gradient-3)" fill-rule="evenodd" xlink:href="#hero-hub-path-4"></use>
                    </g>
                    <path d="M38.56435,64.789325 L49.1287001,71.2453167 C50.9122281,72.3352505 52,74.2748096 52,76.3650077 L52,108.650829 C52,110.307684 50.6568542,111.650829 49,111.650829 C48.4479857,111.650829 47.9066737,111.498523 47.43565,111.210675 L36.8712999,104.754683 C35.0877719,103.664749 34,101.72519 34,99.6349923 L34,67.3491705 C34,65.6923163 35.3431458,64.3491705 37,64.3491705 C37.5520143,64.3491705 38.0933263,64.5014772 38.56435,64.789325 Z" id="base" fill="#D9E7EA"></path>
                </g>
                <g opacity=".8" transform="translate(229.000000, 241.000000)">
                  <g id="rubix">
                    <g id="cube-spin">
                      <polygon id="Fill-1" fill="#EBEBEB" points="0.1161 8.7341 3.1301 10.4751 3.1301 6.9941 0.1161 5.2541"></polygon>
                      <polygon id="Fill-4" fill="#ED1C24" points="6.1435 12.2142 3.1295 10.4742 3.1295 6.9942 6.1435 8.7342"></polygon>
                      <polygon id="Fill-6" fill="#009245" points="9.1572 13.9544 6.1432 12.2144 6.1432 8.7344 9.1572 10.4744"></polygon>
                      <polygon id="Fill-8" fill="#0071BC" points="0.1161 12.2144 3.1301 13.9544 3.1301 10.4744 0.1161 8.7344"></polygon>
                      <polygon id="Fill-11" fill="#EBEBEB" points="6.1435 15.6942 3.1295 13.9542 3.1295 10.4742 6.1435 12.2142"></polygon>
                      <polygon id="Fill-13" fill="#009245" points="9.1572 17.4344 6.1432 15.6944 6.1432 12.2144 9.1572 13.9544"></polygon>
                      <polygon id="Fill-15" fill="#D4145A" points="0.1161 15.6947 3.1301 17.4347 3.1301 13.9537 0.1161 12.2147"></polygon>
                      <polygon id="Fill-18" fill="#009245" points="6.1435 19.1742 3.1295 17.4342 3.1295 13.9542 6.1435 15.6942"></polygon>
                      <polygon id="Fill-20" fill="#0071BC" points="6.1434 19.1741 9.1574 20.9151 9.1574 17.4341 6.1434 15.6941"></polygon>
                      <polygon id="Fill-23" fill="#FFFF00" points="12.166 12.2142 9.152 13.9542 9.152 10.4742 12.166 8.7342"></polygon>
                      <polygon id="Fill-25" fill="#FFFF00" points="15.1796 10.4745 12.1656 12.2145 12.1656 8.7345 15.1796 6.9945"></polygon>
                      <polygon id="Fill-27" fill="#F7931E" points="15.1794 6.9944 15.1794 10.4744 18.1934 8.7344 18.1934 5.2534"></polygon>
                      <polygon id="Fill-29" fill="#ED1C24" points="12.166 15.6942 9.152 17.4342 9.152 13.9542 12.166 12.2142"></polygon>
                      <polygon id="Fill-31" fill="#ED1C24" points="15.1796 13.9544 12.1656 15.6944 12.1656 12.2144 15.1796 10.4744"></polygon>
                      <polygon id="Fill-33" fill="#F7931E" points="15.1794 10.4747 15.1794 13.9537 18.1934 12.2147 18.1934 8.7337"></polygon>
                      <polygon id="Fill-35" fill="#F7931E" points="9.1521 17.4344 9.1521 20.9144 12.1661 19.1744 12.1661 15.6934"></polygon>
                      <polygon id="Fill-38" fill="#009245" points="15.1796 17.4344 12.1656 19.1744 12.1656 15.6944 15.1796 13.9544"></polygon>
                      <polygon id="Fill-40" fill="#F7931E" points="15.1794 13.9541 15.1794 17.4341 18.1934 15.6951 18.1934 12.2141"></polygon>
                      <polygon id="Fill-42" fill="#0071BC" points="12.1671 5.2844 15.1801 7.0244 18.1941 5.2844 15.1801 3.5444"></polygon>
                      <polygon id="Fill-44" fill="#F7931E" points="9.1533 7.0243 12.1673 5.2843 15.1803 7.0243 12.1673 8.7643"></polygon>
                      <polygon id="Fill-46" fill="#ED1C24" points="6.1396 8.7645 9.1536 7.0245 12.1666 8.7645 9.1536 10.5045"></polygon>
                      <polygon id="Fill-48" fill="#F7931E" points="9.1533 3.5443 12.1673 1.8043 15.1803 3.5443 12.1673 5.2843"></polygon>
                      <polygon id="Fill-50" fill="#0071BC" points="6.1386 5.2845 9.1536 3.5445 12.1666 5.2845 9.1536 7.0245"></polygon>
                      <polygon id="Fill-52" fill="#FFFF00" points="3.125 7.0243 6.139 5.2843 9.153 7.0243 6.14 8.7643"></polygon>
                      <polygon id="Fill-54" fill="#EBEBEB" points="6.1386 1.8045 9.1526 0.0645 12.1666 1.8045 9.1536 3.5445"></polygon>
                      <polygon id="Fill-56" fill="#009245" points="3.125 3.5443 6.139 1.8043 9.153 3.5443 6.139 5.2843"></polygon>
                      <polygon id="Fill-58" fill="#F7931E" points="0.1116 5.2844 3.1246 7.0244 6.1386 5.2844 3.1246 3.5444"></polygon>
                    </g>
                  </g>
                </g>
            </g>
        </g>
    </g>
</svg>
